<svg width="187" height="53" viewBox="0 0 187 53" fill="none" xmlns="http://www.w3.org/2000/svg">
<g clip-path="url(#clip0_4228_18067)">
<path d="M169.198 42.4037V50.5314C170.721 50.8726 174.144 50.8411 177.466 49.7228C179.588 49.0192 182.719 46.625 184.009 44.2361C186.205 40.7918 186.534 36.5757 185.256 32.5643C184.286 29.7552 182.402 27.3433 179.9 25.7059C177.398 24.0684 174.418 23.2977 171.425 23.5143C168.433 23.7309 165.598 24.9226 163.363 26.903C161.129 28.8834 159.62 31.5409 159.074 34.4597C158.591 35.8879 158.835 51.529 158.835 51.529H165.93C165.93 51.529 165.93 39.7574 166.046 37.799C166.163 35.8406 166.667 33.2626 169.655 31.8345C170.954 31.2417 172.425 31.1294 173.801 31.518C175.177 31.9066 176.366 32.7704 177.153 33.9526C177.94 35.1348 178.273 36.5571 178.091 37.9612C177.909 39.3654 177.224 40.6584 176.16 41.6056C173.921 43.543 170.514 42.9287 169.198 42.4037Z" fill="#B5B5B5"/>
<path d="M174.76 17.4588C173.79 14.6497 171.907 12.2379 169.404 10.6004C166.902 8.96293 163.922 8.19224 160.93 8.40885C157.938 8.62546 155.102 9.81716 152.868 11.7976C150.633 13.778 149.124 16.4354 148.578 19.3543C148.207 20.4516 148.265 39.7733 148.313 44.4042C148.313 44.4042 127.002 44.4042 125.697 44.3307C123.723 44.1942 121.112 43.7164 119.669 40.7604C119.076 39.4754 118.968 38.0231 119.363 36.6659C119.758 35.3087 120.631 34.1361 121.823 33.36C123.016 32.5838 124.45 32.2554 125.866 32.434C127.282 32.6126 128.586 33.2865 129.544 34.3338C130.212 35.0961 130.682 36.008 130.913 36.9905L137.504 32.4699C136.777 30.8664 135.713 29.4345 134.384 28.2695C132.535 26.5818 130.261 25.417 127.802 24.8969C125.342 24.3769 122.786 24.5208 120.401 25.3135C117.562 26.273 115.125 28.1365 113.47 30.6125C111.815 33.0885 111.036 36.0373 111.255 38.9979C111.474 41.9584 112.678 44.7637 114.68 46.975C116.681 49.1863 119.367 50.6788 122.317 51.2193C122.773 51.3715 124.784 51.4503 127.316 51.487C130.255 51.529 155.556 51.487 155.556 51.487C155.556 51.487 155.434 24.2319 155.556 22.6935C155.694 20.7404 156.177 18.1572 159.164 16.729C160.54 16.1133 162.098 16.0301 163.532 16.4956C164.967 16.9612 166.172 17.9419 166.912 19.244C167.413 20.1641 167.665 21.1969 167.644 22.242C170.173 21.4226 172.869 21.2421 175.487 21.717C175.452 20.2704 175.208 18.8363 174.76 17.4588Z" fill="#1FBAD6"/>
<path d="M131.667 24.0994L138.109 19.689C137.184 19.0797 136.449 18.2269 135.987 17.2265C135.388 15.941 135.274 14.4855 135.667 13.1242C136.06 11.7629 136.933 10.5861 138.127 9.80724C139.322 9.02843 140.76 8.69926 142.179 8.87949C143.598 9.05971 144.905 9.73738 145.862 10.7895C146.528 11.5522 146.996 12.4641 147.226 13.4462L153.821 8.92558C153.095 7.32214 152.031 5.89026 150.701 4.72522C148.852 3.03659 146.578 1.87119 144.117 1.35112C141.656 0.831048 139.099 0.975458 136.714 1.76922C134.051 2.6667 131.737 4.36224 130.093 6.6204C128.449 8.87855 127.556 11.5872 127.539 14.3703C127.542 16.1817 127.908 17.9745 128.617 19.6446C129.326 21.3148 130.362 22.829 131.667 24.0994Z" fill="#1FBAD6"/>
<path d="M12.7455 46.5198C12.6871 44.9446 12.6288 43.0492 12.6288 41.1538H12.5704C12.1618 42.8182 11.6099 44.6821 11.1005 46.21L9.50863 51.3082H7.16321L5.75172 46.252C5.3219 44.7189 4.87086 42.8602 4.55778 41.1538H4.52064C4.44104 42.918 4.38267 44.9341 4.28716 46.5618L4.04837 51.5182H1.28906L2.13277 38.4551H6.10724L7.402 42.813C7.81059 44.3251 8.22448 45.9632 8.51633 47.4859H8.55878C8.93023 45.9737 9.38127 44.2516 9.81109 42.7972L11.212 38.4551H15.1121L15.8391 51.5182H12.9206L12.7455 46.5198Z" fill="#B5B5B5"/>
<path d="M23.1305 51.5181L22.9554 50.5678H22.8917C22.5514 50.952 22.1282 51.2558 21.6534 51.4566C21.1785 51.6575 20.6642 51.7502 20.1483 51.7281C19.7498 51.7495 19.351 51.6903 18.9764 51.554C18.6018 51.4177 18.2592 51.2072 17.9697 50.9355C17.6801 50.6637 17.4496 50.3363 17.2923 49.9734C17.1349 49.6104 17.0541 49.2195 17.0547 48.8246C17.0547 46.3622 19.2887 45.1808 22.6741 45.2018V45.0653C22.6741 44.5403 22.3982 43.8419 20.9283 43.8419C19.9959 43.8504 19.0817 44.0983 18.2752 44.5613L17.7445 42.6606C18.8954 42.087 20.1706 41.8004 21.459 41.8258C24.6428 41.8258 25.6722 43.6844 25.6722 45.9159V49.2289C25.6571 49.9996 25.7032 50.7703 25.8102 51.5339L23.1305 51.5181ZM22.7803 47.0395C21.1884 47.0395 19.9997 47.386 19.9997 48.5306C19.9879 48.6843 20.0104 48.8388 20.0657 48.9829C20.121 49.127 20.2077 49.2574 20.3197 49.3646C20.4316 49.4719 20.5661 49.5534 20.7134 49.6035C20.8608 49.6535 21.0175 49.6708 21.1724 49.6542C21.5131 49.6561 21.8459 49.5523 22.1238 49.3573C22.4017 49.1624 22.6109 48.8861 22.7219 48.5674C22.7636 48.3955 22.7832 48.2191 22.7803 48.0423V47.0395Z" fill="#B5B5B5"/>
<path d="M27.5156 51.5173C27.5528 50.8977 27.5952 49.7531 27.5952 48.6873V37.7559H30.5721V43.1638H30.6092C30.9427 42.7228 31.3813 42.3702 31.8859 42.1375C32.3905 41.9048 32.9454 41.7993 33.5012 41.8302C35.7936 41.8302 37.4757 43.7099 37.4598 46.6186C37.4598 50.0314 35.2682 51.7378 33.0714 51.7378C32.4959 51.7641 31.9239 51.6354 31.4165 51.3654C30.909 51.0954 30.4852 50.6943 30.19 50.2047H30.1582L30.0415 51.5225L27.5156 51.5173ZM30.5721 47.4849C30.5699 47.6617 30.5895 47.838 30.6305 48.01C30.7192 48.4037 30.94 48.7561 31.2571 49.0097C31.5741 49.2633 31.9686 49.4032 32.3763 49.4066C33.6498 49.4066 34.4351 48.4353 34.4351 46.7341C34.4351 45.264 33.7718 44.1089 32.3763 44.1089C31.9641 44.1222 31.5683 44.2715 31.2519 44.5332C30.9355 44.7949 30.7167 45.1538 30.6305 45.5528C30.592 45.7252 30.5724 45.9012 30.5721 46.0778V47.4849Z" fill="#B5B5B5"/>
<path d="M38.8765 45.0662C38.8765 43.8848 38.8393 42.8768 38.7969 42.0419H41.3811L41.519 43.3388H41.5774C41.905 42.8643 42.3466 42.4778 42.8625 42.2139C43.3784 41.95 43.9524 41.8169 44.5331 41.8267C46.4911 41.8267 47.961 43.1078 47.961 45.8958V51.5138H44.9894V46.2633C44.9894 45.0399 44.5596 44.2104 43.4824 44.2104C43.1477 44.2165 42.8235 44.3268 42.5558 44.5257C42.2881 44.7246 42.0906 45.0019 41.9913 45.3182C41.9069 45.554 41.8673 45.8032 41.8746 46.0533V51.519H38.8765V45.0662Z" fill="#B5B5B5"/>
<path d="M55.3674 51.5195L55.1923 50.5691H55.1339C54.7936 50.9534 54.3704 51.2572 53.8956 51.458C53.4207 51.6588 52.9064 51.7516 52.3905 51.7295C51.9915 51.7509 51.5923 51.6915 51.2174 51.5549C50.8424 51.4183 50.4996 51.2074 50.2099 50.935C49.9203 50.6627 49.6899 50.3347 49.5329 49.9711C49.3759 49.6075 49.2956 49.2161 49.2969 48.8207C49.2969 46.3583 51.5309 45.1769 54.9163 45.1979V45.0614C54.9163 44.5363 54.6404 43.838 53.1705 43.838C52.2381 43.8465 51.3239 44.0944 50.5174 44.5574L49.9867 42.6567C51.1376 42.0831 52.4128 41.7965 53.7012 41.8219C56.885 41.8219 57.9144 43.6805 57.9144 45.912V49.2303C57.8993 50.001 57.9454 50.7717 58.0524 51.5352L55.3674 51.5195ZM55.0172 47.0408C53.4252 47.0408 52.2366 47.3873 52.2366 48.5319C52.2248 48.6857 52.2473 48.8401 52.3026 48.9842C52.3579 49.1284 52.4446 49.2587 52.5566 49.366C52.6685 49.4732 52.8029 49.5548 52.9503 49.6048C53.0977 49.6549 53.2544 49.6722 53.4093 49.6555C53.75 49.6575 54.0827 49.5536 54.3607 49.3587C54.6386 49.1637 54.8478 48.8874 54.9588 48.5687C55.0005 48.3968 55.0201 48.2204 55.0172 48.0437V47.0408Z" fill="#B5B5B5"/>
<path d="M69.625 51.1505C68.5453 51.5646 67.3914 51.7558 66.2342 51.7123C61.6707 51.7123 59.3359 48.9033 59.3359 45.1808C59.3359 40.7231 62.5463 38.2449 66.542 38.2449C67.6559 38.2065 68.7652 38.4053 69.7948 38.8277L69.1899 41.1747C68.3958 40.8503 67.5443 40.6861 66.6853 40.6916C64.3133 40.6916 62.472 42.104 62.472 45.0127C62.472 47.638 64.0639 49.2761 66.7171 49.2761C67.5651 49.2759 68.4068 49.1321 69.2058 48.8508L69.625 51.1505Z" fill="#B5B5B5"/>
<path d="M70.9922 37.7559H73.9691V51.5173H70.9922V37.7559Z" fill="#B5B5B5"/>
<path d="M85.4141 46.6723C85.4141 50.1429 82.9254 51.7285 80.3624 51.7285C77.5606 51.7285 75.4062 49.9066 75.4062 46.8456C75.4062 43.7846 77.4439 41.8262 80.5163 41.8262C83.456 41.8314 85.4141 43.8266 85.4141 46.6723ZM78.4786 46.7668C78.4786 48.3945 79.1632 49.6178 80.4367 49.6178C81.5935 49.6178 82.3364 48.4732 82.3364 46.7668C82.3364 45.3545 81.8057 43.9158 80.4367 43.9158C79.0676 43.9158 78.4786 45.3755 78.4786 46.7721V46.7668Z" fill="#B5B5B5"/>
<path d="M95.8498 48.4781C95.8498 49.7172 95.887 50.7253 95.9294 51.5181H93.3452L93.2073 50.1792H93.1489C92.8311 50.6774 92.3874 51.0849 91.8615 51.3612C91.3356 51.6375 90.7459 51.773 90.1508 51.7544C88.214 51.7544 86.7812 50.552 86.7812 47.6275V42.041H89.7793V47.1287C89.7793 48.5043 90.2304 49.3391 91.2704 49.3391C91.597 49.3361 91.9148 49.2337 92.1806 49.0458C92.4464 48.858 92.6474 48.5938 92.7562 48.2891C92.8305 48.0839 92.863 47.8662 92.8517 47.6485V42.041H95.8498V48.4781Z" fill="#B5B5B5"/>
<path d="M107.096 37.7559V48.7031C107.096 49.7531 107.133 50.8925 107.175 51.533H104.522L104.384 50.1364H104.347C104.039 50.6458 103.598 51.0637 103.071 51.3464C102.543 51.629 101.948 51.7661 101.349 51.7431C99.0779 51.7431 97.2578 49.8266 97.2578 46.8811C97.2578 43.6836 99.2583 41.8407 101.545 41.8407C102.718 41.8407 103.641 42.245 104.071 42.8908H104.108V37.7559H107.096ZM104.119 46.0778C104.116 45.9023 104.104 45.727 104.082 45.5528C104.008 45.1471 103.793 44.7797 103.474 44.5142C103.155 44.2487 102.753 44.1016 102.336 44.0984C100.983 44.0984 100.277 45.3008 100.277 46.7919C100.277 48.3985 101.078 49.4171 102.315 49.4171C102.724 49.42 103.122 49.28 103.437 49.0217C103.752 48.7634 103.966 48.4033 104.039 48.0047C104.097 47.7836 104.124 47.5557 104.119 47.3274V46.0778Z" fill="#B5B5B5"/>
<path d="M10.6866 26.7005C10.6761 27.4315 10.515 28.1526 10.2129 28.8198C9.91093 29.487 9.47445 30.0861 8.93023 30.5806C8.43099 31.12 7.82566 31.5529 7.15135 31.8526C6.47705 32.1524 5.74797 32.3127 5.00883 32.3237H1.29437V30.0765H5.00883C5.45382 30.0772 5.89434 29.9887 6.30382 29.8164C6.7133 29.644 7.08326 29.3914 7.39138 29.0737C7.71702 28.7737 7.97653 28.4104 8.15368 28.0065C8.33081 27.6027 8.42176 27.167 8.42082 26.7267C8.4246 26.2837 8.33663 25.8445 8.16231 25.4364C7.988 25.0282 7.73105 24.6597 7.4073 24.3535C7.09775 24.0316 6.72466 23.776 6.31117 23.6026C5.89768 23.4292 5.4526 23.3417 5.00352 23.3455H1.28906V21.1035H5.00352C5.74081 21.1137 6.46837 21.2716 7.14233 21.5675C7.81629 21.8635 8.42267 22.2915 8.92492 22.8257C9.47169 23.3173 9.91028 23.915 10.2134 24.5817C10.5165 25.2483 10.6776 25.9696 10.6866 26.7005Z" fill="#1FBAD6" stroke="#1FBAD6" stroke-width="0.795955" stroke-miterlimit="10"/>
<path d="M34.4914 32.317C33.8164 32.3343 33.1469 32.1921 32.5386 31.9022C31.6352 31.3696 30.873 30.6317 30.3153 29.7495C29.7915 30.6331 29.0527 31.3731 28.1662 31.9022C27.5577 32.1841 26.8902 32.319 26.2188 32.296V30.033C27.0439 29.9435 27.8032 29.5453 28.3413 28.9199C28.9045 28.315 29.2155 27.5215 29.2115 26.699V15.043H31.4933V26.699C31.4942 27.5116 31.8094 28.2931 32.3741 28.8832C32.9188 29.5076 33.6721 29.9175 34.4967 30.0383L34.4914 32.317Z" fill="#1FBAD6" stroke="#1FBAD6" stroke-width="0.795955" stroke-miterlimit="10"/>
<path d="M70.8099 32.3167H34.7266V30.0747H68.5228C68.5469 29.1274 68.2183 28.2043 67.5995 27.481C67.299 27.1174 66.9187 26.8263 66.4875 26.6297C66.0562 26.4332 65.5855 26.3365 65.1108 26.3469H59.0722C58.3334 26.3365 57.6046 26.177 56.9303 25.8782C56.256 25.5794 55.6505 25.1475 55.1508 24.609C54.4033 23.8247 53.9002 22.8438 53.7017 21.7838C53.5032 20.7238 53.6177 19.6297 54.0315 18.6324C54.4453 17.6352 55.1408 16.7771 56.0348 16.1609C56.9288 15.5447 57.9834 15.1966 59.0722 15.1582H67.7799V17.4159H59.0722C58.1704 17.42 57.3065 17.7756 56.6679 18.4056C56.0292 19.0355 55.6672 19.8892 55.6602 20.7814C55.6561 21.2227 55.7445 21.6601 55.9199 22.0658C56.0952 22.4716 56.3537 22.837 56.679 23.1389C56.9896 23.4555 57.3618 23.7066 57.7731 23.8771C58.1844 24.0476 58.6263 24.1341 59.0722 24.1312H65.132C65.8703 24.1401 66.5991 24.2973 67.2741 24.5934C67.9491 24.8894 68.5563 25.3181 69.0588 25.8534C69.6031 26.3463 70.0394 26.9445 70.3406 27.611C70.6418 28.2776 70.8015 28.9981 70.8099 29.7282V32.3167Z" fill="#1FBAD6" stroke="#1FBAD6" stroke-width="0.795955" stroke-miterlimit="10"/>
<path d="M79.7217 19.9837C79.8702 19.9852 80.0174 19.9566 80.1543 19.8998C80.2911 19.8429 80.4148 19.7589 80.5177 19.6529C80.626 19.5487 80.7115 19.4237 80.769 19.2855C80.8265 19.1474 80.8547 18.999 80.852 18.8496C80.8323 18.5655 80.7044 18.2995 80.4941 18.1051C80.2838 17.9108 80.0068 17.8027 79.719 17.8027C79.4313 17.8027 79.1543 17.9108 78.944 18.1051C78.7337 18.2995 78.6058 18.5655 78.5861 18.8496C78.5833 18.9985 78.611 19.1465 78.6675 19.2846C78.7241 19.4226 78.8083 19.5479 78.9151 19.6529C79.0182 19.7615 79.1434 19.8471 79.2824 19.9041C79.4215 19.9612 79.5712 19.9883 79.7217 19.9837Z" fill="#1FBAD6" stroke="#1FBAD6" stroke-width="0.795955" stroke-miterlimit="10"/>
<path d="M86.3962 34.26C86.0923 34.26 85.8007 34.3795 85.5858 34.5921C85.3708 34.8048 85.2501 35.0933 85.2501 35.3941C85.2485 35.541 85.2774 35.6866 85.3349 35.8221C85.3924 35.9575 85.4773 36.0799 85.5844 36.1816C85.6896 36.2888 85.816 36.3735 85.9556 36.4304C86.0953 36.4872 86.2452 36.5152 86.3962 36.5124C86.6965 36.5097 86.9838 36.3904 87.1961 36.1803C87.4085 35.9702 87.529 35.686 87.5318 35.3888C87.5346 35.2394 87.5064 35.091 87.4489 34.9529C87.3914 34.8147 87.3058 34.6897 87.1975 34.5855C87.0936 34.4798 86.9689 34.3964 86.831 34.3404C86.6932 34.2844 86.5452 34.257 86.3962 34.26Z" fill="#1FBAD6" stroke="#1FBAD6" stroke-width="0.795955" stroke-miterlimit="10"/>
<path d="M105.357 22.767C104.829 22.2298 104.199 21.8015 103.503 21.5068C102.807 21.2121 102.059 21.0569 101.303 21.0501C100.561 21.0543 99.8282 21.2078 99.1486 21.5011C98.469 21.7945 97.8568 22.2216 97.3493 22.7565C96.806 23.2538 96.3717 23.8561 96.0732 24.5263C95.7748 25.1964 95.6185 25.92 95.6141 26.6523C95.6332 27.4851 95.3467 28.2965 94.8076 28.9363C94.5963 29.2452 94.315 29.501 93.9861 29.6834C93.6572 29.8657 93.2898 29.9694 92.9132 29.9863C92.5345 29.9379 92.1694 29.8149 91.8395 29.6247C91.5096 29.4344 91.2215 29.1807 90.9923 28.8785C90.4275 28.2885 90.1124 27.507 90.1114 26.6943V24.0691H87.8297V26.6943C87.8338 27.5178 87.5207 28.312 86.9541 28.9153C86.4713 29.4403 85.9194 30.0021 85.2349 29.9653C84.5185 29.9968 83.9773 29.4403 83.4732 28.9153C82.9017 28.3286 82.5822 27.5458 82.5817 26.7311V24.1058H80.3159V26.7311C80.3059 27.5079 80.0271 28.2579 79.5259 28.856C79.0248 29.4541 78.3316 29.8642 77.5619 30.0178C77.1658 30.0685 76.7633 30.0222 76.3895 29.8831C76.0157 29.7439 75.6822 29.5162 75.4181 29.2198C74.8556 28.5897 74.7442 27.5921 74.7442 26.7153V15.1328H72.4784V26.9201C72.3932 28.3817 72.8753 29.8202 73.8262 30.9419C74.3297 31.4454 74.9412 31.8304 75.6153 32.0685C76.2895 32.3066 77.0092 32.3917 77.7211 32.3175C78.248 32.2653 78.7635 32.1324 79.2493 31.9238C80.1464 31.3878 80.8942 30.6389 81.4249 29.7448C81.985 30.6301 82.7509 31.3701 83.6589 31.9028C84.0275 32.0823 84.4239 32.1994 84.8316 32.2493C84.9628 32.2744 85.096 32.2885 85.2296 32.2913C85.3524 32.2889 85.4749 32.2766 85.5957 32.2545C86.0124 32.2104 86.4182 32.095 86.795 31.9133C87.6886 31.3783 88.4314 30.6288 88.9546 29.7343C89.507 30.6213 90.2657 31.3648 91.1674 31.9028C91.6442 32.1295 92.162 32.2598 92.6903 32.286C92.6903 32.286 92.8336 32.286 92.9026 32.286C92.9716 32.286 93.1042 32.286 93.1042 32.286C93.6355 32.2651 94.1571 32.1383 94.6378 31.9133C95.5554 31.3857 96.3223 30.6359 96.8664 29.7343C97.4066 30.6989 98.2225 31.4843 99.2118 31.992C99.9277 32.2364 100.684 32.3434 101.441 32.307C102.184 32.2957 102.918 32.1354 103.597 31.8358C104.277 31.5362 104.888 31.1035 105.394 30.5639C105.956 30.0757 106.405 29.474 106.712 28.7994C107.019 28.1248 107.176 27.3929 107.173 26.653C107.17 25.9132 107.007 25.1825 106.695 24.5104C106.382 23.8382 105.928 23.2402 105.362 22.7565L105.357 22.767ZM103.812 29.0675C103.487 29.3871 103.101 29.6402 102.677 29.8123C102.253 29.9843 101.798 30.072 101.34 30.0703C100.89 30.0715 100.445 29.9828 100.031 29.8095C99.6172 29.6363 99.2429 29.3821 98.9306 29.0623C98.5973 28.762 98.3308 28.3965 98.1481 27.9888C97.9654 27.5811 97.8705 27.1403 97.8693 26.6943C97.8853 26.2511 97.9956 25.8162 98.1931 25.4181C98.3906 25.02 98.6709 24.6677 99.0155 24.3841C99.6461 23.738 100.507 23.3612 101.414 23.334C101.88 23.3433 102.339 23.4518 102.759 23.652C103.18 23.8522 103.551 24.1395 103.85 24.4944C104.463 25.0763 104.826 25.8699 104.863 26.7101C104.867 27.1546 104.776 27.5949 104.596 28.0021C104.416 28.4093 104.151 28.7742 103.818 29.0728L103.812 29.0675Z" fill="#1FBAD6" stroke="#1FBAD6" stroke-width="0.795955" stroke-miterlimit="10"/>
<path d="M23.9502 28.9372C23.8144 28.7731 23.6937 28.5974 23.5893 28.4121C23.6406 29.4341 23.6265 30.4582 23.5469 31.4784C24.3587 32.3237 25.3245 32.2974 26.0833 32.2974V30.0503C25.6666 30.0328 25.259 29.9239 24.89 29.7314C24.5211 29.5389 24.2 29.2676 23.9502 28.9372Z" fill="#1FBAD6" stroke="#1FBAD6" stroke-width="0.795955" stroke-miterlimit="10"/>
<path d="M23.9519 26.9826C23.9686 25.5179 23.4525 24.0961 22.498 22.9765C22.0246 22.4045 21.4394 21.9329 20.7774 21.5901C20.1155 21.2472 19.3903 21.0402 18.6455 20.9813C17.913 20.9397 17.1797 21.0488 16.4919 21.3019C15.8042 21.5549 15.177 21.9463 14.6499 22.4514C14.0778 22.9107 13.6043 23.4784 13.2571 24.1213C12.9099 24.7642 12.6961 25.4692 12.6281 26.195C12.5814 26.9211 12.6848 27.649 12.932 28.3342C13.1793 29.0194 13.5652 29.6475 14.0662 30.1801C14.5212 30.7527 15.0895 31.2273 15.7365 31.5749C16.3834 31.9225 17.0952 32.1357 17.8284 32.2015C18.7075 32.2501 19.5799 32.0242 20.3224 31.5557C20.6818 31.3228 21.024 31.0648 21.3465 30.7839L21.2987 31.6975C21.2671 32.1431 21.1434 32.5776 20.9353 32.9741C20.7272 33.3705 20.4391 33.7205 20.0889 34.0024C19.7609 34.2979 19.3748 34.5231 18.9548 34.6641C18.5348 34.805 18.0899 34.8586 17.6479 34.8215C16.8356 34.7363 16.0817 34.3634 15.5254 33.7714L14.0184 35.315C14.4153 35.7416 14.8839 36.0969 15.4034 36.3651C16.0289 36.7449 16.7324 36.9817 17.4622 37.0582C18.1982 37.1043 18.9358 37.0004 19.6295 36.753C20.3232 36.5055 20.9582 36.1197 21.4951 35.6196C22.0745 35.1643 22.5544 34.5972 22.9056 33.9527C23.2568 33.3083 23.472 32.6 23.538 31.8707C23.538 31.8707 23.9519 27.7019 23.9519 26.9826ZM21.6755 26.8723C21.6342 27.3075 21.5037 27.7297 21.292 28.1134C21.0804 28.497 20.792 28.834 20.4444 29.1037C19.9379 29.5228 19.3188 29.7864 18.6631 29.8622C18.0073 29.9381 17.3435 29.8229 16.753 29.5307C16.1624 29.2386 15.671 28.7822 15.3389 28.2177C15.0067 27.6531 14.8484 27.0048 14.8833 26.3525C15.0007 25.535 15.4159 24.7882 16.0507 24.2523C16.3633 23.9058 16.7495 23.632 17.1816 23.4504C17.6137 23.2689 18.081 23.1841 18.55 23.2022C19.0167 23.2519 19.4666 23.4023 19.8682 23.6427C20.2697 23.8831 20.6132 24.2077 20.8742 24.5936C21.408 25.2345 21.6839 26.0478 21.6489 26.8775L21.6755 26.8723Z" fill="#1FBAD6" stroke="#1FBAD6" stroke-width="0.795955" stroke-miterlimit="10"/>
</g>
<defs>
<clipPath id="clip0_4228_18067">
<rect width="186.429" height="52.2" fill="white" transform="translate(0.0703125 0.400391)"/>
</clipPath>
</defs>
</svg>
