<svg width="24" height="24" viewBox="0 0 24 24" fill="none" xmlns="http://www.w3.org/2000/svg">
<path d="M18.3619 19.3599C18.0995 19.3588 17.8481 19.2547 17.6619 19.0699C17.4756 18.8825 17.3711 18.6291 17.3711 18.3649C17.3711 18.1007 17.4756 17.8473 17.6619 17.6599C18.4057 16.9169 18.9958 16.0346 19.3984 15.0634C19.801 14.0922 20.0082 13.0512 20.0082 11.9999C20.0082 10.9486 19.801 9.90757 19.3984 8.93639C18.9958 7.9652 18.4057 7.0829 17.6619 6.33991C17.4981 6.14861 17.4125 5.90253 17.4222 5.65086C17.4319 5.39918 17.5362 5.16044 17.7143 4.98235C17.8924 4.80425 18.1312 4.69992 18.3828 4.6902C18.6345 4.68048 18.8806 4.76608 19.0719 4.92991C20.9466 6.80519 21.9998 9.34827 21.9998 11.9999C21.9998 14.6516 20.9466 17.1946 19.0719 19.0699C18.9784 19.1626 18.8676 19.2359 18.7458 19.2857C18.624 19.3354 18.4935 19.3607 18.3619 19.3599Z" fill="#1FBAD6"/>
<path d="M15.5399 16.54C15.4075 16.5394 15.2767 16.5126 15.1548 16.4611C15.0329 16.4096 14.9225 16.3345 14.8299 16.24C14.6436 16.0526 14.5391 15.7992 14.5391 15.535C14.5391 15.2708 14.6436 15.0174 14.8299 14.83C15.2018 14.4585 15.4968 14.0173 15.6981 13.5317C15.8994 13.0462 16.003 12.5256 16.003 12C16.003 11.4743 15.8994 10.9538 15.6981 10.4682C15.4968 9.98263 15.2018 9.54148 14.8299 9.16999C14.666 8.97869 14.5804 8.73261 14.5901 8.48093C14.5999 8.22926 14.7042 7.99052 14.8823 7.81243C15.0604 7.63433 15.2991 7.53 15.5508 7.52028C15.8025 7.51056 16.0486 7.59616 16.2399 7.75999C17.3635 8.88499 17.9946 10.41 17.9946 12C17.9946 13.59 17.3635 15.115 16.2399 16.24C16.0552 16.4284 15.8036 16.5362 15.5399 16.54Z" fill="#1FBAD6"/>
<path d="M11.38 4.08014C11.1979 4.00356 10.9972 3.98264 10.8032 4.02001C10.6092 4.05739 10.4306 4.15138 10.29 4.29014L6.59 8.00014H4C3.46957 8.00014 2.96086 8.21085 2.58579 8.58593C2.21071 8.961 2 9.46971 2 10.0001V14.0001C2 14.5306 2.21071 15.0393 2.58579 15.4144C2.96086 15.7894 3.46957 16.0001 4 16.0001H6.59L10.29 19.7101C10.3834 19.8028 10.4943 19.8761 10.6161 19.9259C10.7379 19.9757 10.8684 20.0009 11 20.0001C11.1312 20.0035 11.2613 19.9761 11.38 19.9201C11.5626 19.8451 11.7189 19.7177 11.8293 19.554C11.9396 19.3903 11.999 19.1976 12 19.0001V5.00014C11.999 4.80271 11.9396 4.61 11.8293 4.44628C11.7189 4.28256 11.5626 4.15516 11.38 4.08014Z" fill="#1FBAD6"/>
</svg>
