<?xml version="1.0" encoding="utf-8"?>
<!-- Generator: Adobe Illustrator 23.1.0, SVG Export Plug-In . SVG Version: 6.00 Build 0)  -->
<svg version="1.1" id="Layer_1" xmlns="http://www.w3.org/2000/svg" xmlns:xlink="http://www.w3.org/1999/xlink" x="0px" y="0px"
	 viewBox="0 0 1241 514" style="enable-background:new 0 0 1241 514;" xml:space="preserve">
<style type="text/css">
	.st0{fill:#FFFFFF;}
	.st1{fill:#1FBAD6;fill-opacity:8.000000e-02;}
	.st2{opacity:0.6;clip-path:url(#SVGID_2_);}
	.st3{opacity:0.2;fill:#1FBAD6;enable-background:new    ;}
</style>
<path class="st0" d="M1220.2,0H20C9,0,0,9,0,20v473.7c0,11,9,20,20,20h1200.2c11.1,0,20-9,20-20V20C1240.2,9,1231.3,0,1220.2,0z"/>
<path class="st1" d="M1240.4,0H827v513.7h413.4V0z"/>
<g>
	<defs>
		<path id="SVGID_1_" d="M1220.2,0H20C9,0,0,9,0,20v473.7c0,11,9,20,20,20h1200.2c11.1,0,20-9,20-20V20C1240.2,9,1231.3,0,1220.2,0z
			"/>
	</defs>
	<clipPath id="SVGID_2_">
		<use xlink:href="#SVGID_1_"  style="overflow:visible;"/>
	</clipPath>
	<g class="st2">
		<path class="st3" d="M160.3,366.6l0.5-0.4L160.3,366.6z M213.5,432.7l0.2-0.5L213.5,432.7z M393.8,420.5l0.1-0.5L393.8,420.5z
			 M523.9,460.4l-0.1,0.6L523.9,460.4z M715.9,440.1l0-0.6L715.9,440.1z M826,508l0,0.6l-1.3,0l0-0.6L826,508z M-4.8,323.8
			c0.1-0.6,0.1-0.6,0.1-0.5l0,0l0,0l0.1,0c0.1,0,0.2,0,0.3,0c0.3,0,0.6,0.1,1.1,0.1c1,0.1,2.4,0.2,4.3,0.4c3.7,0.4,9.1,0.9,15.6,1.7
			c13,1.5,30.8,3.9,49.5,7.3c18.7,3.4,38.4,7.7,55.4,13.2c17,5.5,31.3,12.2,39.3,20.2l-1,0.7c-7.7-7.8-21.8-14.4-38.8-19.9
			c-16.9-5.5-36.5-9.8-55.2-13.2c-18.7-3.4-36.4-5.7-49.4-7.3c-6.5-0.8-11.9-1.3-15.6-1.7c-1.9-0.2-3.3-0.3-4.3-0.4
			c-0.5,0-0.9-0.1-1.1-0.1c-0.1,0-0.2,0-0.3,0l-0.1,0l0,0l0,0C-4.9,324.4-4.9,324.4-4.8,323.8z M160.8,366.2
			c5.7,5.8,9,12.2,11.3,18.6c1.2,3.2,2.1,6.4,3.1,9.6c1,3.2,1.9,6.3,3,9.4c2.3,6.1,5.3,11.8,10.6,16.6c5.3,4.9,13.1,8.9,24.8,11.7
			l-0.3,1.1c-11.9-2.8-19.9-7-25.4-12c-5.5-5-8.6-10.9-10.9-17.1c-1.1-3.1-2.1-6.3-3-9.4c-1-3.2-1.9-6.4-3.1-9.6
			c-2.3-6.3-5.5-12.6-11.1-18.2L160.8,366.2z M213.7,432.1c25,6,52.9,0.4,83.2-5.4c30.3-5.8,62.9-11.9,97-6.8l-0.2,1.1
			c-33.9-5.1-66.3,0.9-96.5,6.7c-30.2,5.8-58.5,11.4-83.8,5.4L213.7,432.1z M393.9,420c33.3,5,48.7,13.6,64.4,21.7
			c15.6,8,31.5,15.5,65.6,18.2l-0.1,1.1c-34.4-2.7-50.4-10.3-66.1-18.3c-15.6-8-30.9-16.6-64-21.6L393.9,420z M523.9,459.9
			c32.7,2.6,64-2.5,95.5-8.3c31.5-5.8,63.1-12.2,96.5-12.1l0,1.1c-33.2-0.1-64.7,6.3-96.2,12.1c-31.5,5.8-62.9,10.9-95.9,8.3
			L523.9,459.9z M715.9,439.5c39.7,0.1,67,3.1,84.5,13.1c17.5,10.1,25.1,27.2,25.6,55.4l-1.3,0c-0.6-28-8-44.7-25-54.5
			c-17.1-9.8-44-12.8-83.8-12.9L715.9,439.5z"/>
		<path class="st3" d="M160.3,369.6l0.5-0.4L160.3,369.6z M213.5,435.7l0.2-0.5L213.5,435.7z M393.8,423.6l0.1-0.5L393.8,423.6z
			 M523.9,463.5l-0.1,0.6L523.9,463.5z M715.9,443.1l0-0.6L715.9,443.1z M826,511l0,0.6l-1.3,0l0-0.6L826,511z M-4.8,326.9
			c0.1-0.6,0.1-0.6,0.1-0.6l0,0l0,0l0.1,0c0.1,0,0.2,0,0.3,0c0.3,0,0.6,0.1,1.1,0.1c1,0.1,2.4,0.2,4.3,0.4c3.7,0.4,9.1,0.9,15.6,1.7
			c13,1.5,30.8,3.9,49.5,7.3c18.7,3.4,38.4,7.7,55.4,13.2c17,5.5,31.3,12.2,39.3,20.2l-1,0.7c-7.7-7.8-21.8-14.4-38.8-19.9
			c-16.9-5.5-36.5-9.8-55.2-13.2c-18.7-3.4-36.4-5.7-49.4-7.3c-6.5-0.8-11.9-1.3-15.6-1.7c-1.9-0.2-3.3-0.3-4.3-0.4
			c-0.5,0-0.9-0.1-1.1-0.1c-0.1,0-0.2,0-0.3,0l-0.1,0l0,0l0,0C-4.9,327.4-4.9,327.4-4.8,326.9z M160.8,369.3
			c5.7,5.8,9,12.2,11.3,18.6c1.2,3.2,2.1,6.4,3.1,9.6c1,3.2,1.9,6.3,3,9.4c2.3,6.1,5.3,11.8,10.6,16.6c5.3,4.9,13.1,8.9,24.8,11.7
			l-0.3,1.1c-11.9-2.8-19.9-7-25.4-12c-5.5-5-8.6-10.9-10.9-17.1c-1.1-3.1-2.1-6.3-3-9.4c-1-3.2-1.9-6.4-3.1-9.6
			c-2.3-6.3-5.5-12.6-11.1-18.2L160.8,369.3z M213.7,435.2c25,6,52.9,0.4,83.2-5.4c30.3-5.8,62.9-11.9,97-6.8l-0.2,1.1
			c-33.9-5.1-66.3,0.9-96.5,6.7c-30.2,5.8-58.5,11.4-83.8,5.4L213.7,435.2z M393.9,423.1c33.3,5,48.7,13.6,64.4,21.7
			c15.6,8,31.5,15.5,65.6,18.2l-0.1,1.1c-34.4-2.7-50.4-10.3-66.1-18.3c-15.6-8-30.9-16.6-64-21.6L393.9,423.1z M523.9,462.9
			c32.7,2.6,64-2.5,95.5-8.3c31.5-5.8,63.1-12.2,96.5-12.1l0,1.1c-33.2-0.1-64.7,6.3-96.2,12.1c-31.5,5.8-62.9,10.9-95.9,8.3
			L523.9,462.9z M715.9,442.6c39.7,0.1,67,3.1,84.5,13.1c17.5,10.1,25.1,27.2,25.6,55.4l-1.3,0c-0.6-28-8-44.7-25-54.5
			c-17.1-9.8-44-12.8-83.8-12.9L715.9,442.6z"/>
		<path class="st3" d="M160.3,372.7l0.5-0.4L160.3,372.7z M213.5,438.8l0.2-0.5L213.5,438.8z M393.8,426.7l0.1-0.5L393.8,426.7z
			 M523.9,466.5l-0.1,0.6L523.9,466.5z M715.9,446.2l0-0.6L715.9,446.2z M826,514.1l0,0.6l-1.3,0l0-0.6L826,514.1z M-4.8,329.9
			c0.1-0.6,0.1-0.6,0.1-0.5l0,0l0,0l0.1,0c0.1,0,0.2,0,0.3,0c0.3,0,0.6,0.1,1.1,0.1c1,0.1,2.4,0.2,4.3,0.4c3.7,0.4,9.1,0.9,15.6,1.7
			c13,1.5,30.8,3.9,49.5,7.3c18.7,3.4,38.4,7.7,55.4,13.2c17,5.5,31.3,12.2,39.3,20.2l-1,0.7c-7.7-7.8-21.8-14.4-38.8-19.9
			c-16.9-5.5-36.5-9.8-55.2-13.2c-18.7-3.4-36.4-5.7-49.4-7.3c-6.5-0.8-11.9-1.3-15.6-1.7c-1.9-0.2-3.3-0.3-4.3-0.4
			c-0.5,0-0.9-0.1-1.1-0.1c-0.1,0-0.2,0-0.3,0l-0.1,0l0,0l0,0C-4.9,330.5-4.9,330.5-4.8,329.9z M160.8,372.3
			c5.7,5.8,9,12.2,11.3,18.6c1.2,3.2,2.1,6.4,3.1,9.6c1,3.2,1.9,6.3,3,9.4c2.3,6.1,5.3,11.8,10.6,16.6c5.3,4.9,13.1,8.9,24.8,11.7
			l-0.3,1.1c-11.9-2.8-19.9-7-25.4-12c-5.5-5-8.6-10.9-10.9-17.1c-1.1-3.1-2.1-6.3-3-9.4c-1-3.2-1.9-6.4-3.1-9.6
			c-2.3-6.3-5.5-12.6-11.1-18.2L160.8,372.3z M213.7,438.3c25,6,52.9,0.4,83.2-5.4c30.3-5.8,62.9-11.9,97-6.8l-0.2,1.1
			c-33.9-5.1-66.3,0.9-96.5,6.7c-30.2,5.8-58.5,11.4-83.8,5.4L213.7,438.3z M393.9,426.1c33.3,5,48.7,13.6,64.4,21.7
			c15.6,8,31.5,15.5,65.6,18.2l-0.1,1.1c-34.4-2.7-50.4-10.3-66.1-18.3c-15.6-8-30.9-16.6-64-21.6L393.9,426.1z M523.9,466
			c32.7,2.6,64-2.5,95.5-8.3c31.5-5.8,63.1-12.2,96.5-12.1l0,1.1c-33.2-0.1-64.7,6.3-96.2,12.1c-31.5,5.8-62.9,10.9-95.9,8.3
			L523.9,466z M715.9,445.6c39.7,0.1,67,3.1,84.5,13.1c17.5,10.1,25.1,27.2,25.6,55.4l-1.3,0c-0.6-28-8-44.7-25-54.5
			c-17.1-9.8-44-12.8-83.8-12.9L715.9,445.6z"/>
		<path class="st3" d="M160.3,375.7l0.5-0.4L160.3,375.7z M213.5,441.9l0.2-0.5L213.5,441.9z M393.8,429.7l0.1-0.5L393.8,429.7z
			 M523.9,469.6l-0.1,0.6L523.9,469.6z M715.9,449.2l0-0.6L715.9,449.2z M826,517.1l0,0.6l-1.3,0l0-0.6L826,517.1z M-4.8,333
			c0.1-0.6,0.1-0.6,0.1-0.6l0,0l0,0l0.1,0c0.1,0,0.2,0,0.3,0c0.3,0,0.6,0.1,1.1,0.1c1,0.1,2.4,0.2,4.3,0.4c3.7,0.4,9.1,0.9,15.6,1.7
			c13,1.5,30.8,3.9,49.5,7.3c18.7,3.4,38.4,7.7,55.4,13.2c17,5.5,31.3,12.2,39.3,20.2l-1,0.7c-7.7-7.8-21.8-14.4-38.8-19.9
			c-16.9-5.5-36.5-9.8-55.2-13.2c-18.7-3.4-36.4-5.7-49.4-7.3c-6.5-0.8-11.9-1.3-15.6-1.7c-1.9-0.2-3.3-0.3-4.3-0.4
			c-0.5,0-0.9-0.1-1.1-0.1c-0.1,0-0.2,0-0.3,0l-0.1,0l0,0l0,0C-4.9,333.5-4.9,333.5-4.8,333z M160.8,375.4c5.7,5.8,9,12.2,11.3,18.6
			c1.2,3.2,2.1,6.4,3.1,9.6c1,3.2,1.9,6.3,3,9.4c2.3,6.1,5.3,11.8,10.6,16.6c5.3,4.9,13.1,8.9,24.8,11.7l-0.3,1.1
			c-11.9-2.8-19.9-7-25.4-12c-5.5-5-8.6-10.9-10.9-17.1c-1.1-3.1-2.1-6.3-3-9.4c-1-3.2-1.9-6.4-3.1-9.6c-2.3-6.3-5.5-12.6-11.1-18.2
			L160.8,375.4z M213.7,441.3c25,6,52.9,0.4,83.2-5.4c30.3-5.8,62.9-11.9,97-6.8l-0.2,1.1c-33.9-5.1-66.3,0.9-96.5,6.7
			c-30.2,5.8-58.5,11.4-83.8,5.4L213.7,441.3z M393.9,429.2c33.3,5,48.7,13.6,64.4,21.7c15.6,8,31.5,15.5,65.6,18.2l-0.1,1.1
			c-34.4-2.7-50.4-10.3-66.1-18.3c-15.6-8-30.9-16.6-64-21.6L393.9,429.2z M523.9,469.1c32.7,2.6,64-2.5,95.5-8.3
			c31.5-5.8,63.1-12.2,96.5-12.1l0,1.1c-33.2-0.1-64.7,6.3-96.2,12.1c-31.5,5.8-62.9,10.9-95.9,8.3L523.9,469.1z M715.9,448.7
			c39.7,0.1,67,3.1,84.5,13.1c17.5,10.1,25.1,27.2,25.6,55.4l-1.3,0c-0.6-28-8-44.7-25-54.5c-17.1-9.8-44-12.8-83.8-12.9
			L715.9,448.7z"/>
		<path class="st3" d="M160.3,378.8l0.5-0.4L160.3,378.8z M213.5,444.9l0.2-0.5L213.5,444.9z M393.8,432.8l0.1-0.5L393.8,432.8z
			 M523.9,472.7l-0.1,0.6L523.9,472.7z M715.9,452.3l0-0.6L715.9,452.3z M826,520.2l0,0.6l-1.3,0l0-0.6L826,520.2z M-4.8,336
			c0.1-0.6,0.1-0.6,0.1-0.6l0,0l0,0l0.1,0c0.1,0,0.2,0,0.3,0c0.3,0,0.6,0.1,1.1,0.1c1,0.1,2.4,0.2,4.3,0.4c3.7,0.4,9.1,0.9,15.6,1.7
			c13,1.5,30.8,3.9,49.5,7.3c18.7,3.4,38.4,7.7,55.4,13.2c17,5.5,31.3,12.2,39.3,20.2l-1,0.7c-7.7-7.8-21.8-14.4-38.8-19.9
			c-16.9-5.5-36.5-9.8-55.2-13.2c-18.7-3.4-36.4-5.7-49.4-7.3c-6.5-0.8-11.9-1.3-15.6-1.7c-1.9-0.2-3.3-0.3-4.3-0.4
			c-0.5,0-0.9-0.1-1.1-0.1c-0.1,0-0.2,0-0.3,0l-0.1,0l0,0l0,0C-4.9,336.6-4.9,336.6-4.8,336z M160.8,378.4c5.7,5.8,9,12.2,11.3,18.6
			c1.2,3.2,2.1,6.4,3.1,9.6c1,3.2,1.9,6.3,3,9.4c2.3,6.1,5.3,11.8,10.6,16.6c5.3,4.9,13.1,8.9,24.8,11.7l-0.3,1.1
			c-11.9-2.8-19.9-7-25.4-12c-5.5-5-8.6-10.9-10.9-17.1c-1.1-3.1-2.1-6.3-3-9.4c-1-3.2-1.9-6.4-3.1-9.6c-2.3-6.3-5.5-12.6-11.1-18.2
			L160.8,378.4z M213.7,444.4c25,6,52.9,0.4,83.2-5.4c30.3-5.8,62.9-11.9,97-6.8l-0.2,1.1c-33.9-5.1-66.3,0.9-96.5,6.7
			c-30.2,5.8-58.5,11.4-83.8,5.4L213.7,444.4z M393.9,432.2c33.3,5,48.7,13.6,64.4,21.7c15.6,8,31.5,15.5,65.6,18.2l-0.1,1.1
			c-34.4-2.7-50.4-10.3-66.1-18.3c-15.6-8-30.9-16.6-64-21.6L393.9,432.2z M523.9,472.1c32.7,2.6,64-2.5,95.5-8.3
			c31.5-5.8,63.1-12.2,96.5-12.1l0,1.1c-33.2-0.1-64.7,6.3-96.2,12.1c-31.5,5.8-62.9,10.9-95.9,8.3L523.9,472.1z M715.9,451.7
			c39.7,0.1,67,3.1,84.5,13.1c17.5,10.1,25.1,27.2,25.6,55.4l-1.3,0c-0.6-28-8-44.7-25-54.5c-17.1-9.8-44-12.8-83.8-12.9
			L715.9,451.7z"/>
		<path class="st3" d="M160.3,381.9l0.5-0.4L160.3,381.9z M213.5,448l0.2-0.5L213.5,448z M393.8,435.8l0.1-0.5L393.8,435.8z
			 M523.9,475.7l-0.1,0.6L523.9,475.7z M715.9,455.4l0-0.6L715.9,455.4z M826,523.3l0,0.6l-1.3,0l0-0.6L826,523.3z M-4.8,339.1
			c0.1-0.6,0.1-0.6,0.1-0.6l0,0l0,0l0.1,0c0.1,0,0.2,0,0.3,0c0.3,0,0.6,0.1,1.1,0.1c1,0.1,2.4,0.2,4.3,0.4c3.7,0.4,9.1,0.9,15.6,1.7
			c13,1.5,30.8,3.9,49.5,7.3c18.7,3.4,38.4,7.7,55.4,13.2c17,5.5,31.3,12.2,39.3,20.2l-1,0.7c-7.7-7.8-21.8-14.4-38.8-19.9
			c-16.9-5.5-36.5-9.8-55.2-13.2c-18.7-3.4-36.4-5.7-49.4-7.3c-6.5-0.8-11.9-1.3-15.6-1.7c-1.9-0.2-3.3-0.3-4.3-0.4
			c-0.5,0-0.9-0.1-1.1-0.1c-0.1,0-0.2,0-0.3,0l-0.1,0l0,0l0,0C-4.9,339.7-4.9,339.7-4.8,339.1z M160.8,381.5
			c5.7,5.8,9,12.2,11.3,18.6c1.2,3.2,2.1,6.4,3.1,9.6c1,3.2,1.9,6.3,3,9.4c2.3,6.1,5.3,11.8,10.6,16.6c5.3,4.9,13.1,8.9,24.8,11.7
			l-0.3,1.1c-11.9-2.8-19.9-7-25.4-12c-5.5-5-8.6-10.9-10.9-17.1c-1.1-3.1-2.1-6.3-3-9.4c-1-3.2-1.9-6.4-3.1-9.6
			c-2.3-6.3-5.5-12.6-11.1-18.2L160.8,381.5z M213.7,447.4c25,6,52.9,0.4,83.2-5.4c30.3-5.8,62.9-11.9,97-6.8l-0.2,1.1
			c-33.9-5.1-66.3,0.9-96.5,6.7c-30.2,5.8-58.5,11.4-83.8,5.4L213.7,447.4z M393.9,435.3c33.3,5,48.7,13.6,64.4,21.7
			c15.6,8,31.5,15.5,65.6,18.2l-0.1,1.1c-34.4-2.7-50.4-10.3-66.1-18.3c-15.6-8-30.9-16.6-64-21.6L393.9,435.3z M523.9,475.2
			c32.7,2.6,64-2.5,95.5-8.3c31.5-5.8,63.1-12.2,96.5-12.1l0,1.1c-33.2-0.1-64.7,6.3-96.2,12.1c-31.5,5.8-62.9,10.9-95.9,8.3
			L523.9,475.2z M715.9,454.8c39.7,0.1,67,3.1,84.5,13.1c17.5,10.1,25.1,27.2,25.6,55.4l-1.3,0c-0.6-28-8-44.7-25-54.5
			c-17.1-9.8-44-12.8-83.8-12.9L715.9,454.8z"/>
		<path class="st3" d="M160.3,384.9l0.5-0.4L160.3,384.9z M213.5,451l0.2-0.5L213.5,451z M393.8,438.9l0.1-0.5L393.8,438.9z
			 M523.9,478.8l-0.1,0.5L523.9,478.8z M715.9,458.4l0-0.6L715.9,458.4z M826,526.3l0,0.6l-1.3,0l0-0.6L826,526.3z M-4.8,342.2
			c0.1-0.6,0.1-0.6,0.1-0.6l0,0l0,0l0.1,0c0.1,0,0.2,0,0.3,0c0.3,0,0.6,0.1,1.1,0.1c1,0.1,2.4,0.2,4.3,0.4c3.7,0.4,9.1,0.9,15.6,1.7
			c13,1.5,30.8,3.9,49.5,7.3c18.7,3.4,38.4,7.7,55.4,13.2c17,5.5,31.3,12.2,39.3,20.2l-1,0.7c-7.7-7.8-21.8-14.4-38.8-19.9
			c-16.9-5.5-36.5-9.8-55.2-13.2c-18.7-3.4-36.4-5.7-49.4-7.3c-6.5-0.8-11.9-1.3-15.6-1.7c-1.9-0.2-3.3-0.3-4.3-0.4
			c-0.5,0-0.9-0.1-1.1-0.1c-0.1,0-0.2,0-0.3,0l-0.1,0l0,0l0,0C-4.9,342.7-4.9,342.7-4.8,342.2z M160.8,384.6
			c5.7,5.8,9,12.2,11.3,18.6c1.2,3.2,2.1,6.4,3.1,9.6c1,3.2,1.9,6.3,3,9.4c2.3,6.1,5.3,11.8,10.6,16.6c5.3,4.9,13.1,8.9,24.8,11.7
			l-0.3,1.1c-11.9-2.8-19.9-7-25.4-12c-5.5-5-8.6-10.9-10.9-17.1c-1.1-3.1-2.1-6.3-3-9.4c-1-3.2-1.9-6.4-3.1-9.6
			c-2.3-6.3-5.5-12.6-11.1-18.2L160.8,384.6z M213.7,450.5c25,6,52.9,0.4,83.2-5.4c30.3-5.8,62.9-11.9,97-6.8l-0.2,1.1
			c-33.9-5.1-66.3,0.9-96.5,6.7c-30.2,5.8-58.5,11.4-83.8,5.4L213.7,450.5z M393.9,438.4c33.3,5,48.7,13.6,64.4,21.7
			c15.6,8,31.5,15.5,65.6,18.2l-0.1,1.1c-34.4-2.7-50.4-10.3-66.1-18.3c-15.6-8-30.9-16.6-64-21.6L393.9,438.4z M523.9,478.2
			c32.7,2.6,64-2.5,95.5-8.3c31.5-5.8,63.1-12.2,96.5-12.1l0,1.1c-33.2-0.1-64.7,6.3-96.2,12.1c-31.5,5.8-62.9,10.9-95.9,8.3
			L523.9,478.2z M715.9,457.9c39.7,0.1,67,3.1,84.5,13.1c17.5,10.1,25.1,27.2,25.6,55.4l-1.3,0c-0.6-28-8-44.7-25-54.5
			c-17.1-9.8-44-12.8-83.8-12.9L715.9,457.9z"/>
		<path class="st3" d="M160.3,388l0.5-0.4L160.3,388z M213.5,454.1l0.2-0.5L213.5,454.1z M393.8,442l0.1-0.5L393.8,442z
			 M523.9,481.8l-0.1,0.5L523.9,481.8z M715.9,461.5l0-0.6L715.9,461.5z M826,529.4l0,0.6l-1.3,0l0-0.6L826,529.4z M-4.8,345.2
			c0.1-0.6,0.1-0.6,0.1-0.6l0,0l0,0l0.1,0c0.1,0,0.2,0,0.3,0c0.3,0,0.6,0.1,1.1,0.1c1,0.1,2.4,0.2,4.3,0.4c3.7,0.4,9.1,0.9,15.6,1.7
			c13,1.5,30.8,3.9,49.5,7.3c18.7,3.4,38.4,7.7,55.4,13.2c17,5.5,31.3,12.2,39.3,20.2l-1,0.7c-7.7-7.8-21.8-14.4-38.8-19.9
			c-16.9-5.5-36.5-9.8-55.2-13.2c-18.7-3.4-36.4-5.7-49.4-7.3c-6.5-0.8-11.9-1.3-15.6-1.7c-1.9-0.2-3.3-0.3-4.3-0.4
			c-0.5,0-0.9-0.1-1.1-0.1c-0.1,0-0.2,0-0.3,0l-0.1,0l0,0l0,0C-4.9,345.8-4.9,345.8-4.8,345.2z M160.8,387.6
			c5.7,5.8,9,12.2,11.3,18.6c1.2,3.2,2.1,6.4,3.1,9.6c1,3.2,1.9,6.3,3,9.4c2.3,6.1,5.3,11.8,10.6,16.6c5.3,4.9,13.1,8.9,24.8,11.7
			l-0.3,1.1c-11.9-2.8-19.9-7-25.4-12c-5.5-5-8.6-10.9-10.9-17.1c-1.1-3.1-2.1-6.3-3-9.4c-1-3.2-1.9-6.4-3.1-9.6
			c-2.3-6.3-5.5-12.6-11.1-18.2L160.8,387.6z M213.7,453.6c25,6,52.9,0.4,83.2-5.4c30.3-5.8,62.9-11.9,97-6.8l-0.2,1.1
			c-33.9-5.1-66.3,0.9-96.5,6.7c-30.2,5.8-58.5,11.4-83.8,5.4L213.7,453.6z M393.9,441.4c33.3,5,48.7,13.6,64.4,21.7
			c15.6,8,31.5,15.5,65.6,18.2l-0.1,1.1c-34.4-2.7-50.4-10.3-66.1-18.3c-15.6-8-30.9-16.6-64-21.6L393.9,441.4z M523.9,481.3
			c32.7,2.6,64-2.5,95.5-8.3c31.5-5.8,63.1-12.2,96.5-12.1l0,1.1c-33.2-0.1-64.7,6.3-96.2,12.1c-31.5,5.8-62.9,10.9-95.9,8.3
			L523.9,481.3z M715.9,460.9c39.7,0.1,67,3.1,84.5,13.1c17.5,10.1,25.1,27.2,25.6,55.4l-1.3,0c-0.6-28-8-44.7-25-54.5
			c-17.1-9.8-44-12.8-83.8-12.9L715.9,460.9z"/>
		<path class="st3" d="M160.3,391l0.5-0.4L160.3,391z M213.5,457.2l0.2-0.5L213.5,457.2z M393.8,445l0.1-0.5L393.8,445z
			 M523.9,484.9l-0.1,0.5L523.9,484.9z M715.9,464.5l0-0.6L715.9,464.5z M826,532.5l0,0.6l-1.3,0l0-0.6L826,532.5z M-4.8,348.3
			c0.1-0.6,0.1-0.6,0.1-0.6l0,0l0,0l0.1,0c0.1,0,0.2,0,0.3,0c0.3,0,0.6,0.1,1.1,0.1c1,0.1,2.4,0.2,4.3,0.4c3.7,0.4,9.1,0.9,15.6,1.7
			c13,1.5,30.8,3.9,49.5,7.3c18.7,3.4,38.4,7.7,55.4,13.2c17,5.5,31.3,12.2,39.3,20.2l-1,0.7c-7.7-7.8-21.8-14.4-38.8-19.9
			c-16.9-5.5-36.5-9.8-55.2-13.2c-18.7-3.4-36.4-5.7-49.4-7.3c-6.5-0.8-11.9-1.3-15.6-1.7c-1.9-0.2-3.3-0.3-4.3-0.4
			c-0.5,0-0.9-0.1-1.1-0.1c-0.1,0-0.2,0-0.3,0l-0.1,0l0,0l0,0C-4.9,348.8-4.9,348.8-4.8,348.3z M160.8,390.7
			c5.7,5.8,9,12.2,11.3,18.6c1.2,3.2,2.1,6.4,3.1,9.6c1,3.2,1.9,6.3,3,9.4c2.3,6.1,5.3,11.8,10.6,16.6c5.3,4.9,13.1,8.9,24.8,11.7
			l-0.3,1.1c-11.9-2.8-19.9-7-25.4-12c-5.5-5-8.6-10.9-10.9-17.1c-1.1-3.1-2.1-6.3-3-9.4c-1-3.2-1.9-6.4-3.1-9.6
			c-2.3-6.3-5.5-12.6-11.1-18.2L160.8,390.7z M213.7,456.6c25,6,52.9,0.4,83.2-5.4c30.3-5.8,62.9-11.9,97-6.8l-0.2,1.1
			c-33.9-5.1-66.3,0.9-96.5,6.7c-30.2,5.8-58.5,11.4-83.8,5.4L213.7,456.6z M393.9,444.5c33.3,5,48.7,13.6,64.4,21.7
			c15.6,8,31.5,15.5,65.6,18.2l-0.1,1.1c-34.4-2.7-50.4-10.3-66.1-18.3c-15.6-8-30.9-16.6-64-21.6L393.9,444.5z M523.9,484.4
			c32.7,2.6,64-2.5,95.5-8.3c31.5-5.8,63.1-12.2,96.5-12.1l0,1.1c-33.2-0.1-64.7,6.3-96.2,12.1c-31.5,5.8-62.9,10.9-95.9,8.3
			L523.9,484.4z M715.9,464c39.7,0.1,67,3.1,84.5,13.1c17.5,10.1,25.1,27.2,25.6,55.4l-1.3,0c-0.6-28-8-44.7-25-54.5
			c-17.1-9.8-44-12.8-83.8-12.9L715.9,464z"/>
		<path class="st3" d="M160.3,394.1l0.5-0.4L160.3,394.1z M213.5,460.2l0.2-0.5L213.5,460.2z M393.8,448.1l0.1-0.5L393.8,448.1z
			 M523.9,488l-0.1,0.6L523.9,488z M715.9,467.6l0-0.6L715.9,467.6z M826,535.5l0,0.6l-1.3,0l0-0.6L826,535.5z M-4.8,351.4
			c0.1-0.6,0.1-0.6,0.1-0.6l0,0l0,0l0.1,0c0.1,0,0.2,0,0.3,0c0.3,0,0.6,0.1,1.1,0.1c1,0.1,2.4,0.2,4.3,0.4c3.7,0.4,9.1,0.9,15.6,1.7
			c13,1.5,30.8,3.9,49.5,7.3c18.7,3.4,38.4,7.7,55.4,13.2c17,5.5,31.3,12.2,39.3,20.2l-1,0.7c-7.7-7.8-21.8-14.4-38.8-19.9
			c-16.9-5.5-36.5-9.8-55.2-13.2c-18.7-3.4-36.4-5.7-49.4-7.3c-6.5-0.8-11.9-1.3-15.6-1.7c-1.9-0.2-3.3-0.3-4.3-0.4
			c-0.5,0-0.9-0.1-1.1-0.1c-0.1,0-0.2,0-0.3,0l-0.1,0l0,0l0,0C-4.9,351.9-4.9,351.9-4.8,351.4z M160.8,393.7
			c5.7,5.8,9,12.2,11.3,18.6c1.2,3.2,2.1,6.4,3.1,9.6c1,3.2,1.9,6.3,3,9.4c2.3,6.1,5.3,11.8,10.6,16.6c5.3,4.9,13.1,8.9,24.8,11.7
			l-0.3,1.1c-11.9-2.8-19.9-7-25.4-12c-5.5-5-8.6-10.9-10.9-17.1c-1.1-3.1-2.1-6.3-3-9.4c-1-3.2-1.9-6.4-3.1-9.6
			c-2.3-6.3-5.5-12.6-11.1-18.2L160.8,393.7z M213.7,459.7c25,6,52.9,0.4,83.2-5.4c30.3-5.8,62.9-11.9,97-6.8l-0.2,1.1
			c-33.9-5.1-66.3,0.9-96.5,6.7c-30.2,5.8-58.5,11.4-83.8,5.4L213.7,459.7z M393.9,447.5c33.3,5,48.7,13.6,64.4,21.7
			c15.6,8,31.5,15.5,65.6,18.2l-0.1,1.1c-34.4-2.7-50.4-10.3-66.1-18.3c-15.6-8-30.9-16.6-64-21.6L393.9,447.5z M523.9,487.4
			c32.7,2.6,64-2.5,95.5-8.3c31.5-5.8,63.1-12.2,96.5-12.1l0,1.1c-33.2-0.1-64.7,6.3-96.2,12.1c-31.5,5.8-62.9,10.9-95.9,8.3
			L523.9,487.4z M715.9,467.1c39.7,0.1,67,3.1,84.5,13.1c17.5,10.1,25.1,27.2,25.6,55.4l-1.3,0c-0.6-28-8-44.7-25-54.5
			c-17.1-9.8-44-12.8-83.8-12.9L715.9,467.1z"/>
		<path class="st3" d="M160.3,397.2l0.5-0.4L160.3,397.2z M213.5,463.3l0.2-0.5L213.5,463.3z M393.8,451.1l0.1-0.5L393.8,451.1z
			 M523.9,491l-0.1,0.6L523.9,491z M715.9,470.7l0-0.6L715.9,470.7z M826,538.6l0,0.6l-1.3,0l0-0.6L826,538.6z M-4.8,354.4
			c0.1-0.6,0.1-0.6,0.1-0.6l0,0l0,0l0.1,0c0.1,0,0.2,0,0.3,0c0.3,0,0.6,0.1,1.1,0.1c1,0.1,2.4,0.2,4.3,0.4c3.7,0.4,9.1,0.9,15.6,1.7
			c13,1.5,30.8,3.9,49.5,7.3c18.7,3.4,38.4,7.7,55.4,13.2c17,5.5,31.3,12.2,39.3,20.2l-1,0.7c-7.7-7.8-21.8-14.4-38.8-19.9
			c-16.9-5.5-36.5-9.8-55.2-13.2c-18.7-3.4-36.4-5.7-49.4-7.3c-6.5-0.8-11.9-1.3-15.6-1.7c-1.9-0.2-3.3-0.3-4.3-0.4
			c-0.5,0-0.9-0.1-1.1-0.1c-0.1,0-0.2,0-0.3,0l-0.1,0l0,0l0,0C-4.9,355-4.9,355-4.8,354.4z M160.8,396.8c5.7,5.8,9,12.2,11.3,18.6
			c1.2,3.2,2.1,6.4,3.1,9.6c1,3.2,1.9,6.3,3,9.4c2.3,6.1,5.3,11.8,10.6,16.6c5.3,4.9,13.1,8.9,24.8,11.7l-0.3,1.1
			c-11.9-2.8-19.9-7-25.4-12c-5.5-5-8.6-10.9-10.9-17.1c-1.1-3.1-2.1-6.3-3-9.4c-1-3.2-1.9-6.4-3.1-9.6c-2.3-6.3-5.5-12.6-11.1-18.2
			L160.8,396.8z M213.7,462.8c25,6,52.9,0.4,83.2-5.4c30.3-5.8,62.9-11.9,97-6.8l-0.2,1.1c-33.9-5.1-66.3,0.9-96.5,6.7
			c-30.2,5.8-58.5,11.4-83.8,5.4L213.7,462.8z M393.9,450.6c33.3,5,48.7,13.6,64.4,21.7c15.6,8,31.5,15.5,65.6,18.2l-0.1,1.1
			c-34.4-2.7-50.4-10.3-66.1-18.3c-15.6-8-30.9-16.6-64-21.6L393.9,450.6z M523.9,490.5c32.7,2.6,64-2.5,95.5-8.3
			c31.5-5.8,63.1-12.2,96.5-12.1l0,1.1c-33.2-0.1-64.7,6.3-96.2,12.1c-31.5,5.8-62.9,10.9-95.9,8.3L523.9,490.5z M715.9,470.1
			c39.7,0.1,67,3.1,84.5,13.1c17.5,10.1,25.1,27.2,25.6,55.4l-1.3,0c-0.6-28-8-44.7-25-54.5c-17.1-9.8-44-12.8-83.8-12.9
			L715.9,470.1z"/>
		<path class="st3" d="M160.3,400.2l0.5-0.4L160.3,400.2z M213.5,466.3l0.2-0.5L213.5,466.3z M393.8,454.2l0.1-0.5L393.8,454.2z
			 M523.9,494.1l-0.1,0.6L523.9,494.1z M715.9,473.7l0-0.6L715.9,473.7z M826,541.6l0,0.6l-1.3,0l0-0.6L826,541.6z M-4.8,357.5
			c0.1-0.6,0.1-0.6,0.1-0.6l0,0l0,0l0.1,0c0.1,0,0.2,0,0.3,0c0.3,0,0.6,0.1,1.1,0.1c1,0.1,2.4,0.2,4.3,0.4c3.7,0.4,9.1,0.9,15.6,1.7
			c13,1.5,30.8,3.9,49.5,7.3c18.7,3.4,38.4,7.7,55.4,13.2c17,5.5,31.3,12.2,39.3,20.2l-1,0.7c-7.7-7.8-21.8-14.4-38.8-19.9
			c-16.9-5.5-36.5-9.8-55.2-13.2c-18.7-3.4-36.4-5.7-49.4-7.3c-6.5-0.8-11.9-1.3-15.6-1.7c-1.9-0.2-3.3-0.3-4.3-0.4
			c-0.5,0-0.9-0.1-1.1-0.1c-0.1,0-0.2,0-0.3,0l-0.1,0l0,0l0,0C-4.9,358-4.9,358-4.8,357.5z M160.8,399.9c5.7,5.8,9,12.2,11.3,18.6
			c1.2,3.2,2.1,6.4,3.1,9.6c1,3.2,1.9,6.3,3,9.4c2.3,6.1,5.3,11.8,10.6,16.6c5.3,4.9,13.1,8.9,24.8,11.7l-0.3,1.1
			c-11.9-2.8-19.9-7-25.4-12c-5.5-5-8.6-10.9-10.9-17.1c-1.1-3.1-2.1-6.3-3-9.4c-1-3.2-1.9-6.4-3.1-9.6c-2.3-6.3-5.5-12.6-11.1-18.2
			L160.8,399.9z M213.7,465.8c25,6,52.9,0.4,83.2-5.4c30.3-5.8,62.9-11.9,97-6.8l-0.2,1.1c-33.9-5.1-66.3,0.9-96.5,6.7
			c-30.2,5.8-58.5,11.4-83.8,5.4L213.7,465.8z M393.9,453.7c33.3,5,48.7,13.6,64.4,21.7c15.6,8,31.5,15.5,65.6,18.2l-0.1,1.1
			c-34.4-2.7-50.4-10.3-66.1-18.3c-15.6-8-30.9-16.6-64-21.6L393.9,453.7z M523.9,493.5c32.7,2.6,64-2.5,95.5-8.3
			c31.5-5.8,63.1-12.2,96.5-12.1l0,1.1c-33.2-0.1-64.7,6.3-96.2,12.1c-31.5,5.8-62.9,10.9-95.9,8.3L523.9,493.5z M715.9,473.2
			c39.7,0.1,67,3.1,84.5,13.1c17.5,10.1,25.1,27.2,25.6,55.4l-1.3,0c-0.6-28-8-44.7-25-54.5c-17.1-9.8-44-12.8-83.8-12.9
			L715.9,473.2z"/>
		<path class="st3" d="M160.3,403.3l0.5-0.4L160.3,403.3z M213.5,469.4l0.2-0.5L213.5,469.4z M393.8,457.3l0.1-0.5L393.8,457.3z
			 M523.9,497.2l-0.1,0.6L523.9,497.2z M715.9,476.8l0-0.6L715.9,476.8z M826,544.7l0,0.6l-1.3,0l0-0.6L826,544.7z M-4.8,360.5
			c0.1-0.6,0.1-0.6,0.1-0.6l0,0l0,0l0.1,0c0.1,0,0.2,0,0.3,0c0.3,0,0.6,0.1,1.1,0.1c1,0.1,2.4,0.2,4.3,0.4c3.7,0.4,9.1,0.9,15.6,1.7
			c13,1.5,30.8,3.9,49.5,7.3c18.7,3.4,38.4,7.7,55.4,13.2c17,5.5,31.3,12.2,39.3,20.2l-1,0.7c-7.7-7.8-21.8-14.4-38.8-19.9
			c-16.9-5.5-36.5-9.8-55.2-13.2c-18.7-3.4-36.4-5.7-49.4-7.3c-6.5-0.8-11.9-1.3-15.6-1.7c-1.9-0.2-3.3-0.3-4.3-0.4
			c-0.5,0-0.9-0.1-1.1-0.1c-0.1,0-0.2,0-0.3,0l-0.1,0l0,0l0,0C-4.9,361.1-4.9,361.1-4.8,360.5z M160.8,402.9
			c5.7,5.8,9,12.2,11.3,18.6c1.2,3.2,2.1,6.4,3.1,9.6c1,3.2,1.9,6.3,3,9.4c2.3,6.1,5.3,11.8,10.6,16.6c5.3,4.9,13.1,8.9,24.8,11.7
			l-0.3,1.1c-11.9-2.8-19.9-7-25.4-12c-5.5-5-8.6-10.9-10.9-17.1c-1.1-3.1-2.1-6.3-3-9.4c-1-3.2-1.9-6.4-3.1-9.6
			c-2.3-6.3-5.5-12.6-11.1-18.2L160.8,402.9z M213.7,468.9c25,6,52.9,0.4,83.2-5.4c30.3-5.8,62.9-11.9,97-6.8l-0.2,1.1
			c-33.9-5.1-66.3,0.9-96.5,6.7c-30.2,5.8-58.5,11.4-83.8,5.4L213.7,468.9z M393.9,456.7c33.3,5,48.7,13.6,64.4,21.7
			c15.6,8,31.5,15.5,65.6,18.2l-0.1,1.1c-34.4-2.7-50.4-10.3-66.1-18.3c-15.6-8-30.9-16.6-64-21.6L393.9,456.7z M523.9,496.6
			c32.7,2.6,64-2.5,95.5-8.3c31.5-5.8,63.1-12.2,96.5-12.1l0,1.1c-33.2-0.1-64.7,6.3-96.2,12.1c-31.5,5.8-62.9,10.9-95.9,8.3
			L523.9,496.6z M715.9,476.2c39.7,0.1,67,3.1,84.5,13.1c17.5,10.1,25.1,27.2,25.6,55.4l-1.3,0c-0.6-28-8-44.7-25-54.5
			c-17.1-9.8-44-12.8-83.8-12.9L715.9,476.2z"/>
		<path class="st3" d="M160.3,406.3l0.5-0.4L160.3,406.3z M213.5,472.5l0.2-0.5L213.5,472.5z M393.8,460.3l0.1-0.5L393.8,460.3z
			 M523.9,500.2l-0.1,0.6L523.9,500.2z M715.9,479.8l0-0.6L715.9,479.8z M826,547.8l0,0.6l-1.3,0l0-0.6L826,547.8z M-4.8,363.6
			c0.1-0.6,0.1-0.6,0.1-0.6l0,0l0,0l0.1,0c0.1,0,0.2,0,0.3,0c0.3,0,0.6,0.1,1.1,0.1c1,0.1,2.4,0.2,4.3,0.4c3.7,0.4,9.1,0.9,15.6,1.7
			c13,1.5,30.8,3.9,49.5,7.3c18.7,3.4,38.4,7.7,55.4,13.2c17,5.5,31.3,12.2,39.3,20.2l-1,0.7c-7.7-7.8-21.8-14.4-38.8-19.9
			c-16.9-5.5-36.5-9.8-55.2-13.2c-18.7-3.4-36.4-5.7-49.4-7.3c-6.5-0.8-11.9-1.3-15.6-1.7c-1.9-0.2-3.3-0.3-4.3-0.4
			c-0.5,0-0.9-0.1-1.1-0.1c-0.1,0-0.2,0-0.3,0l-0.1,0l0,0l0,0C-4.9,364.1-4.9,364.1-4.8,363.6z M160.8,406c5.7,5.8,9,12.2,11.3,18.6
			c1.2,3.2,2.1,6.4,3.1,9.6c1,3.2,1.9,6.3,3,9.4c2.3,6.1,5.3,11.8,10.6,16.6c5.3,4.9,13.1,8.9,24.8,11.7l-0.3,1.1
			c-11.9-2.8-19.9-7-25.4-12c-5.5-5-8.6-10.9-10.9-17.1c-1.1-3.1-2.1-6.3-3-9.4c-1-3.2-1.9-6.4-3.1-9.6c-2.3-6.3-5.5-12.6-11.1-18.2
			L160.8,406z M213.7,471.9c25,6,52.9,0.4,83.2-5.4c30.3-5.8,62.9-11.9,97-6.8l-0.2,1.1c-33.9-5.1-66.3,0.9-96.5,6.7
			c-30.2,5.8-58.5,11.4-83.8,5.4L213.7,471.9z M393.9,459.8c33.3,5,48.7,13.6,64.4,21.7c15.6,8,31.5,15.5,65.6,18.2l-0.1,1.1
			c-34.4-2.7-50.4-10.3-66.1-18.3c-15.6-8-30.9-16.6-64-21.6L393.9,459.8z M523.9,499.7c32.7,2.6,64-2.5,95.5-8.3
			c31.5-5.8,63.1-12.2,96.5-12.1l0,1.1c-33.2-0.1-64.7,6.3-96.2,12.1c-31.5,5.8-62.9,10.9-95.9,8.3L523.9,499.7z M715.9,479.3
			c39.7,0.1,67,3.1,84.5,13.1c17.5,10.1,25.1,27.2,25.6,55.4l-1.3,0c-0.6-28-8-44.7-25-54.5c-17.1-9.8-44-12.8-83.8-12.9
			L715.9,479.3z"/>
		<path class="st3" d="M160.3,409.4l0.5-0.4L160.3,409.4z M213.5,475.5l0.2-0.5L213.5,475.5z M393.8,463.4l0.1-0.5L393.8,463.4z
			 M523.9,503.3l-0.1,0.6L523.9,503.3z M715.9,482.9l0-0.6L715.9,482.9z M826,550.8l0,0.6l-1.3,0l0-0.6L826,550.8z M-4.8,366.7
			c0.1-0.6,0.1-0.6,0.1-0.6l0,0l0,0l0.1,0c0.1,0,0.2,0,0.3,0c0.3,0,0.6,0.1,1.1,0.1c1,0.1,2.4,0.2,4.3,0.4c3.7,0.4,9.1,0.9,15.6,1.7
			c13,1.5,30.8,3.9,49.5,7.3c18.7,3.4,38.4,7.7,55.4,13.2c17,5.5,31.3,12.2,39.3,20.2l-1,0.7c-7.7-7.8-21.8-14.4-38.8-19.9
			c-16.9-5.5-36.5-9.8-55.2-13.2c-18.7-3.4-36.4-5.7-49.4-7.3c-6.5-0.8-11.9-1.3-15.6-1.7c-1.9-0.2-3.3-0.3-4.3-0.4
			c-0.5,0-0.9-0.1-1.1-0.1c-0.1,0-0.2,0-0.3,0l-0.1,0l0,0l0,0C-4.9,367.2-4.9,367.2-4.8,366.7z M160.8,409c5.7,5.8,9,12.2,11.3,18.6
			c1.2,3.2,2.1,6.4,3.1,9.6c1,3.2,1.9,6.3,3,9.4c2.3,6.1,5.3,11.8,10.6,16.6c5.3,4.9,13.1,8.9,24.8,11.7l-0.3,1.1
			c-11.9-2.8-19.9-7-25.4-12c-5.5-5-8.6-10.9-10.9-17.1c-1.1-3.1-2.1-6.3-3-9.4c-1-3.2-1.9-6.4-3.1-9.6c-2.3-6.3-5.5-12.6-11.1-18.2
			L160.8,409z M213.7,475c25,6,52.9,0.4,83.2-5.4c30.3-5.8,62.9-11.9,97-6.8l-0.2,1.1c-33.9-5.1-66.3,0.9-96.5,6.7
			c-30.2,5.8-58.5,11.4-83.8,5.4L213.7,475z M393.9,462.8c33.3,5,48.7,13.6,64.4,21.7c15.6,8,31.5,15.5,65.6,18.2l-0.1,1.1
			c-34.4-2.7-50.4-10.3-66.1-18.3c-15.6-8-30.9-16.6-64-21.6L393.9,462.8z M523.9,502.7c32.7,2.6,64-2.5,95.5-8.3
			c31.5-5.8,63.1-12.2,96.5-12.1l0,1.1c-33.2-0.1-64.7,6.3-96.2,12.1c-31.5,5.8-62.9,10.9-95.9,8.3L523.9,502.7z M715.9,482.4
			c39.7,0.1,67,3.1,84.5,13.1c17.5,10.1,25.1,27.2,25.6,55.4l-1.3,0c-0.6-28-8-44.7-25-54.5c-17.1-9.8-44-12.8-83.8-12.9
			L715.9,482.4z"/>
	</g>
</g>
</svg>
