<svg width="64" height="64" viewBox="0 0 64 64" fill="none" xmlns="http://www.w3.org/2000/svg">
<rect width="64" height="64" rx="15" fill="white"/>
<path d="M47.4392 47.019H46.1705L46.1569 46.7783H45.0357L45.0222 47.019H43.7517C43.5193 47.019 43.3311 47.2033 43.3311 47.4307C43.3311 47.6581 43.5193 47.8424 43.7517 47.8424H47.4409C47.6733 47.8424 47.8615 47.6581 47.8615 47.4307C47.8615 47.2033 47.6733 47.019 47.4409 47.019H47.4392Z" fill="#FBC02D"/>
<path d="M34.3594 25.1611C34.512 25.3703 34.6545 25.6077 34.7868 25.8683C34.9378 26.1671 35.0684 26.4892 35.1803 26.8295C35.5721 26.7183 35.9436 26.5838 36.2812 26.4228C36.2557 26.3962 36.2303 26.368 36.2031 26.3431C35.6604 25.8135 35.0311 25.4201 34.3594 25.1611Z" fill="#1FBAD6"/>
<path d="M30.1505 32.3762C31.5753 32.1089 33.1663 32.1089 34.5895 32.3762C34.7286 31.7802 34.8084 31.1444 34.8338 30.502H29.9062C29.93 31.1444 30.0114 31.7802 30.1505 32.3762Z" fill="#1FBAD6"/>
<path d="M36.6895 27.1429C36.296 27.3322 35.8618 27.4899 35.4004 27.6177C35.5514 28.2734 35.6379 28.9723 35.6616 29.6779H37.7733C37.6987 28.7349 37.3731 27.8418 36.8269 27.0732C36.7811 27.0965 36.7353 27.1197 36.6878 27.143L36.6895 27.1429Z" fill="#1FBAD6"/>
<path d="M32.3691 28.0065C31.616 28.0065 30.8612 27.9385 30.1505 27.8057C30.0114 28.4016 29.93 29.0357 29.9062 29.6782H34.8338C34.81 29.0357 34.7286 28.4016 34.5895 27.8057C33.8772 27.9385 33.1239 28.0065 32.3691 28.0065Z" fill="#1FBAD6"/>
<path d="M32.4467 24.7942C32.3942 24.7926 32.3416 24.7926 32.289 24.7942C31.7208 24.839 31.1458 25.357 30.7031 26.2335C30.5793 26.4792 30.4707 26.7414 30.374 27.0187C31.6546 27.2544 33.0794 27.2544 34.3617 27.0187C34.2668 26.7431 34.1582 26.4792 34.0344 26.2335C33.59 25.357 33.0149 24.8373 32.4467 24.7942Z" fill="#1FBAD6"/>
<path d="M36.8349 45.4948V40.478C36.8349 40.312 36.6924 40.1709 36.5211 40.1709H28.2149C28.0436 40.1709 27.8994 40.312 27.8994 40.478V45.4948H28.393V41.0623C28.393 40.8349 28.5813 40.6507 28.8136 40.6507H35.9205C36.1529 40.6507 36.3412 40.8349 36.3412 41.0623V45.4948H36.8349Z" fill="#FBC02D"/>
<path d="M29.2363 41.4741H35.5039V45.4947H29.2363V41.4741Z" fill="#FBC02D"/>
<path d="M28.4531 26.4228C28.7907 26.5838 29.1621 26.7199 29.5557 26.8295C29.6676 26.4892 29.7999 26.1671 29.9509 25.8683C30.0832 25.6077 30.2256 25.3703 30.3783 25.1611C29.7049 25.4184 29.0739 25.8118 28.5312 26.3431C28.504 26.3696 28.4786 26.3962 28.4531 26.4228Z" fill="#1FBAD6"/>
<path d="M26.9531 46.4127C26.9531 47.012 27.4501 47.4984 28.0624 47.4984H36.6739C37.2862 47.4984 37.7849 47.012 37.7849 46.4127V46.3164H26.9533L26.9531 46.4127Z" fill="#FBC02D"/>
<path d="M22.9161 45.8403H15.3681C15.1645 45.8403 15 45.9997 15 46.1972V47.849C15 48.0415 15.1679 48.2059 15.3681 48.2059H22.9179C23.118 48.2059 23.286 48.0432 23.286 47.849V46.1972C23.286 45.9997 23.1214 45.8403 22.9179 45.8403H22.9161ZM20.2277 47.4323H16.1314C15.8991 47.4323 15.7108 47.2481 15.7108 47.0206C15.7108 46.7932 15.8991 46.6089 16.1314 46.6089H20.2277C20.4601 46.6089 20.6484 46.7932 20.6484 47.0206C20.6484 47.2481 20.4601 47.4323 20.2277 47.4323ZM22.1512 47.4323H21.8119C21.5796 47.4323 21.3913 47.2481 21.3913 47.0206C21.3913 46.7932 21.5796 46.6089 21.8119 46.6089H22.1512C22.3836 46.6089 22.5718 46.7932 22.5718 47.0206C22.5718 47.2481 22.3836 47.4323 22.1512 47.4323Z" fill="#FBC02D"/>
<path d="M22.9161 39.4639H15.3681C15.1645 39.4639 15 39.6232 15 39.8208V41.4725C15 41.6651 15.1679 41.8294 15.3681 41.8294H22.9179C23.118 41.8294 23.286 41.6667 23.286 41.4725V39.8208C23.286 39.6232 23.1214 39.4639 22.9179 39.4639H22.9161ZM20.2277 41.0559H16.1314C15.8991 41.0559 15.7108 40.8716 15.7108 40.6442C15.7108 40.4167 15.8991 40.2325 16.1314 40.2325H20.2277C20.4601 40.2325 20.6484 40.4167 20.6484 40.6442C20.6484 40.8716 20.4601 41.0559 20.2277 41.0559ZM22.1512 41.0559H21.8119C21.5796 41.0559 21.3913 40.8716 21.3913 40.6442C21.3913 40.4167 21.5796 40.2325 21.8119 40.2325H22.1512C22.3836 40.2325 22.5718 40.4167 22.5718 40.6442C22.5718 40.8716 22.3836 41.0559 22.1512 41.0559Z" fill="#FBC02D"/>
<path d="M27.9081 33.1078C27.9522 33.0845 27.9997 33.0613 28.0472 33.038C28.4407 32.8488 28.8749 32.6911 29.3363 32.5633C29.1853 31.9075 29.0988 31.2087 29.0734 30.5015H26.96C27.0329 31.4444 27.3603 32.3391 27.9064 33.1077L27.9081 33.1078Z" fill="#1FBAD6"/>
<path d="M41.4561 45.7577C41.4561 45.8656 41.5493 45.9552 41.6596 45.9552H49.5368C49.6471 45.9552 49.7403 45.8639 49.7403 45.7577V45.3643H41.458V45.7577H41.4561Z" fill="#FBC02D"/>
<path d="M22.9161 42.6514H15.3681C15.1679 42.6514 15 42.8141 15 43.0083V44.66C15 44.8576 15.1645 45.0186 15.3681 45.0186H22.9179C23.1214 45.0186 23.286 44.8576 23.286 44.66V43.0083C23.286 42.8157 23.118 42.6514 22.9179 42.6514H22.9161ZM16.4706 44.2467H16.1313C15.8989 44.2467 15.7107 44.0624 15.7107 43.835C15.7107 43.6075 15.8989 43.4233 16.1313 43.4233H16.4706C16.7029 43.4233 16.8912 43.6075 16.8912 43.835C16.8912 44.0624 16.7029 44.2467 16.4706 44.2467ZM22.151 44.2467H18.0548C17.8224 44.2467 17.6341 44.0624 17.6341 43.835C17.6341 43.6075 17.8224 43.4233 18.0548 43.4233H22.151C22.3834 43.4233 22.5717 43.6075 22.5717 43.835C22.5717 44.0624 22.3834 44.2467 22.151 44.2467Z" fill="#FBC02D"/>
<path d="M49.5349 40.1709H41.6576C41.5474 40.1709 41.4541 40.2622 41.4541 40.3684V44.5418H49.7364V40.3684C49.7364 40.2605 49.6431 40.1709 49.5329 40.1709H49.5349Z" fill="#FBC02D"/>
<path d="M36.8279 33.1077C37.374 32.3391 37.7014 31.4444 37.7743 30.5015H35.6626C35.6388 31.207 35.5506 31.9075 35.4014 32.5633C35.861 32.6911 36.2953 32.8488 36.6887 33.038C36.7379 33.0613 36.7854 33.0862 36.8295 33.1094L36.8279 33.1077Z" fill="#1FBAD6"/>
<path d="M28.4531 33.7593C28.4786 33.7858 28.504 33.8141 28.5311 33.839C29.0739 34.3685 29.7049 34.762 30.3783 35.0209C30.2256 34.8101 30.0831 34.5743 29.9508 34.3137C29.7999 34.0149 29.6693 33.6929 29.5573 33.3525C29.1638 33.4638 28.7941 33.5982 28.4548 33.7593L28.4531 33.7593Z" fill="#1FBAD6"/>
<path d="M34.0366 33.9479C34.1604 33.7038 34.269 33.4399 34.364 33.1626C33.0833 32.9269 31.6585 32.9269 30.3779 33.1626C30.4729 33.4382 30.5832 33.7021 30.707 33.9479C31.1514 34.826 31.7247 35.344 32.2946 35.3871C32.32 35.3871 32.3455 35.3888 32.3726 35.3888C32.3981 35.3888 32.4235 35.3871 32.4489 35.3871C33.0189 35.3439 33.5939 34.826 34.0383 33.9479H34.0366Z" fill="#1FBAD6"/>
<path d="M25.0639 30.8888H26.1596C26.1256 30.6265 26.1053 30.3592 26.1053 30.0903C26.1053 28.4551 26.7566 26.9163 27.9406 25.7607C29.1228 24.607 30.6629 24.0126 32.215 23.9745C32.2658 23.9695 32.3184 23.9678 32.371 23.9678H32.3727C32.4253 23.9678 32.4762 23.9712 32.5288 23.9745C34.0807 24.0127 35.6209 24.6053 36.8031 25.7607C37.9854 26.9178 38.6384 28.4549 38.6384 30.0903C38.6384 30.3592 38.6181 30.6265 38.5841 30.8888H39.6816C41.9714 30.8888 43.8321 29.0694 43.8321 26.8316C43.8321 24.5938 41.9697 22.7728 39.6816 22.7728C39.5798 22.7728 39.4797 22.7761 39.383 22.7844C39.1948 22.7977 39.0166 22.6865 38.9539 22.5105C38.3721 20.8837 36.7963 19.7897 35.034 19.7897C34.3386 19.7897 33.6466 19.9624 33.0342 20.291C32.9308 20.3458 32.8086 20.3558 32.6984 20.3193C32.5864 20.2827 32.4966 20.2014 32.4491 20.0968C31.7842 18.631 30.2932 17.6831 28.653 17.6831C26.3632 17.6831 24.4991 19.5025 24.4991 21.7403C24.4991 21.9544 24.516 22.1686 24.5517 22.391C24.5856 22.6085 24.4414 22.8126 24.2209 22.8575C22.3042 23.2443 20.915 24.916 20.915 26.8316C20.915 29.0694 22.7775 30.8888 25.069 30.8888L25.0639 30.8888Z" fill="#1FBAD6"/>
<path d="M36.2848 33.7593C35.9473 33.5982 35.5758 33.4621 35.184 33.3525C35.072 33.6928 34.9414 34.0149 34.7905 34.3137C34.6582 34.576 34.514 34.8117 34.3613 35.0226C35.033 34.7652 35.664 34.3718 36.2068 33.8406C36.2339 33.8141 36.2593 33.7875 36.2848 33.7609L36.2848 33.7593Z" fill="#1FBAD6"/>
<path d="M27.9084 27.0735C27.3622 27.8421 27.0366 28.7352 26.9619 29.6781H29.0754C29.0991 28.9725 29.1873 28.2737 29.3366 27.6179C28.8752 27.4901 28.4427 27.3324 28.0492 27.1432C28 27.1183 27.9525 27.095 27.9084 27.0718L27.9084 27.0735Z" fill="#1FBAD6"/>
<path d="M37.4728 18.0877C36.9249 17.8287 36.3075 17.7889 35.7342 17.9765C35.5137 18.0495 35.3949 18.2819 35.4696 18.4978C35.5425 18.7136 35.7817 18.8298 36.0022 18.7567C36.3669 18.6372 36.7587 18.6621 37.1081 18.8281C37.3778 18.9559 37.6 19.1568 37.7493 19.4108C37.8273 19.5436 37.9681 19.6166 38.114 19.6166C38.1852 19.6166 38.2564 19.5984 38.3226 19.5619C38.5244 19.449 38.5923 19.1966 38.4769 19.0008C38.2429 18.6007 37.8934 18.2853 37.4711 18.0861L37.4728 18.0877Z" fill="#FBC02D"/>
<path d="M35.4056 16.9919C36.2401 16.7213 37.1391 16.7778 37.9346 17.1529C38.5503 17.4434 39.0575 17.9049 39.3984 18.4876C39.4764 18.6204 39.6172 18.6934 39.7631 18.6934C39.8343 18.6934 39.9056 18.6752 39.9717 18.6387C40.1736 18.5258 40.2414 18.2735 40.1261 18.0776C39.7003 17.3505 39.0677 16.7761 38.2976 16.4109C37.3036 15.9427 36.1808 15.873 35.1393 16.21C34.9188 16.2814 34.8001 16.5138 34.873 16.7296C34.946 16.9454 35.1834 17.0616 35.404 16.9902L35.4056 16.9919Z" fill="#FBC02D"/>
<path d="M36.7998 34.421C36.7574 34.4625 36.7133 34.5006 36.6709 34.5405H44.341C44.8023 34.5405 45.1772 34.9057 45.1772 35.3556V39.3463H46.0168V35.3556C46.0168 34.4525 45.2654 33.7188 44.341 33.7188H37.4156C37.229 33.9644 37.0238 34.2002 36.7982 34.4209L36.7998 34.421Z" fill="#1FBAD6"/>
<path d="M19.561 35.3565C19.561 34.9067 19.9358 34.5414 20.3972 34.5414H28.0673C28.0249 34.5016 27.9808 34.4617 27.9384 34.4219C27.7128 34.2011 27.5075 33.9654 27.321 33.7197H20.3956C19.4711 33.7197 18.7197 34.4535 18.7197 35.3565V38.6418H19.5593V35.3565L19.561 35.3565Z" fill="#1FBAD6"/>
<path d="M32.3692 36.215C32.3166 36.215 32.2657 36.2117 32.2131 36.2084C32.1249 36.2067 32.0384 36.2018 31.9502 36.1968V39.3492H32.7898V36.1968C32.7016 36.2034 32.6134 36.2067 32.5252 36.2084C32.4743 36.2134 32.4217 36.215 32.3692 36.215Z" fill="#1FBAD6"/>
</svg>
