<svg xmlns="http://www.w3.org/2000/svg" width="85" height="85" viewBox="0 0 85 85" fill="none"><circle opacity="0.24" cx="42.5" cy="42.5" r="42.5" fill="#1FBAD6"></circle><circle cx="42.5013" cy="42.4994" r="28.3333" fill="#1FBAD6"></circle><path d="M52.3945 39.0805L45.5414 32.2433C44.9442 31.6496 44.1363 31.3164 43.2942 31.3164C42.4521 31.3164 41.6443 31.6496 41.047 32.2433L34.1939 39.0805C33.8971 39.3791 33.7305 39.783 33.7305 40.2041C33.7305 40.6251 33.8971 41.0291 34.1939 41.3277C34.3421 41.4771 34.5183 41.5956 34.7126 41.6765C34.9068 41.7575 35.1151 41.7991 35.3255 41.7991C35.5359 41.7991 35.7442 41.7575 35.9384 41.6765C36.1326 41.5956 36.3089 41.4771 36.457 41.3277L41.7005 36.0842V53.6155C41.7005 54.0382 41.8684 54.4436 42.1673 54.7424C42.4662 55.0413 42.8715 55.2092 43.2942 55.2092C43.7169 55.2092 44.1223 55.0413 44.4212 54.7424C44.7201 54.4436 44.888 54.0382 44.888 53.6155V36.0842L50.1314 41.3277C50.4294 41.6278 50.8344 41.7972 51.2573 41.7987C51.6803 41.8002 52.0865 41.6336 52.3866 41.3357C52.6867 41.0377 52.8561 40.6326 52.8576 40.2097C52.8591 39.7868 52.6925 39.3806 52.3945 39.0805Z" fill="white"></path></svg>