<svg width="34" height="34" viewBox="0 0 34 34" fill="none" xmlns="http://www.w3.org/2000/svg">
<rect opacity="0.5" x="0.5" y="0.5" width="33" height="33" rx="7.5" stroke="#1FBAD6"/>
<path d="M16.2054 10.301L14.5872 9.93573C13.2672 9.63761 11.9559 10.466 11.6577 11.786L11.2891 13.4176C12.3511 11.7312 14.1339 10.5455 16.2054 10.301ZM10.301 17.7946L9.93573 19.4127C9.63761 20.7327 10.466 22.0441 11.786 22.3422L13.4176 22.7109C11.7312 21.6485 10.5455 19.8661 10.301 17.7946ZM22.214 11.6577L20.5824 11.2891C22.2687 12.3511 23.4545 14.1339 23.699 16.205L24.0642 14.5869C24.3624 13.2676 23.534 11.9559 22.214 11.6577ZM17.7946 23.699L19.4127 24.0642C20.7327 24.3624 22.0441 23.534 22.3422 22.214L22.7109 20.5824C21.6489 22.2687 19.8661 23.4545 17.7946 23.699Z" fill="#ADBBDE"/>
<path d="M17 11C13.6861 11 11 13.6861 11 17C11 20.3139 13.6861 23 17 23C20.3139 23 23 20.3139 23 17C23 13.6861 20.3139 11 17 11ZM15.5 12.875C16.3284 12.875 17 13.5466 17 14.375C17 15.2034 16.3284 15.875 15.5 15.875C14.6716 15.875 14 15.2034 14 14.375C14 13.5466 14.6716 12.875 15.5 12.875ZM14.375 20C13.5466 20 12.875 19.3284 12.875 18.5C12.875 17.6716 13.5466 17 14.375 17C15.2034 17 15.875 17.6716 15.875 18.5C15.875 19.3284 15.2034 20 14.375 20ZM16.25 17C16.25 16.5856 16.5856 16.25 17 16.25C17.4144 16.25 17.75 16.5856 17.75 17C17.75 17.4144 17.4144 17.75 17 17.75C16.5856 17.75 16.25 17.4144 16.25 17ZM18.5 21.125C17.6716 21.125 17 20.4534 17 19.625C17 18.7966 17.6716 18.125 18.5 18.125C19.3284 18.125 20 18.7966 20 19.625C20 20.4534 19.3284 21.125 18.5 21.125ZM19.625 17C18.7966 17 18.125 16.3284 18.125 15.5C18.125 14.6716 18.7966 14 19.625 14C20.4534 14 21.125 14.6716 21.125 15.5C21.125 16.3284 20.4534 17 19.625 17Z" fill="#ADBBDE"/>
</svg>
