<svg width="34" height="34" viewBox="0 0 34 34" fill="none" xmlns="http://www.w3.org/2000/svg">
<rect opacity="0.5" x="0.5" y="0.5" width="33" height="33" rx="7.5" stroke="#1FBAD6"/>
<path d="M25.9982 15.7233H25.9676C25.9676 15.5469 25.9712 15.3723 25.9658 15.1959C25.9604 15.0231 25.9478 14.8503 25.9352 14.6775C25.919 14.4633 25.8974 14.2491 25.8776 14.0349C25.8578 13.8207 25.8542 13.6029 25.811 13.3941C25.7462 13.0791 25.6652 12.7677 25.5716 12.4617C25.487 12.1863 25.361 11.9253 25.1702 11.7057C24.7508 11.2215 24.2108 10.9641 23.579 10.8975C23.246 10.8633 22.9094 10.8417 22.5746 10.8219C22.2668 10.8021 21.959 10.7877 21.6494 10.7769C21.185 10.7589 20.7206 10.7427 20.2562 10.7301C19.8008 10.7175 19.3454 10.7049 18.8918 10.7013C17.999 10.6959 17.1062 10.6869 16.2134 10.6941C15.308 10.7013 14.4044 10.7247 13.499 10.7427C13.1174 10.7499 12.7358 10.7625 12.3542 10.7733C12.2336 10.7769 12.113 10.7823 11.9924 10.7895C11.5964 10.8129 11.2004 10.8309 10.8062 10.8651C10.5416 10.8885 10.2716 10.9119 10.0142 10.9749C9.4472 11.1117 8.99 11.4231 8.675 11.9181C8.4464 12.2817 8.3204 12.6885 8.243 13.1061C8.18 13.4463 8.1422 13.7919 8.1062 14.1375C8.0702 14.4867 8.0504 14.8377 8.0306 15.1869C8.0126 15.4731 8 15.7593 8 16.0455C8 16.8573 8.0054 17.6709 8.0144 18.4827C8.0162 18.6861 8.0306 18.8895 8.045 19.0911C8.0666 19.3809 8.0918 19.6707 8.117 19.9587C8.135 20.1729 8.1476 20.3889 8.1818 20.6013C8.2394 20.9667 8.3366 21.3213 8.468 21.6669C8.7092 22.3059 9.161 22.7253 9.8036 22.9413C10.2122 23.0781 10.6388 23.1159 11.0618 23.1555C11.4038 23.1879 11.7476 23.1987 12.0914 23.2149C12.374 23.2275 12.6584 23.2383 12.9428 23.2455C13.3874 23.2581 13.832 23.2689 14.2766 23.2761C14.6888 23.2833 15.101 23.2923 15.5132 23.2959C16.2368 23.3031 16.9622 23.3157 17.684 23.3103C18.5912 23.3031 19.4984 23.2797 20.4056 23.2617C20.7782 23.2545 21.149 23.2419 21.5216 23.2311C21.644 23.2275 21.7682 23.2221 21.8906 23.2149C22.2992 23.1915 22.7078 23.1717 23.1146 23.1393C23.3702 23.1195 23.6294 23.1015 23.8796 23.0475C24.6734 22.8765 25.235 22.4193 25.532 21.6507C25.7354 21.1269 25.8308 20.5815 25.8758 20.0253C25.901 19.7103 25.9316 19.3953 25.9478 19.0821C25.9694 18.6789 25.9892 18.2739 25.9928 17.8707C26.0036 17.1561 25.9982 16.4397 25.9982 15.7233ZM15.1388 19.3377V14.2851C16.7606 15.1293 18.3734 15.9699 20.0006 16.8195C18.377 17.6601 16.7642 18.4953 15.1388 19.3377Z" fill="#ADBBDE"/>
</svg>
