<svg width="34" height="34" viewBox="0 0 34 34" fill="none" xmlns="http://www.w3.org/2000/svg">
<rect opacity="0.5" x="0.5" y="0.5" width="33" height="33" rx="7.5" stroke="#1FBAD6"/>
<path d="M10.2501 12.5002C11.4928 12.5002 12.5002 11.4928 12.5002 10.2501C12.5002 9.00739 11.4928 8 10.2501 8C9.00739 8 8 9.00739 8 10.2501C8 11.4928 9.00739 12.5002 10.2501 12.5002Z" fill="#ADBBDE"/>
<path d="M12.1251 14.0039H8.37501C8.16801 14.0039 8 14.1719 8 14.3789V25.6293C8 25.8363 8.16801 26.0043 8.37501 26.0043H12.1251C12.3321 26.0043 12.5002 25.8363 12.5002 25.6293V14.3789C12.5002 14.1719 12.3321 14.0039 12.1251 14.0039Z" fill="#ADBBDE"/>
<path d="M23.2981 13.3778C21.6953 12.8288 19.6904 13.3111 18.4882 14.1759C18.4469 14.0146 18.2999 13.8946 18.1251 13.8946H14.375C14.168 13.8946 14 14.0626 14 14.2696V25.52C14 25.727 14.168 25.895 14.375 25.895H18.1251C18.3322 25.895 18.5002 25.727 18.5002 25.52V17.4347C19.1062 16.9127 19.887 16.7462 20.526 17.0177C21.1455 17.2795 21.5003 17.9185 21.5003 18.7698V25.52C21.5003 25.727 21.6683 25.895 21.8753 25.895H25.6254C25.8324 25.895 26.0004 25.727 26.0004 25.52V18.0145C25.9577 14.9326 24.5079 13.7918 23.2981 13.3778Z" fill="#ADBBDE"/>
</svg>
