<svg width="34" height="34" viewBox="0 0 34 34" fill="none" xmlns="http://www.w3.org/2000/svg">
<rect opacity="0.5" x="0.5" y="0.5" width="33" height="33" rx="7.5" stroke="#1FBAD6"/>
<path d="M24.6985 9.8201C24.485 9.64245 24.2273 9.52602 23.9528 9.48321C23.6784 9.44039 23.3974 9.47278 23.1399 9.57694L9.69924 15.0035C9.41181 15.1217 9.16713 15.3246 8.99769 15.5852C8.82826 15.8457 8.74207 16.1517 8.75057 16.4624C8.75908 16.7731 8.86187 17.0738 9.0453 17.3248C9.22874 17.5757 9.48414 17.7649 9.77762 17.8672L12.4964 18.8128L14.0117 23.824C14.0323 23.891 14.0622 23.9547 14.1005 24.0133C14.1063 24.0223 14.1145 24.029 14.1207 24.0377C14.165 24.0995 14.2185 24.1541 14.2793 24.1996C14.2966 24.2128 14.3132 24.2251 14.3317 24.2368C14.4029 24.2841 14.4817 24.3186 14.5647 24.3389L14.5736 24.3397L14.5786 24.3418C14.6285 24.352 14.6793 24.3571 14.7302 24.3572C14.7351 24.3572 14.7395 24.3549 14.7443 24.3548C14.8212 24.3534 14.8974 24.3402 14.9701 24.3155C14.9871 24.3098 15.0016 24.3001 15.018 24.2932C15.0723 24.2707 15.1237 24.2418 15.1712 24.2072C15.2093 24.1752 15.2473 24.1431 15.2854 24.1111L17.312 21.8736L20.3347 24.2151C20.6008 24.4223 20.9284 24.5349 21.2656 24.5352C21.619 24.5347 21.9615 24.4128 22.2357 24.1898C22.5099 23.9669 22.699 23.6564 22.7715 23.3106L25.2185 11.2981C25.274 11.0278 25.2549 10.7474 25.1633 10.4871C25.0717 10.2267 24.911 9.99618 24.6985 9.8201ZM15.0276 19.0516C14.9236 19.1551 14.8525 19.2871 14.8233 19.4309L14.5911 20.5589L14.0031 18.6141L17.052 17.0264L15.0276 19.0516ZM21.2539 23.0293L17.6819 20.2622C17.5325 20.1467 17.345 20.0918 17.1569 20.1084C16.9687 20.1249 16.7937 20.2118 16.6668 20.3516L16.0177 21.068L16.2471 19.9531L21.5593 14.6409C21.6861 14.5143 21.7634 14.3464 21.7771 14.1677C21.7908 13.9891 21.7401 13.8114 21.6341 13.6669C21.5281 13.5224 21.3739 13.4206 21.1994 13.38C21.0248 13.3394 20.8415 13.3627 20.6826 13.4456L13.0587 17.415L10.2654 16.3929L23.7493 10.9986L21.2539 23.0293Z" fill="#ADBBDE"/>
</svg>
