<svg width="34" height="34" viewBox="0 0 34 34" fill="none" xmlns="http://www.w3.org/2000/svg">
<rect opacity="0.5" x="0.5" y="0.5" width="33" height="33" rx="7.5" stroke="#1FBAD6"/>
<path d="M21.005 12.095C20.827 12.095 20.653 12.1478 20.505 12.2467C20.357 12.3456 20.2416 12.4861 20.1735 12.6506C20.1054 12.815 20.0876 12.996 20.1223 13.1706C20.157 13.3452 20.2427 13.5055 20.3686 13.6314C20.4945 13.7573 20.6548 13.843 20.8294 13.8777C21.004 13.9124 21.185 13.8946 21.3494 13.8265C21.5139 13.7584 21.6544 13.643 21.7533 13.495C21.8522 13.347 21.905 13.173 21.905 12.995C21.905 12.7563 21.8102 12.5274 21.6414 12.3586C21.4726 12.1898 21.2437 12.095 21.005 12.095ZM24.455 13.91C24.4404 13.2877 24.3239 12.6721 24.11 12.0875C23.9193 11.5873 23.6225 11.1345 23.24 10.76C22.8686 10.3756 22.4147 10.0806 21.9125 9.8975C21.3295 9.67712 20.7131 9.55791 20.09 9.545C19.295 9.5 19.04 9.5 17 9.5C14.96 9.5 14.705 9.5 13.91 9.545C13.2869 9.55791 12.6705 9.67712 12.0875 9.8975C11.5863 10.0825 11.1327 10.3772 10.76 10.76C10.3756 11.1314 10.0806 11.5853 9.8975 12.0875C9.67712 12.6705 9.55791 13.2869 9.545 13.91C9.5 14.705 9.5 14.96 9.5 17C9.5 19.04 9.5 19.295 9.545 20.09C9.55791 20.7131 9.67712 21.3295 9.8975 21.9125C10.0806 22.4147 10.3756 22.8686 10.76 23.24C11.1327 23.6228 11.5863 23.9175 12.0875 24.1025C12.6705 24.3229 13.2869 24.4421 13.91 24.455C14.705 24.5 14.96 24.5 17 24.5C19.04 24.5 19.295 24.5 20.09 24.455C20.7131 24.4421 21.3295 24.3229 21.9125 24.1025C22.4147 23.9194 22.8686 23.6244 23.24 23.24C23.6242 22.8669 23.9213 22.4136 24.11 21.9125C24.3239 21.3279 24.4404 20.7123 24.455 20.09C24.455 19.295 24.5 19.04 24.5 17C24.5 14.96 24.5 14.705 24.455 13.91ZM23.105 20C23.0995 20.4761 23.0133 20.9478 22.85 21.395C22.7302 21.7214 22.5379 22.0163 22.2875 22.2575C22.0442 22.5054 21.7499 22.6973 21.425 22.82C20.9778 22.9833 20.5061 23.0695 20.03 23.075C19.28 23.1125 19.0025 23.12 17.03 23.12C15.0575 23.12 14.78 23.12 14.03 23.075C13.5357 23.0843 13.0434 23.0081 12.575 22.85C12.2643 22.7211 11.9835 22.5296 11.75 22.2875C11.5011 22.0466 11.3111 21.7514 11.195 21.425C11.0119 20.9714 10.9103 20.489 10.895 20C10.895 19.25 10.85 18.9725 10.85 17C10.85 15.0275 10.85 14.75 10.895 14C10.8984 13.5133 10.9872 13.031 11.1575 12.575C11.2895 12.2584 11.4922 11.9762 11.75 11.75C11.9779 11.4921 12.2595 11.2873 12.575 11.15C13.0322 10.985 13.514 10.8988 14 10.895C14.75 10.895 15.0275 10.85 17 10.85C18.9725 10.85 19.25 10.85 20 10.895C20.4761 10.9005 20.9478 10.9867 21.395 11.15C21.7358 11.2765 22.0417 11.4821 22.2875 11.75C22.5333 11.9804 22.7253 12.262 22.85 12.575C23.0167 13.0317 23.103 13.5138 23.105 14C23.1425 14.75 23.15 15.0275 23.15 17C23.15 18.9725 23.1425 19.25 23.105 20ZM17 13.1525C16.2394 13.154 15.4962 13.3809 14.8645 13.8046C14.2328 14.2282 13.7408 14.8296 13.4507 15.5328C13.1607 16.236 13.0855 17.0093 13.2348 17.7552C13.3841 18.501 13.7512 19.1859 14.2896 19.7232C14.8279 20.2606 15.5135 20.6263 16.2596 20.7741C17.0058 20.922 17.779 20.8453 18.4816 20.5539C19.1842 20.2625 19.7847 19.7693 20.2071 19.1368C20.6295 18.5042 20.855 17.7606 20.855 17C20.856 16.4938 20.7569 15.9925 20.5634 15.5247C20.37 15.057 20.0859 14.6321 19.7277 14.2745C19.3694 13.917 18.944 13.6338 18.4758 13.4412C18.0077 13.2486 17.5062 13.1505 17 13.1525ZM17 19.4975C16.506 19.4975 16.0232 19.351 15.6125 19.0766C15.2018 18.8022 14.8816 18.4121 14.6926 17.9558C14.5036 17.4994 14.4541 16.9972 14.5505 16.5128C14.6469 16.0283 14.8847 15.5833 15.234 15.234C15.5833 14.8847 16.0283 14.6469 16.5128 14.5505C16.9972 14.4541 17.4994 14.5036 17.9558 14.6926C18.4121 14.8816 18.8022 15.2018 19.0766 15.6125C19.351 16.0232 19.4975 16.506 19.4975 17C19.4975 17.328 19.4329 17.6527 19.3074 17.9558C19.1819 18.2588 18.9979 18.5341 18.766 18.766C18.5341 18.9979 18.2588 19.1819 17.9558 19.3074C17.6527 19.4329 17.328 19.4975 17 19.4975Z" fill="#ADBBDE"/>
</svg>
