<svg width="34" height="34" viewBox="0 0 34 34" fill="none" xmlns="http://www.w3.org/2000/svg">
<rect opacity="0.5" x="0.5" y="0.5" width="33" height="33" rx="7.5" stroke="#1FBAD6"/>
<g clip-path="url(#clip0_6273_9609)">
<path d="M21.1238 18.7857C20.9004 18.6741 19.7989 18.134 19.5937 18.0602C19.3884 17.9855 19.2391 17.9486 19.0899 18.1718C18.9407 18.3942 18.5112 18.8974 18.38 19.0459C18.2498 19.1944 18.1187 19.2124 17.8953 19.1008C17.2352 18.8392 16.6259 18.4651 16.0948 17.9954C15.6049 17.5446 15.1849 17.0241 14.8486 16.4506C14.7183 16.2274 14.835 16.1068 14.9471 15.996C15.0475 15.8961 15.1714 15.7359 15.2827 15.6053C15.3748 15.4927 15.4503 15.3675 15.5069 15.2336C15.5367 15.172 15.5506 15.1041 15.5473 15.0358C15.544 14.9676 15.5236 14.9013 15.4879 14.8429C15.4319 14.7313 14.9842 13.6339 14.7979 13.1874C14.6162 12.7535 14.4317 12.812 14.2933 12.8048C14.1631 12.7985 14.0139 12.7967 13.8647 12.7967C13.7511 12.7999 13.6395 12.8264 13.5368 12.8746C13.4341 12.9227 13.3425 12.9916 13.2678 13.0767C13.0146 13.3154 12.8141 13.6039 12.6791 13.924C12.5441 14.244 12.4776 14.5885 12.4837 14.9356C12.5563 15.7766 12.8741 16.5782 13.398 17.2419C14.3583 18.6751 15.6766 19.835 17.2234 20.6077C17.6406 20.7862 18.0668 20.943 18.5003 21.0776C18.9573 21.2158 19.4404 21.2457 19.9111 21.165C20.2228 21.1021 20.518 20.9756 20.7781 20.7933C21.0382 20.6111 21.2576 20.3772 21.4222 20.1063C21.5691 19.7732 21.6144 19.4044 21.5525 19.0459C21.4973 18.9523 21.3481 18.8974 21.1238 18.7857ZM23.3774 10.6129C21.84 9.08283 19.7964 8.16108 17.6271 8.01921C15.4578 7.87733 13.3106 8.525 11.5852 9.84163C9.85993 11.1583 8.67406 13.0541 8.24842 15.1763C7.82278 17.2984 8.18637 19.5022 9.2715 21.3774L8 25.9999L12.7514 24.7603C14.0656 25.4726 15.538 25.8459 17.0344 25.846H17.038C18.8106 25.8451 20.5431 25.3212 22.0168 24.3406C23.4904 23.3599 24.639 21.9665 25.3173 20.3364C25.9957 18.7063 26.1735 16.9126 25.8283 15.1819C25.483 13.4512 24.6301 11.8612 23.3774 10.6128V10.6129ZM20.9963 23.2057C19.8099 23.9459 18.4381 24.3387 17.038 24.339H17.0344C15.7004 24.339 14.391 23.9817 13.2434 23.3047L12.9712 23.1445L10.1514 23.8808L10.9038 21.1442L10.7275 20.8634C9.94483 19.621 9.54984 18.1754 9.59249 16.7096C9.63513 15.2437 10.1135 13.8233 10.9671 12.6281C11.8207 11.4328 13.0111 10.5164 14.3879 9.99461C15.7648 9.47283 17.2661 9.36916 18.7021 9.69672C20.1381 10.0243 21.4443 10.7683 22.4555 11.8348C23.4667 12.9013 24.1375 14.2423 24.3831 15.6883C24.6286 17.1342 24.4379 18.6202 23.8351 19.9583C23.2322 21.2964 22.2443 22.4265 20.9963 23.2057Z" fill="#ADBBDE"/>
</g>
<defs>
<clipPath id="clip0_6273_9609">
<rect width="18" height="18" fill="white" transform="translate(8 8)"/>
</clipPath>
</defs>
</svg>
