<svg width="16" height="16" viewBox="0 0 16 16" fill="none" xmlns="http://www.w3.org/2000/svg">
<path d="M12.0013 8.00167C11.9981 7.65093 11.8567 7.3156 11.608 7.06834L8.74797 4.20167C8.62306 4.07751 8.45409 4.00781 8.27797 4.00781C8.10185 4.00781 7.93288 4.07751 7.80797 4.20167C7.74548 4.26365 7.69589 4.33738 7.66204 4.41862C7.6282 4.49986 7.61077 4.587 7.61077 4.67501C7.61077 4.76301 7.6282 4.85015 7.66204 4.93139C7.69589 5.01263 7.74548 5.08636 7.80797 5.14834L10.0013 7.335H3.33464C3.15782 7.335 2.98826 7.40524 2.86323 7.53027C2.73821 7.65529 2.66797 7.82486 2.66797 8.00167C2.66797 8.17848 2.73821 8.34805 2.86323 8.47307C2.98826 8.5981 3.15782 8.66834 3.33464 8.66834H10.0013L7.80797 10.8617C7.68243 10.9863 7.61156 11.1557 7.61093 11.3326C7.61031 11.5096 7.67998 11.6795 7.80464 11.805C7.92929 11.9305 8.0987 12.0014 8.27561 12.002C8.45252 12.0027 8.62243 11.933 8.74797 11.8083L11.608 8.94167C11.8584 8.69277 11.9998 8.35472 12.0013 8.00167V8.00167Z" fill="#002856"/>
</svg>
