<svg width="20" height="20" viewBox="0 0 20 20" fill="none" xmlns="http://www.w3.org/2000/svg">
<g clip-path="url(#clip0_4451_15258)">
<path d="M19.1667 9.16797H0.833333C0.373096 9.16797 0 9.54107 0 10.0013C0 10.4615 0.373096 10.8346 0.833333 10.8346H19.1667C19.6269 10.8346 20 10.4615 20 10.0013C20 9.54107 19.6269 9.16797 19.1667 9.16797Z" fill="#002856"/>
<path d="M19.1667 3.33203H0.833333C0.373096 3.33203 0 3.70513 0 4.16536C0 4.6256 0.373096 4.99869 0.833333 4.99869H19.1667C19.6269 4.99869 20 4.6256 20 4.16536C20 3.70513 19.6269 3.33203 19.1667 3.33203Z" fill="#002856"/>
<path d="M19.1667 15H0.833333C0.373096 15 0 15.3731 0 15.8333C0 16.2936 0.373096 16.6667 0.833333 16.6667H19.1667C19.6269 16.6667 20 16.2936 20 15.8333C20 15.3731 19.6269 15 19.1667 15Z" fill="#002856"/>
</g>
<defs>
<clipPath id="clip0_4451_15258">
<rect width="20" height="20" fill="white"/>
</clipPath>
</defs>
</svg>
