<svg width="34" height="34" viewBox="0 0 34 34" fill="none" xmlns="http://www.w3.org/2000/svg">
<rect x="0.5" y="0.5" width="33" height="33" rx="16.5" fill="white"/>
<g clip-path="url(#clip0_4001_13921)">
<path d="M17.584 10.5843C17.584 10.4296 17.6454 10.2812 17.7548 10.1718C17.8642 10.0624 18.0126 10.0009 18.1673 10.0009C19.7139 10.0026 21.1966 10.6178 22.2902 11.7114C23.3838 12.8049 23.9989 14.2877 24.0006 15.8343C24.0006 15.989 23.9392 16.1373 23.8298 16.2467C23.7204 16.3561 23.572 16.4176 23.4173 16.4176C23.2626 16.4176 23.1142 16.3561 23.0048 16.2467C22.8954 16.1373 22.834 15.989 22.834 15.8343C22.8326 14.597 22.3405 13.4108 21.4656 12.536C20.5907 11.6611 19.4045 11.169 18.1673 11.1676C18.0126 11.1676 17.8642 11.1061 17.7548 10.9967C17.6454 10.8873 17.584 10.739 17.584 10.5843ZM18.1673 13.5009C18.7861 13.5009 19.3796 13.7468 19.8172 14.1843C20.2548 14.6219 20.5006 15.2154 20.5006 15.8343C20.5006 15.989 20.5621 16.1373 20.6715 16.2467C20.7809 16.3561 20.9293 16.4176 21.084 16.4176C21.2387 16.4176 21.387 16.3561 21.4964 16.2467C21.6058 16.1373 21.6673 15.989 21.6673 15.8343C21.6664 14.9063 21.2973 14.0166 20.6411 13.3604C19.985 12.7042 19.0953 12.3352 18.1673 12.3343C18.0126 12.3343 17.8642 12.3957 17.7548 12.5051C17.6454 12.6145 17.584 12.7629 17.584 12.9176C17.584 13.0723 17.6454 13.2207 17.7548 13.3301C17.8642 13.4395 18.0126 13.5009 18.1673 13.5009ZM23.4715 19.7653C23.8096 20.1043 23.9994 20.5635 23.9994 21.0423C23.9994 21.521 23.8096 21.9802 23.4715 22.3192L22.9407 22.9311C18.1632 27.505 6.5374 15.8821 11.0407 11.0894L11.7116 10.5061C12.0509 10.1775 12.506 9.99571 12.9784 10.0001C13.4507 10.0044 13.9024 10.1946 14.2356 10.5294C14.2537 10.5475 15.3346 11.9516 15.3346 11.9516C15.6554 12.2885 15.8339 12.7361 15.8332 13.2013C15.8324 13.6665 15.6524 14.1135 15.3306 14.4494L14.6551 15.2988C15.0289 16.2071 15.5785 17.0326 16.2723 17.7278C16.9662 18.4231 17.7906 18.9744 18.6981 19.35L19.5527 18.6704C19.8887 18.3489 20.3356 18.1691 20.8006 18.1684C21.2657 18.1678 21.7131 18.3463 22.05 18.6669C22.05 18.6669 23.4535 19.7473 23.4715 19.7653ZM22.6689 20.6135C22.6689 20.6135 21.273 19.5396 21.2549 19.5215C21.1347 19.4024 20.9723 19.3355 20.8031 19.3355C20.6339 19.3355 20.4715 19.4024 20.3513 19.5215C20.3355 19.5378 19.159 20.4753 19.159 20.4753C19.0797 20.5384 18.9853 20.5797 18.8852 20.5953C18.785 20.6108 18.6826 20.6 18.5879 20.5639C17.4122 20.1262 16.3442 19.4409 15.4565 18.5544C14.5687 17.6679 13.8818 16.601 13.4423 15.4259C13.4033 15.3299 13.3906 15.2253 13.4055 15.1228C13.4204 15.0203 13.4623 14.9236 13.5269 14.8426C13.5269 14.8426 14.4643 13.6654 14.4801 13.6503C14.5992 13.5301 14.6661 13.3677 14.6661 13.1985C14.6661 13.0292 14.5992 12.8669 14.4801 12.7467C14.462 12.7292 13.3881 11.3321 13.3881 11.3321C13.2661 11.2227 13.1069 11.1642 12.9431 11.1684C12.7793 11.1726 12.6234 11.2393 12.5072 11.3548L11.8364 11.9382C8.54523 15.8955 18.62 25.4114 22.0879 22.1343L22.6193 21.5218C22.7438 21.4064 22.8186 21.2472 22.8279 21.0777C22.8371 20.9082 22.7801 20.7417 22.6689 20.6135Z" fill="#1FBAD6"/>
</g>
<rect x="0.5" y="0.5" width="33" height="33" rx="16.5" stroke="#1FBAD6"/>
<defs>
<clipPath id="clip0_4001_13921">
<rect width="14" height="14" fill="white" transform="translate(10 10)"/>
</clipPath>
</defs>
</svg>
