<svg width="34" height="34" viewBox="0 0 34 34" fill="none" xmlns="http://www.w3.org/2000/svg">
<rect width="34" height="34" rx="8" fill="white"/>
<path d="M25.9993 17C25.9975 16.4724 25.8815 15.952 25.66 15.4777C25.4385 15.0034 25.1171 14.5874 24.7199 14.2609C25.2694 13.8089 25.67 13.1891 25.8658 12.4881C26.0615 11.7872 26.0428 11.0399 25.8121 10.3506C25.5814 9.66126 25.1503 9.06427 24.5788 8.6429C24.0074 8.22153 23.3243 7.99679 22.6246 8.00003H11.3754C10.6757 7.99679 9.99256 8.22153 9.42115 8.6429C8.84974 9.06427 8.41862 9.66126 8.18792 10.3506C7.95723 11.0399 7.93846 11.7872 8.13424 12.4881C8.33003 13.1891 8.7306 13.8089 9.28007 14.2609C8.88151 14.5861 8.55916 15.0018 8.33746 15.4764C8.11576 15.951 8.00054 16.472 8.00054 17C8.00054 17.528 8.11576 18.049 8.33746 18.5236C8.55916 18.9982 8.88151 19.4139 9.28007 19.7391C8.7306 20.1911 8.33003 20.8109 8.13424 21.5119C7.93846 22.2128 7.95723 22.9601 8.18792 23.6494C8.41862 24.3387 8.84974 24.9357 9.42115 25.3571C9.99256 25.7785 10.6757 26.0032 11.3754 26H22.6246C23.3243 26.0032 24.0074 25.7785 24.5788 25.3571C25.1503 24.9357 25.5814 24.3387 25.8121 23.6494C26.0428 22.9601 26.0615 22.2128 25.8658 21.5119C25.67 20.8109 25.2694 20.1911 24.7199 19.7391C25.1171 19.4126 25.4385 18.9966 25.66 18.5223C25.8815 18.048 25.9975 17.5276 25.9993 17ZM9.50056 11.5218C9.50056 11.0029 9.69809 10.5052 10.0497 10.1383C10.4013 9.77138 10.8782 9.56525 11.3754 9.56525H11.7504V10.3479C11.7504 10.5554 11.8294 10.7545 11.97 10.9012C12.1107 11.048 12.3014 11.1305 12.5003 11.1305C12.6992 11.1305 12.89 11.048 13.0306 10.9012C13.1713 10.7545 13.2503 10.5554 13.2503 10.3479V9.56525H14.7502V10.3479C14.7502 10.5554 14.8292 10.7545 14.9698 10.9012C15.1105 11.048 15.3012 11.1305 15.5001 11.1305C15.699 11.1305 15.8898 11.048 16.0304 10.9012C16.171 10.7545 16.2501 10.5554 16.2501 10.3479V9.56525H22.6246C23.1218 9.56525 23.5987 9.77138 23.9503 10.1383C24.3019 10.5052 24.4994 11.0029 24.4994 11.5218C24.4994 12.0407 24.3019 12.5383 23.9503 12.9052C23.5987 13.2721 23.1218 13.4783 22.6246 13.4783H11.3754C10.8782 13.4783 10.4013 13.2721 10.0497 12.9052C9.69809 12.5383 9.50056 12.0407 9.50056 11.5218ZM24.4994 22.4782C24.4994 22.9971 24.3019 23.4948 23.9503 23.8617C23.5987 24.2286 23.1218 24.4348 22.6246 24.4348H11.3754C10.8782 24.4348 10.4013 24.2286 10.0497 23.8617C9.69809 23.4948 9.50056 22.9971 9.50056 22.4782C9.50056 21.9593 9.69809 21.4617 10.0497 21.0948C10.4013 20.7279 10.8782 20.5217 11.3754 20.5217H11.7504V21.3043C11.7504 21.5119 11.8294 21.711 11.97 21.8577C12.1107 22.0045 12.3014 22.0869 12.5003 22.0869C12.6992 22.0869 12.89 22.0045 13.0306 21.8577C13.1713 21.711 13.2503 21.5119 13.2503 21.3043V20.5217H14.7502V21.3043C14.7502 21.5119 14.8292 21.711 14.9698 21.8577C15.1105 22.0045 15.3012 22.0869 15.5001 22.0869C15.699 22.0869 15.8898 22.0045 16.0304 21.8577C16.171 21.711 16.2501 21.5119 16.2501 21.3043V20.5217H22.6246C23.1218 20.5217 23.5987 20.7279 23.9503 21.0948C24.3019 21.4617 24.4994 21.9593 24.4994 22.4782ZM11.3754 18.9565C10.8782 18.9565 10.4013 18.7504 10.0497 18.3835C9.69809 18.0165 9.50056 17.5189 9.50056 17C9.50056 16.4811 9.69809 15.9835 10.0497 15.6165C10.4013 15.2496 10.8782 15.0435 11.3754 15.0435H11.7504V15.8261C11.7504 16.0337 11.8294 16.2327 11.97 16.3795C12.1107 16.5262 12.3014 16.6087 12.5003 16.6087C12.6992 16.6087 12.89 16.5262 13.0306 16.3795C13.1713 16.2327 13.2503 16.0337 13.2503 15.8261V15.0435H14.7502V15.8261C14.7502 16.0337 14.8292 16.2327 14.9698 16.3795C15.1105 16.5262 15.3012 16.6087 15.5001 16.6087C15.699 16.6087 15.8898 16.5262 16.0304 16.3795C16.171 16.2327 16.2501 16.0337 16.2501 15.8261V15.0435H22.6246C23.1218 15.0435 23.5987 15.2496 23.9503 15.6165C24.3019 15.9835 24.4994 16.4811 24.4994 17C24.4994 17.5189 24.3019 18.0165 23.9503 18.3835C23.5987 18.7504 23.1218 18.9565 22.6246 18.9565H11.3754Z" fill="#1FBAD6"/>
<path d="M11.75 9.56641H13.2499V10.3817C13.2499 10.7959 12.9141 11.1316 12.4999 11.1316V11.1316C12.0858 11.1316 11.75 10.7959 11.75 10.3817V9.56641Z" fill="#FBC02D"/>
<path d="M11.75 15.043H13.2499V15.8582C13.2499 16.2724 12.9141 16.6082 12.4999 16.6082V16.6082C12.0858 16.6082 11.75 16.2724 11.75 15.8582V15.043Z" fill="#FBC02D"/>
<path d="M11.75 20.5234H13.2499V21.3387C13.2499 21.7529 12.9141 22.0886 12.4999 22.0886V22.0886C12.0858 22.0886 11.75 21.7529 11.75 21.3387V20.5234Z" fill="#FBC02D"/>
<path d="M14.75 9.56641H16.2499V10.3817C16.2499 10.7959 15.9141 11.1316 15.4999 11.1316V11.1316C15.0858 11.1316 14.75 10.7959 14.75 10.3817V9.56641Z" fill="#FBC02D"/>
<path d="M14.75 15.043H16.2499V15.8582C16.2499 16.2724 15.9141 16.6082 15.4999 16.6082V16.6082C15.0858 16.6082 14.75 16.2724 14.75 15.8582V15.043Z" fill="#FBC02D"/>
<path d="M14.75 20.5234H16.2499V21.3387C16.2499 21.7529 15.9141 22.0886 15.4999 22.0886V22.0886C15.0858 22.0886 14.75 21.7529 14.75 21.3387V20.5234Z" fill="#FBC02D"/>
</svg>
