<svg width="34" height="34" viewBox="0 0 34 34" fill="none" xmlns="http://www.w3.org/2000/svg">
<rect width="34" height="34" rx="8" fill="white"/>
<g clip-path="url(#clip0_4451_15236)">
<path d="M17 8C15.22 8 13.4799 8.52784 11.9999 9.51677C10.5198 10.5057 9.36628 11.9113 8.68509 13.5558C8.0039 15.2004 7.82567 17.01 8.17294 18.7558C8.5202 20.5016 9.37737 22.1053 10.636 23.364C11.8947 24.6226 13.4984 25.4798 15.2442 25.8271C16.99 26.1743 18.7996 25.9961 20.4442 25.3149C22.0887 24.6337 23.4943 23.4802 24.4832 22.0001C25.4722 20.5201 26 18.78 26 17C25.9974 14.6138 25.0484 12.3262 23.3611 10.6389C21.6738 8.95162 19.3862 8.00258 17 8V8ZM23.4853 13.25H21.0695C20.5287 11.9967 19.8167 10.8246 18.9538 9.767C20.8636 10.2867 22.4917 11.5381 23.4853 13.25V13.25ZM20.375 17C20.3688 17.7636 20.2485 18.522 20.018 19.25H13.982C13.7515 18.522 13.6312 17.7636 13.625 17C13.6312 16.2364 13.7515 15.478 13.982 14.75H20.018C20.2485 15.478 20.3688 16.2364 20.375 17V17ZM14.5835 20.75H19.4165C18.7799 22.0068 17.9661 23.1656 17 24.191C16.0335 23.1659 15.2197 22.007 14.5835 20.75V20.75ZM14.5835 13.25C15.2201 11.9932 16.0339 10.8344 17 9.809C17.9665 10.8341 18.7803 11.993 19.4165 13.25H14.5835ZM15.05 9.767C14.1857 10.8243 13.4724 11.9965 12.9305 13.25H10.5148C11.5091 11.5373 13.1387 10.2858 15.05 9.767V9.767ZM9.84575 14.75H12.425C12.2306 15.4844 12.1298 16.2404 12.125 17C12.1298 17.7596 12.2306 18.5156 12.425 19.25H9.84575C9.38476 17.7854 9.38476 16.2146 9.84575 14.75V14.75ZM10.5148 20.75H12.9305C13.4724 22.0035 14.1857 23.1757 15.05 24.233C13.1387 23.7142 11.5091 22.4627 10.5148 20.75V20.75ZM18.9538 24.233C19.8167 23.1754 20.5287 22.0033 21.0695 20.75H23.4853C22.4917 22.4619 20.8636 23.7133 18.9538 24.233V24.233ZM24.1543 19.25H21.575C21.7694 18.5156 21.8702 17.7596 21.875 17C21.8702 16.2404 21.7694 15.4844 21.575 14.75H24.1528C24.6137 16.2146 24.6137 17.7854 24.1528 19.25H24.1543Z" fill="#1FBAD6"/>
</g>
<path d="M10.5306 13.2109H23.4663L24.1566 14.7504H9.85156L10.5306 13.2109Z" fill="#FBC02D"/>
<path d="M10.5306 20.7891H23.4739L24.1458 19.2496H9.85156L10.5306 20.7891Z" fill="#FBC02D"/>
<path d="M14.6006 13.2109H12.9501C12.9501 13.2109 12.5029 13.9215 12.3858 14.8688C12.2687 15.8162 13.686 15.8162 13.9234 14.8688C14.1608 13.9215 14.6006 13.2109 14.6006 13.2109Z" fill="#1FBAD6"/>
<path d="M21.5931 19.1322C21.6878 18.6589 20.0644 19.1322 20.0644 19.1322L19.3945 20.7901C19.3945 20.7901 20.8211 21.2641 21.0413 20.7901C21.2615 20.3161 21.4984 19.6055 21.5931 19.1322Z" fill="#1FBAD6"/>
<defs>
<clipPath id="clip0_4451_15236">
<rect width="18" height="18" fill="white" transform="translate(8 8)"/>
</clipPath>
</defs>
</svg>
