<svg width="34" height="34" viewBox="0 0 34 34" fill="none" xmlns="http://www.w3.org/2000/svg">
<rect width="34" height="34" rx="7" fill="white"/>
<path d="M25.2371 24.4824H24.563L24.5558 24.3545H23.96L23.9528 24.4824H23.2777C23.1542 24.4824 23.0542 24.5803 23.0542 24.7012C23.0542 24.822 23.1542 24.9199 23.2777 24.9199H25.238C25.3615 24.9199 25.4616 24.822 25.4616 24.7012C25.4616 24.5803 25.3615 24.4824 25.238 24.4824H25.2371Z" fill="#FBC02D"/>
<path d="M18.2871 12.8682C18.3682 12.9793 18.4439 13.1055 18.5142 13.2439C18.5945 13.4027 18.6639 13.5738 18.7233 13.7547C18.9315 13.6956 19.1289 13.6241 19.3083 13.5386C19.2948 13.5244 19.2812 13.5095 19.2668 13.4962C18.9784 13.2148 18.644 13.0058 18.2871 12.8682Z" fill="#1FBAD6"/>
<path d="M16.0507 16.702C16.8078 16.5599 17.6532 16.5599 18.4095 16.702C18.4834 16.3853 18.5257 16.0474 18.5392 15.7061H15.9209C15.9335 16.0474 15.9768 16.3853 16.0507 16.702Z" fill="#1FBAD6"/>
<path d="M19.5253 13.9208C19.3162 14.0214 19.0855 14.1052 18.8403 14.1731C18.9205 14.5215 18.9665 14.8929 18.9791 15.2678H20.1012C20.0616 14.7668 19.8885 14.2922 19.5983 13.8838C19.574 13.8961 19.5497 13.9085 19.5244 13.9208L19.5253 13.9208Z" fill="#1FBAD6"/>
<path d="M17.2296 14.3797C16.8294 14.3797 16.4283 14.3435 16.0507 14.2729C15.9768 14.5896 15.9335 14.9266 15.9209 15.2679H18.5392C18.5266 14.9266 18.4834 14.5896 18.4095 14.2729C18.0309 14.3435 17.6307 14.3797 17.2296 14.3797Z" fill="#1FBAD6"/>
<path d="M17.2708 12.673C17.2429 12.6721 17.2149 12.6721 17.187 12.673C16.8851 12.6968 16.5795 12.9721 16.3443 13.4378C16.2785 13.5683 16.2208 13.7077 16.1694 13.855C16.8499 13.9803 17.607 13.9803 18.2884 13.855C18.2379 13.7086 18.1802 13.5684 18.1144 13.4378C17.8783 12.9721 17.5727 12.6959 17.2708 12.673Z" fill="#1FBAD6"/>
<path d="M19.6025 23.6727V21.0069C19.6025 20.9187 19.5268 20.8438 19.4358 20.8438H15.0221C14.9311 20.8438 14.8545 20.9187 14.8545 21.0069V23.6727H15.1168V21.3174C15.1168 21.1966 15.2168 21.0987 15.3403 21.0987H19.1167C19.2402 21.0987 19.3402 21.1966 19.3402 21.3174V23.6727H19.6025Z" fill="#FBC02D"/>
<path d="M15.5645 21.5361H18.8948V23.6726H15.5645V21.5361Z" fill="#FBC02D"/>
<path d="M15.1489 13.5386C15.3283 13.6241 15.5257 13.6965 15.7348 13.7547C15.7943 13.5738 15.8646 13.4027 15.9448 13.2439C16.0151 13.1055 16.0908 12.9793 16.1719 12.8682C15.8141 13.0049 15.4788 13.2139 15.1904 13.4962C15.176 13.5103 15.1624 13.5244 15.1489 13.5386Z" fill="#1FBAD6"/>
<path d="M14.3511 24.1605C14.3511 24.479 14.6151 24.7374 14.9405 24.7374H19.5164C19.8418 24.7374 20.1068 24.479 20.1068 24.1605V24.1094H14.3511L14.3511 24.1605Z" fill="#FBC02D"/>
<path d="M12.2064 23.8564H8.19558C8.08743 23.8564 8 23.9411 8 24.0461V24.9238C8 25.0261 8.08923 25.1134 8.19558 25.1134H12.2073C12.3137 25.1134 12.4029 25.027 12.4029 24.9238V24.0461C12.4029 23.9411 12.3155 23.8564 12.2073 23.8564H12.2064ZM10.7778 24.7024H8.60121C8.47773 24.7024 8.37769 24.6045 8.37769 24.4836C8.37769 24.3628 8.47773 24.2649 8.60121 24.2649H10.7778C10.9013 24.2649 11.0014 24.3628 11.0014 24.4836C11.0014 24.6045 10.9013 24.7024 10.7778 24.7024ZM11.7999 24.7024H11.6197C11.4962 24.7024 11.3961 24.6045 11.3961 24.4836C11.3961 24.3628 11.4962 24.2649 11.6197 24.2649H11.7999C11.9234 24.2649 12.0234 24.3628 12.0234 24.4836C12.0234 24.6045 11.9234 24.7024 11.7999 24.7024Z" fill="#FBC02D"/>
<path d="M12.2064 20.4678H8.19558C8.08743 20.4678 8 20.5525 8 20.6574V21.5351C8 21.6374 8.08923 21.7248 8.19558 21.7248H12.2073C12.3137 21.7248 12.4029 21.6383 12.4029 21.5351V20.6574C12.4029 20.5525 12.3155 20.4678 12.2073 20.4678H12.2064ZM10.7778 21.3137H8.60121C8.47773 21.3137 8.37769 21.2158 8.37769 21.0949C8.37769 20.9741 8.47773 20.8762 8.60121 20.8762H10.7778C10.9013 20.8762 11.0014 20.9741 11.0014 21.0949C11.0014 21.2158 10.9013 21.3137 10.7778 21.3137ZM11.7999 21.3137H11.6197C11.4962 21.3137 11.3961 21.2158 11.3961 21.0949C11.3961 20.9741 11.4962 20.8762 11.6197 20.8762H11.7999C11.9234 20.8762 12.0234 20.9741 12.0234 21.0949C12.0234 21.2158 11.9234 21.3137 11.7999 21.3137Z" fill="#FBC02D"/>
<path d="M14.8588 17.0905C14.8822 17.0781 14.9075 17.0658 14.9327 17.0534C15.1418 16.9529 15.3725 16.8691 15.6177 16.8011C15.5375 16.4527 15.4915 16.0813 15.478 15.7056H14.355C14.3937 16.2066 14.5677 16.682 14.8579 17.0905L14.8588 17.0905Z" fill="#1FBAD6"/>
<path d="M22.0581 23.8126C22.0581 23.8699 22.1077 23.9175 22.1663 23.9175H26.352C26.4106 23.9175 26.4601 23.869 26.4601 23.8126V23.6035H22.0591V23.8126H22.0581Z" fill="#FBC02D"/>
<path d="M12.2064 22.1616H8.19558C8.08923 22.1616 8 22.2481 8 22.3513V23.229C8 23.3339 8.08743 23.4195 8.19558 23.4195H12.2073C12.3155 23.4195 12.4029 23.3339 12.4029 23.229V22.3513C12.4029 22.2489 12.3137 22.1616 12.2073 22.1616H12.2064ZM8.78141 23.0093H8.60115C8.47767 23.0093 8.37763 22.9114 8.37763 22.7906C8.37763 22.6697 8.47767 22.5718 8.60115 22.5718H8.78141C8.90489 22.5718 9.00493 22.6697 9.00493 22.7906C9.00493 22.9114 8.90489 23.0093 8.78141 23.0093ZM11.7998 23.0093H9.62321C9.49974 23.0093 9.39969 22.9114 9.39969 22.7906C9.39969 22.6697 9.49974 22.5718 9.62321 22.5718H11.7998C11.9233 22.5718 12.0234 22.6697 12.0234 22.7906C12.0234 22.9114 11.9233 23.0093 11.7998 23.0093Z" fill="#FBC02D"/>
<path d="M26.351 20.8438H22.1653C22.1067 20.8438 22.0571 20.8923 22.0571 20.9487V23.1663H26.4581V20.9487C26.4581 20.8914 26.4085 20.8438 26.35 20.8438H26.351Z" fill="#FBC02D"/>
<path d="M19.5988 17.0905C19.889 16.682 20.063 16.2066 20.1017 15.7056H18.9796C18.967 16.0805 18.9201 16.4527 18.8408 16.8011C19.0851 16.8691 19.3158 16.9529 19.5249 17.0534C19.551 17.0658 19.5763 17.079 19.5997 17.0914L19.5988 17.0905Z" fill="#1FBAD6"/>
<path d="M15.1489 17.4368C15.1624 17.4509 15.176 17.4659 15.1904 17.4792C15.4788 17.7606 15.8141 17.9696 16.1719 18.1072C16.0908 17.9952 16.0151 17.8699 15.9448 17.7314C15.8646 17.5727 15.7952 17.4015 15.7357 17.2207C15.5266 17.2798 15.3301 17.3513 15.1498 17.4368L15.1489 17.4368Z" fill="#1FBAD6"/>
<path d="M18.1155 17.5371C18.1813 17.4074 18.239 17.2671 18.2894 17.1198C17.609 16.9946 16.8519 16.9946 16.1714 17.1198C16.2219 17.2663 16.2804 17.4065 16.3462 17.5371C16.5824 18.0037 16.887 18.2789 17.1898 18.3018C17.2034 18.3018 17.2169 18.3027 17.2313 18.3027C17.2448 18.3027 17.2583 18.3018 17.2719 18.3018C17.5747 18.2789 17.8802 18.0037 18.1164 17.5371H18.1155Z" fill="#1FBAD6"/>
<path d="M13.3476 15.9116H13.9298C13.9118 15.7723 13.901 15.6302 13.901 15.4873C13.901 14.6185 14.2471 13.8008 14.8762 13.1867C15.5044 12.5737 16.3228 12.2579 17.1475 12.2376C17.1745 12.2349 17.2025 12.2341 17.2304 12.2341H17.2313C17.2593 12.2341 17.2863 12.2358 17.3142 12.2376C18.1389 12.2579 18.9573 12.5728 19.5855 13.1867C20.2137 13.8015 20.5607 14.6183 20.5607 15.4873C20.5607 15.6302 20.5499 15.7722 20.5319 15.9116H21.115C22.3318 15.9116 23.3205 14.9449 23.3205 13.7558C23.3205 12.5667 22.3309 11.599 21.115 11.599C21.0609 11.599 21.0078 11.6008 20.9564 11.6052C20.8563 11.6123 20.7617 11.5532 20.7284 11.4597C20.4192 10.5952 19.5819 10.0139 18.6455 10.0139C18.2759 10.0139 17.9082 10.1057 17.5828 10.2803C17.5279 10.3094 17.463 10.3147 17.4044 10.2953C17.3449 10.2759 17.2971 10.2327 17.2719 10.1771C16.9186 9.39822 16.1264 8.89453 15.2548 8.89453C14.038 8.89453 13.0475 9.8613 13.0475 11.0504C13.0475 11.1642 13.0565 11.278 13.0755 11.3962C13.0935 11.5117 13.0169 11.6202 12.8997 11.644C11.8812 11.8496 11.1431 12.7378 11.1431 13.7558C11.1431 14.9449 12.1327 15.9116 13.3503 15.9116L13.3476 15.9116Z" fill="#1FBAD6"/>
<path d="M19.3102 17.4368C19.1308 17.3513 18.9334 17.2789 18.7252 17.2207C18.6657 17.4015 18.5963 17.5727 18.5161 17.7314C18.4458 17.8708 18.3692 17.9961 18.2881 18.1081C18.645 17.9714 18.9803 17.7623 19.2687 17.4801C19.2831 17.4659 19.2966 17.4518 19.3102 17.4377L19.3102 17.4368Z" fill="#1FBAD6"/>
<path d="M14.8589 13.8842C14.5687 14.2926 14.3956 14.7672 14.356 15.2682H15.479C15.4916 14.8933 15.5385 14.522 15.6178 14.1735C15.3726 14.1056 15.1428 14.0218 14.9337 13.9212C14.9076 13.908 14.8823 13.8957 14.8589 13.8833L14.8589 13.8842Z" fill="#1FBAD6"/>
<path d="M19.9415 9.10936C19.6504 8.97175 19.3223 8.95058 19.0177 9.05026C18.9005 9.08907 18.8374 9.21256 18.8771 9.32724C18.9158 9.44191 19.0429 9.50366 19.1601 9.46485C19.3539 9.40134 19.5621 9.41457 19.7478 9.50278C19.8911 9.5707 20.0091 9.67744 20.0885 9.8124C20.1299 9.88297 20.2047 9.92178 20.2822 9.92178C20.3201 9.92178 20.3579 9.91208 20.3931 9.89267C20.5003 9.83269 20.5364 9.69861 20.4751 9.59452C20.3507 9.38194 20.1651 9.21434 19.9406 9.1085L19.9415 9.10936Z" fill="#FBC02D"/>
<path d="M18.8427 8.52707C19.2862 8.38329 19.7639 8.41328 20.1866 8.61263C20.5138 8.767 20.7832 9.01222 20.9644 9.32184C21.0059 9.3924 21.0807 9.43122 21.1582 9.43122C21.196 9.43122 21.2339 9.42151 21.269 9.40211C21.3763 9.34212 21.4123 9.20804 21.3511 9.10396C21.1248 8.71761 20.7886 8.41239 20.3795 8.21833C19.8513 7.96957 19.2546 7.93253 18.7013 8.11159C18.5841 8.14952 18.521 8.27301 18.5598 8.3877C18.5985 8.50237 18.7247 8.56412 18.8419 8.52619L18.8427 8.52707Z" fill="#FBC02D"/>
<path d="M19.5836 17.7882C19.5611 17.8102 19.5377 17.8305 19.5151 17.8517H23.5908C23.8359 17.8517 24.0351 18.0457 24.0351 18.2848V20.4054H24.4813V18.2848C24.4813 17.8049 24.082 17.415 23.5908 17.415H19.9108C19.8117 17.5456 19.7026 17.6708 19.5828 17.7882L19.5836 17.7882Z" fill="#1FBAD6"/>
<path d="M10.4236 18.2853C10.4236 18.0462 10.6228 17.8522 10.8679 17.8522H14.9436C14.921 17.831 14.8976 17.8098 14.8751 17.7886C14.7552 17.6713 14.6461 17.5461 14.547 17.4155H10.867C10.3758 17.4155 9.97656 17.8054 9.97656 18.2853V20.031H10.4227V18.2853L10.4236 18.2853Z" fill="#1FBAD6"/>
<path d="M17.229 18.7416C17.201 18.7416 17.174 18.7399 17.146 18.7381C17.0992 18.7372 17.0532 18.7346 17.0063 18.7319V20.407H17.4525V18.7319C17.4056 18.7355 17.3588 18.7372 17.3119 18.7381C17.2848 18.7408 17.2569 18.7416 17.229 18.7416Z" fill="#1FBAD6"/>
</svg>
