<svg xmlns="http://www.w3.org/2000/svg" width="150" height="42" viewBox="0 0 150 42" fill="none"><g clip-path="url(#clip0_3465_10768)"><path d="M136.083 33.7965V40.336C137.309 40.6106 140.062 40.5852 142.735 39.6854C144.443 39.1193 146.962 37.193 147.999 35.2708C149.767 32.4995 150.032 29.1073 149.003 25.8797C148.222 23.6196 146.707 21.679 144.694 20.3615C142.68 19.044 140.283 18.4239 137.875 18.5981C135.468 18.7724 133.187 19.7313 131.388 21.3247C129.59 22.9181 128.377 25.0563 127.937 27.4048C127.549 28.5539 127.745 41.1387 127.745 41.1387H133.453C133.453 41.1387 133.453 31.6673 133.547 30.0916C133.641 28.5158 134.047 26.4416 136.45 25.2925C137.496 24.8155 138.679 24.7252 139.786 25.0379C140.893 25.3506 141.85 26.0456 142.484 26.9968C143.117 27.948 143.385 29.0923 143.238 30.2221C143.091 31.3519 142.54 32.3922 141.685 33.1543C139.883 34.7132 137.142 34.2189 136.083 33.7965Z" fill="#B5B5B5"></path><path d="M140.555 13.7255C139.774 11.4653 138.259 9.52465 136.246 8.20716C134.232 6.88966 131.834 6.26956 129.427 6.44385C127.02 6.61813 124.738 7.57697 122.94 9.1704C121.142 10.7638 119.928 12.902 119.489 15.2505C119.19 16.1334 119.237 31.6796 119.275 35.4056C119.275 35.4056 102.129 35.4056 101.079 35.3465C99.4907 35.2366 97.3901 34.8522 96.2288 32.4738C95.7519 31.4399 95.6646 30.2714 95.9825 29.1794C96.3004 28.0874 97.0026 27.1439 97.9621 26.5195C98.9217 25.895 100.075 25.6307 101.215 25.7744C102.354 25.9181 103.404 26.4603 104.174 27.303C104.712 27.9164 105.09 28.6501 105.276 29.4406L110.579 25.8033C109.994 24.5131 109.138 23.361 108.068 22.4237C106.581 21.0658 104.751 20.1286 102.772 19.7101C100.793 19.2917 98.7364 19.4075 96.818 20.0453C94.5337 20.8173 92.5724 22.3167 91.2409 24.3088C89.9094 26.301 89.2827 28.6737 89.4588 31.0557C89.6349 33.4378 90.604 35.6949 92.2144 37.4741C93.8248 39.2533 95.9857 40.4542 98.3592 40.889C98.7264 41.0115 100.345 41.0749 102.381 41.1045C104.746 41.1382 125.103 41.1045 125.103 41.1045C125.103 41.1045 125.005 19.1751 125.103 17.9373C125.214 16.3658 125.603 14.2873 128.007 13.1382C129.113 12.6429 130.367 12.5759 131.521 12.9505C132.675 13.3251 133.645 14.1141 134.24 15.1618C134.643 15.9021 134.846 16.7331 134.829 17.574C136.864 16.9147 139.033 16.7695 141.14 17.1515C141.112 15.9876 140.915 14.8337 140.555 13.7255Z" fill="#1FBAD6"></path><path d="M105.884 19.0691L111.067 15.5205C110.323 15.0303 109.731 14.3441 109.36 13.5392C108.877 12.5049 108.786 11.3338 109.102 10.2385C109.418 9.14319 110.121 8.19631 111.082 7.56967C112.043 6.94304 113.2 6.6782 114.342 6.8232C115.483 6.96821 116.535 7.51346 117.305 8.35999C117.841 8.97369 118.218 9.7074 118.402 10.4976L123.709 6.86029C123.124 5.57017 122.269 4.41808 121.199 3.48069C119.711 2.12203 117.881 1.18434 115.901 0.765896C113.921 0.347449 111.864 0.463641 109.944 1.1023C107.802 1.82441 105.94 3.18864 104.618 5.00555C103.295 6.82245 102.576 9.00185 102.562 11.2411C102.565 12.6985 102.859 14.141 103.43 15.4848C104 16.8286 104.834 18.0469 105.884 19.0691Z" fill="#1FBAD6"></path><path d="M10.2022 37.108C10.1552 35.8406 10.1083 34.3156 10.1083 32.7905H10.0613C9.73256 34.1297 9.28853 35.6294 8.87866 36.8587L7.59782 40.9607H5.7107L4.57502 36.8925C4.22919 35.659 3.86628 34.1635 3.61438 32.7905H3.58449C3.52045 34.21 3.47349 35.8322 3.39664 37.1418L3.20451 41.1297H0.984375L1.66322 30.6191H4.86107L5.90283 34.1255C6.23158 35.3421 6.5646 36.6602 6.79942 37.8853H6.83358C7.13244 36.6686 7.49535 35.283 7.84118 34.1128L8.96832 30.6191H12.1064L12.6913 41.1297H10.3431L10.2022 37.108Z" fill="#B5B5B5"></path><path d="M18.5526 41.1298L18.4117 40.3651H18.3605C18.0867 40.6743 17.7462 40.9187 17.3641 41.0803C16.9821 41.2419 16.5683 41.3165 16.1532 41.2987C15.8325 41.316 15.5117 41.2683 15.2103 41.1586C14.9089 41.049 14.6332 40.8796 14.4002 40.661C14.1673 40.4423 13.9818 40.1789 13.8552 39.8869C13.7286 39.5948 13.6636 39.2803 13.6641 38.9626C13.6641 36.9813 15.4615 36.0308 18.1855 36.0477V35.9378C18.1855 35.5154 17.9634 34.9535 16.7808 34.9535C16.0306 34.9604 15.295 35.1598 14.646 35.5323L14.2191 34.003C15.1451 33.5415 16.1711 33.3109 17.2077 33.3313C19.7694 33.3313 20.5977 34.8268 20.5977 36.6222V39.2879C20.5855 39.908 20.6226 40.5281 20.7087 41.1424L18.5526 41.1298ZM18.2708 37.5263C16.99 37.5263 16.0336 37.8051 16.0336 38.726C16.0241 38.8497 16.0423 38.974 16.0868 39.0899C16.1312 39.2059 16.201 39.3108 16.2911 39.3971C16.3811 39.4834 16.4893 39.549 16.6079 39.5892C16.7265 39.6295 16.8525 39.6434 16.9772 39.6301C17.2513 39.6316 17.519 39.5481 17.7427 39.3912C17.9663 39.2343 18.1346 39.012 18.2239 38.7556C18.2574 38.6173 18.2732 38.4753 18.2708 38.3331V37.5263Z" fill="#B5B5B5"></path><path d="M22.082 41.1291C22.1119 40.6306 22.1461 39.7096 22.1461 38.8521V30.0566H24.5413V34.4079H24.5711C24.8395 34.053 25.1923 33.7693 25.5983 33.5821C26.0043 33.3949 26.4508 33.3099 26.898 33.3349C28.7424 33.3349 30.0959 34.8472 30.0831 37.1876C30.0831 39.9335 28.3198 41.3065 26.5522 41.3065C26.0891 41.3277 25.6289 41.2241 25.2206 41.0069C24.8124 40.7896 24.4713 40.4669 24.2339 40.0729H24.2082L24.1143 41.1333L22.082 41.1291ZM24.5413 37.8846C24.5395 38.0268 24.5552 38.1687 24.5882 38.3071C24.6596 38.6239 24.8373 38.9074 25.0924 39.1115C25.3475 39.3155 25.6649 39.4281 25.9929 39.4308C27.0176 39.4308 27.6494 38.6493 27.6494 37.2805C27.6494 36.0977 27.1158 35.1683 25.9929 35.1683C25.6613 35.1789 25.3428 35.2991 25.0882 35.5097C24.8337 35.7202 24.6576 36.009 24.5882 36.33C24.5572 36.4688 24.5415 36.6104 24.5413 36.7525V37.8846Z" fill="#B5B5B5"></path><path d="M31.2242 35.938C31.2242 34.9875 31.1943 34.1764 31.1602 33.5047H33.2394L33.3504 34.5481H33.3974C33.661 34.1664 34.0163 33.8554 34.4313 33.643C34.8464 33.4307 35.3083 33.3236 35.7755 33.3315C37.3509 33.3315 38.5336 34.3622 38.5336 36.6054V41.1257H36.1427V36.9012C36.1427 35.9169 35.7968 35.2494 34.9301 35.2494C34.6608 35.2543 34.3999 35.343 34.1845 35.5031C33.9692 35.6631 33.8102 35.8862 33.7304 36.1408C33.6625 36.3305 33.6306 36.531 33.6365 36.7322V41.1299H31.2242V35.938Z" fill="#B5B5B5"></path><path d="M44.4937 41.1301L44.3528 40.3654H44.3058C44.032 40.6746 43.6915 40.919 43.3095 41.0806C42.9274 41.2422 42.5136 41.3169 42.0985 41.2991C41.7775 41.3163 41.4563 41.2685 41.1546 41.1586C40.8529 41.0487 40.5771 40.879 40.344 40.6598C40.111 40.4407 39.9256 40.1768 39.7993 39.8843C39.6729 39.5918 39.6083 39.2768 39.6094 38.9587C39.6094 36.9774 41.4068 36.0269 44.1308 36.0438V35.9339C44.1308 35.5115 43.9088 34.9496 42.7261 34.9496C41.9759 34.9565 41.2403 35.1559 40.5914 35.5284L40.1644 33.9991C41.0904 33.5376 42.1164 33.307 43.1531 33.3274C45.7148 33.3274 46.543 34.8229 46.543 36.6183V39.2882C46.5308 39.9083 46.568 40.5284 46.654 41.1427L44.4937 41.1301ZM44.2119 37.5266C42.9311 37.5266 41.9747 37.8054 41.9747 38.7263C41.9652 38.85 41.9833 38.9743 42.0278 39.0903C42.0723 39.2062 42.1421 39.3111 42.2321 39.3974C42.3222 39.4837 42.4304 39.5493 42.5489 39.5896C42.6675 39.6298 42.7936 39.6438 42.9182 39.6304C43.1924 39.6319 43.4601 39.5484 43.6837 39.3915C43.9073 39.2346 44.0756 39.0124 44.1649 38.7559C44.1985 38.6176 44.2143 38.4757 44.2119 38.3335V37.5266Z" fill="#B5B5B5"></path><path d="M55.966 40.8339C55.0973 41.1671 54.1689 41.3209 53.2378 41.2859C49.5661 41.2859 47.6875 39.0258 47.6875 36.0306C47.6875 32.444 50.2705 30.45 53.4855 30.45C54.3817 30.4192 55.2743 30.5791 56.1027 30.919L55.6159 32.8073C54.9771 32.5463 54.2919 32.4142 53.6007 32.4187C51.6923 32.4187 50.2108 33.5551 50.2108 35.8954C50.2108 38.0077 51.4916 39.3257 53.6264 39.3257C54.3087 39.3256 54.9859 39.2098 55.6287 38.9835L55.966 40.8339Z" fill="#B5B5B5"></path><path d="M57.0664 30.0566H59.4616V41.1291H57.0664V30.0566Z" fill="#B5B5B5"></path><path d="M68.6655 37.2303C68.6655 40.0227 66.6631 41.2985 64.601 41.2985C62.3467 41.2985 60.6133 39.8326 60.6133 37.3697C60.6133 34.9068 62.2528 33.3311 64.7248 33.3311C67.0901 33.3353 68.6655 34.9406 68.6655 37.2303ZM63.0853 37.3063C63.0853 38.6159 63.6361 39.6002 64.6608 39.6002C65.5915 39.6002 66.1892 38.6793 66.1892 37.3063C66.1892 36.1699 65.7623 35.0124 64.6608 35.0124C63.5592 35.0124 63.0853 36.1868 63.0853 37.3105V37.3063Z" fill="#B5B5B5"></path><path d="M77.0661 38.6841C77.0661 39.6811 77.096 40.4922 77.1301 41.1301H75.0509L74.9399 40.0529H74.8929C74.6373 40.4537 74.2802 40.7816 73.8571 41.0039C73.434 41.2262 72.9595 41.3352 72.4807 41.3202C70.9223 41.3202 69.7695 40.3528 69.7695 37.9998V33.5049H72.1818V37.5984C72.1818 38.7052 72.5447 39.3769 73.3815 39.3769C73.6443 39.3745 73.9 39.2921 74.1138 39.1409C74.3277 38.9898 74.4894 38.7772 74.577 38.532C74.6368 38.367 74.6629 38.1918 74.6538 38.0167V33.5049H77.0661V38.6841Z" fill="#B5B5B5"></path><path d="M86.111 30.0566V38.8647C86.111 39.7096 86.1408 40.6263 86.175 41.1417H84.0402L83.9292 40.018H83.8994C83.6515 40.4278 83.2967 40.7641 82.8723 40.9915C82.4479 41.219 81.9694 41.3292 81.4871 41.3107C79.6598 41.3107 78.1953 39.7688 78.1953 37.3988C78.1953 34.8261 79.8049 33.3433 81.6451 33.3433C82.5886 33.3433 83.3315 33.6686 83.6773 34.1882H83.7072V30.0566H86.111ZM83.7158 36.7525C83.7135 36.6112 83.7036 36.4702 83.6859 36.33C83.6262 36.0036 83.4532 35.708 83.1967 35.4944C82.9403 35.2807 82.6165 35.1624 82.2812 35.1598C81.1925 35.1598 80.6247 36.1272 80.6247 37.327C80.6247 38.6197 81.2693 39.4393 82.2641 39.4393C82.5936 39.4416 82.9133 39.3289 83.1671 39.1211C83.4209 38.9132 83.5925 38.6235 83.6517 38.3029C83.698 38.1249 83.7195 37.9416 83.7158 37.7579V36.7525Z" fill="#B5B5B5"></path><path d="M8.53783 21.1605C8.52939 21.7487 8.39969 22.3289 8.15669 22.8657C7.91369 23.4026 7.5625 23.8846 7.12463 24.2825C6.72294 24.7165 6.2359 25.0648 5.69335 25.3059C5.1508 25.5471 4.56419 25.6761 3.96948 25.685H0.980832V23.8769H3.96948C4.32751 23.8774 4.68196 23.8062 5.01142 23.6676C5.34089 23.5289 5.63856 23.3256 5.88648 23.07C6.14848 22.8286 6.35729 22.5363 6.49981 22.2114C6.64234 21.8864 6.71552 21.5359 6.71476 21.1817C6.7178 20.8252 6.64702 20.4718 6.50677 20.1434C6.36652 19.815 6.15977 19.5185 5.89928 19.2722C5.65022 19.0132 5.35003 18.8075 5.01734 18.668C4.68465 18.5285 4.32654 18.458 3.96521 18.4611H0.976562V16.6572H3.96521C4.55843 16.6654 5.14382 16.7924 5.68609 17.0306C6.22835 17.2687 6.71625 17.6131 7.12036 18.0429C7.56028 18.4384 7.91317 18.9193 8.15704 19.4557C8.40091 19.9921 8.53053 20.5724 8.53783 21.1605Z" fill="#1FBAD6" stroke="#1FBAD6" stroke-width="0.640424" stroke-miterlimit="10"></path><path d="M27.6952 25.6808C27.1521 25.6948 26.6135 25.5804 26.124 25.3471C25.3971 24.9186 24.7838 24.3249 24.3351 23.6151C23.9137 24.326 23.3193 24.9214 22.606 25.3471C22.1164 25.5739 21.5793 25.6825 21.0391 25.6639V23.8432C21.703 23.7712 22.3139 23.4508 22.7469 22.9476C23.2 22.4608 23.4502 21.8224 23.4471 21.1606V11.7822H25.2829V21.1606C25.2837 21.8145 25.5373 22.4433 25.9917 22.918C26.4299 23.4204 27.036 23.7503 27.6995 23.8474L27.6952 25.6808Z" fill="#1FBAD6" stroke="#1FBAD6" stroke-width="0.640424" stroke-miterlimit="10"></path><path d="M56.9153 25.6807H27.8828V23.8768H55.0752C55.0946 23.1146 54.8302 22.3719 54.3323 21.7899C54.0905 21.4973 53.7845 21.2631 53.4376 21.105C53.0906 20.9469 52.7118 20.869 52.3299 20.8774H47.4712C46.8768 20.8691 46.2904 20.7407 45.7479 20.5003C45.2054 20.2599 44.7181 19.9124 44.3161 19.4791C43.7147 18.848 43.3099 18.0588 43.1502 17.2059C42.9905 16.3531 43.0826 15.4727 43.4155 14.6704C43.7485 13.868 44.3081 13.1776 45.0274 12.6818C45.7467 12.186 46.5952 11.9059 47.4712 11.875H54.4775V13.6915H47.4712C46.7457 13.6948 46.0506 13.9809 45.5367 14.4878C45.0229 14.9947 44.7316 15.6815 44.726 16.3994C44.7227 16.7545 44.7938 17.1064 44.9349 17.4329C45.076 17.7593 45.284 18.0533 45.5457 18.2962C45.7956 18.5509 46.0951 18.753 46.426 18.8902C46.7569 19.0274 47.1124 19.097 47.4712 19.0947H52.347C52.941 19.1018 53.5274 19.2283 54.0705 19.4665C54.6136 19.7047 55.1021 20.0496 55.5064 20.4803C55.9444 20.8769 56.2954 21.3583 56.5378 21.8945C56.7801 22.4308 56.9086 23.0106 56.9153 23.598V25.6807Z" fill="#1FBAD6" stroke="#1FBAD6" stroke-width="0.640424" stroke-miterlimit="10"></path><path d="M64.0857 15.7577C64.2052 15.7589 64.3236 15.736 64.4337 15.6902C64.5439 15.6444 64.6434 15.5768 64.7261 15.4916C64.8133 15.4078 64.8821 15.3072 64.9284 15.196C64.9746 15.0848 64.9973 14.9654 64.9951 14.8452C64.9793 14.6167 64.8764 14.4026 64.7072 14.2462C64.538 14.0899 64.3151 14.0029 64.0836 14.0029C63.8521 14.0029 63.6292 14.0899 63.46 14.2462C63.2908 14.4026 63.1879 14.6167 63.172 14.8452C63.1697 14.9651 63.192 15.0841 63.2375 15.1952C63.283 15.3063 63.3508 15.4071 63.4367 15.4916C63.5197 15.5789 63.6204 15.6478 63.7323 15.6937C63.8442 15.7396 63.9646 15.7614 64.0857 15.7577Z" fill="#1FBAD6" stroke="#1FBAD6" stroke-width="0.640424" stroke-miterlimit="10"></path><path d="M69.4613 27.2433C69.2167 27.2433 68.9822 27.3395 68.8092 27.5106C68.6363 27.6817 68.5391 27.9138 68.5391 28.1558C68.5379 28.274 68.5611 28.3912 68.6073 28.5002C68.6536 28.6092 68.7219 28.7076 68.8081 28.7895C68.8928 28.8757 68.9944 28.9438 69.1068 28.9896C69.2192 29.0354 69.3398 29.0579 69.4613 29.0556C69.703 29.0534 69.9341 28.9575 70.1049 28.7884C70.2758 28.6194 70.3728 28.3907 70.375 28.1516C70.3772 28.0314 70.3545 27.912 70.3083 27.8008C70.262 27.6897 70.1932 27.5891 70.106 27.5053C70.0224 27.4202 69.922 27.3531 69.8111 27.3081C69.7003 27.263 69.5812 27.241 69.4613 27.2433Z" fill="#1FBAD6" stroke="#1FBAD6" stroke-width="0.640424" stroke-miterlimit="10"></path><path d="M84.7154 17.9969C84.291 17.5647 83.7842 17.2201 83.2243 16.983C82.6644 16.7459 82.0625 16.621 81.4535 16.6155C80.8569 16.6189 80.2673 16.7424 79.7205 16.9784C79.1737 17.2144 78.6811 17.5581 78.2728 17.9885C77.8356 18.3886 77.4862 18.8733 77.246 19.4124C77.0059 19.9516 76.8801 20.5338 76.8766 21.123C76.892 21.7931 76.6614 22.446 76.2277 22.9607C76.0577 23.2093 75.8314 23.4151 75.5667 23.5618C75.3021 23.7085 75.0065 23.792 74.7035 23.8056C74.3987 23.7666 74.105 23.6677 73.8396 23.5146C73.5741 23.3615 73.3423 23.1574 73.1579 22.9142C72.7035 22.4395 72.4499 21.8107 72.4492 21.1568V19.0446H70.6133V21.1568C70.6166 21.8194 70.3647 22.4584 69.9088 22.9438C69.5203 23.3663 69.0763 23.8183 68.5255 23.7887C67.9491 23.8141 67.5136 23.3663 67.108 22.9438C66.6483 22.4718 66.3912 21.842 66.3908 21.1864V19.0742H64.5677V21.1864C64.5597 21.8115 64.3353 22.4149 63.9321 22.8962C63.5289 23.3774 62.9711 23.7073 62.3518 23.831C62.0332 23.8717 61.7093 23.8345 61.4085 23.7225C61.1078 23.6106 60.8394 23.4273 60.6269 23.1888C60.1744 22.6819 60.0847 21.8792 60.0847 21.1737V11.8545H58.2617V21.3385C58.1931 22.5145 58.581 23.672 59.3461 24.5745C59.7512 24.9796 60.2432 25.2893 60.7856 25.4809C61.3281 25.6725 61.9071 25.741 62.4799 25.6813C62.9039 25.6392 63.3187 25.5323 63.7095 25.3645C64.4313 24.9332 65.033 24.3307 65.46 23.6113C65.9106 24.3236 66.5269 24.9189 67.2575 25.3476C67.554 25.492 67.873 25.5862 68.201 25.6264C68.3066 25.6466 68.4137 25.6579 68.5212 25.6602C68.6201 25.6583 68.7186 25.6484 68.8158 25.6306C69.1511 25.5951 69.4776 25.5022 69.7807 25.356C70.4998 24.9256 71.0975 24.3226 71.5184 23.6028C71.9629 24.3165 72.5733 24.9147 73.2988 25.3476C73.6824 25.53 74.099 25.6349 74.5241 25.6559C74.5241 25.6559 74.6394 25.6559 74.6949 25.6559C74.7504 25.6559 74.8572 25.6559 74.8572 25.6559C75.2847 25.6391 75.7043 25.5371 76.091 25.356C76.8294 24.9316 77.4465 24.3283 77.8842 23.6028C78.3189 24.3789 78.9753 25.0108 79.7713 25.4194C80.3473 25.616 80.9559 25.7021 81.5645 25.6728C82.1629 25.6637 82.7533 25.5347 83.3 25.2936C83.8466 25.0526 84.3383 24.7045 84.7453 24.2703C85.1974 23.8775 85.5591 23.3934 85.8061 22.8506C86.0531 22.3078 86.1797 21.7189 86.1772 21.1236C86.1748 20.5283 86.0435 19.9405 85.792 19.3997C85.5406 18.8589 85.1749 18.3776 84.7197 17.9885L84.7154 17.9969ZM83.473 23.0663C83.2111 23.3235 82.9007 23.5271 82.5593 23.6656C82.2179 23.804 81.8523 23.8746 81.4834 23.8732C81.1218 23.8741 80.7637 23.8027 80.4306 23.6634C80.0975 23.524 79.7963 23.3195 79.5451 23.0621C79.2769 22.8205 79.0625 22.5264 78.9155 22.1984C78.7685 21.8704 78.6921 21.5157 78.6912 21.1568C78.704 20.8002 78.7928 20.4503 78.9517 20.13C79.1106 19.8097 79.3361 19.5262 79.6134 19.2981C80.1207 18.7782 80.8132 18.4751 81.5432 18.4532C81.9184 18.4607 82.2876 18.5479 82.6257 18.709C82.9638 18.8701 83.263 19.1012 83.5029 19.3868C83.9965 19.855 84.2886 20.4936 84.3184 21.1695C84.3216 21.5272 84.2484 21.8815 84.1034 22.2091C83.9585 22.5367 83.7451 22.8303 83.4773 23.0705L83.473 23.0663Z" fill="#1FBAD6" stroke="#1FBAD6" stroke-width="0.640424" stroke-miterlimit="10"></path><path d="M19.2151 22.9605C19.1059 22.8285 19.0087 22.6871 18.9248 22.5381C18.9661 23.3603 18.9547 24.1844 18.8906 25.0052C19.5439 25.6853 20.3209 25.6642 20.9314 25.6642V23.8561C20.5961 23.8421 20.2682 23.7545 19.9713 23.5996C19.6745 23.4447 19.4162 23.2264 19.2151 22.9605Z" fill="#1FBAD6" stroke="#1FBAD6" stroke-width="0.640424" stroke-miterlimit="10"></path><path d="M19.2136 21.3883C19.227 20.2098 18.8119 19.0658 18.0438 18.165C17.6629 17.7048 17.1921 17.3253 16.6595 17.0495C16.1268 16.7737 15.5434 16.6071 14.9442 16.5597C14.3547 16.5262 13.7647 16.614 13.2114 16.8176C12.658 17.0212 12.1533 17.3362 11.7292 17.7425C11.269 18.1121 10.888 18.5689 10.6086 19.0861C10.3293 19.6034 10.1572 20.1706 10.1026 20.7546C10.0649 21.3388 10.1481 21.9245 10.3471 22.4758C10.546 23.0271 10.8565 23.5325 11.2596 23.961C11.6257 24.4217 12.083 24.8036 12.6035 25.0833C13.124 25.3629 13.6968 25.5345 14.2867 25.5874C14.994 25.6265 15.696 25.4448 16.2933 25.0678C16.5825 24.8804 16.8579 24.6729 17.1173 24.4468L17.0789 25.1819C17.0535 25.5405 16.954 25.89 16.7865 26.209C16.6191 26.528 16.3873 26.8096 16.1055 27.0364C15.8416 27.2742 15.5309 27.4554 15.193 27.5688C14.855 27.6822 14.4971 27.7253 14.1415 27.6955C13.4878 27.6269 12.8813 27.3269 12.4337 26.8506L11.2212 28.0926C11.5405 28.4358 11.9175 28.7216 12.3355 28.9375C12.8388 29.2431 13.4048 29.4336 13.9921 29.4951C14.5842 29.5322 15.1777 29.4487 15.7359 29.2495C16.294 29.0504 16.8049 28.74 17.2369 28.3376C17.7031 27.9713 18.0892 27.515 18.3718 26.9965C18.6544 26.478 18.8275 25.908 18.8806 25.3213C18.8806 25.3213 19.2136 21.967 19.2136 21.3883ZM17.382 21.2996C17.3488 21.6497 17.2438 21.9895 17.0735 22.2981C16.9032 22.6068 16.6712 22.8779 16.3915 23.095C15.984 23.4321 15.4859 23.6443 14.9583 23.7053C14.4306 23.7663 13.8965 23.6736 13.4214 23.4386C12.9463 23.2035 12.5508 22.8363 12.2836 22.382C12.0164 21.9278 11.889 21.4062 11.9171 20.8813C12.0115 20.2236 12.3456 19.6227 12.8564 19.1915C13.1079 18.9127 13.4186 18.6924 13.7662 18.5463C14.1139 18.4003 14.4899 18.3321 14.8673 18.3466C15.2428 18.3866 15.6048 18.5076 15.9279 18.701C16.251 18.8945 16.5273 19.1556 16.7373 19.4661C17.1668 19.9818 17.3888 20.6362 17.3607 21.3038L17.382 21.2996Z" fill="#1FBAD6" stroke="#1FBAD6" stroke-width="0.640424" stroke-miterlimit="10"></path></g><defs><clipPath id="clip0_3465_10768"><rect width="150" height="42" fill="white"></rect></clipPath></defs></svg>