<svg width="7" height="12" viewBox="0 0 7 12" fill="none" xmlns="http://www.w3.org/2000/svg">
<path d="M6.15975 0.410276C6.23786 0.487746 6.29985 0.579912 6.34216 0.681462C6.38447 0.783011 6.40625 0.891933 6.40625 1.00194C6.40625 1.11195 6.38447 1.22087 6.34216 1.32242C6.29985 1.42397 6.23786 1.51614 6.15975 1.59361L2.34309 5.41028C2.26499 5.48775 2.20299 5.57991 2.16068 5.68146C2.11838 5.78301 2.09659 5.89193 2.09659 6.00194C2.09659 6.11195 2.11838 6.22087 2.16068 6.32242C2.20299 6.42397 2.26499 6.51614 2.34309 6.59361L6.15975 10.4103C6.23786 10.4877 6.29985 10.5799 6.34216 10.6815C6.38447 10.783 6.40625 10.8919 6.40625 11.0019C6.40625 11.112 6.38447 11.2209 6.34216 11.3224C6.29985 11.424 6.23786 11.5161 6.15975 11.5936C6.00362 11.7488 5.79241 11.8359 5.57225 11.8359C5.3521 11.8359 5.14089 11.7488 4.98475 11.5936L1.15976 7.76861C0.691595 7.29986 0.42863 6.66445 0.42863 6.00194C0.42863 5.33944 0.691595 4.70403 1.15976 4.23528L4.98475 0.410276C5.14089 0.255067 5.3521 0.167948 5.57225 0.167948C5.79241 0.167948 6.00362 0.255067 6.15975 0.410276V0.410276Z" fill="#1FBAD6"/>
</svg>
