<svg width="200" height="70" viewBox="0 0 200 70" fill="none" xmlns="http://www.w3.org/2000/svg">
<g clip-path="url(#clip0_1596_5898)">
<path d="M161.081 47.7955V54.335C162.307 54.6096 165.06 54.5843 167.733 53.6844C169.441 53.1184 171.96 51.192 172.997 49.2698C174.765 46.4986 175.03 43.1063 174.001 39.8788C173.221 37.6186 171.705 35.678 169.692 34.3605C167.678 33.043 165.281 32.4229 162.873 32.5972C160.466 32.7715 158.185 33.7303 156.386 35.3237C154.588 36.9172 153.375 39.0553 152.935 41.4038C152.547 42.5529 152.743 55.1377 152.743 55.1377H158.451C158.451 55.1377 158.451 45.6663 158.545 44.0906C158.639 42.5149 159.045 40.4406 161.448 39.2916C162.494 38.8146 163.677 38.7242 164.784 39.0369C165.891 39.3496 166.848 40.0446 167.482 40.9958C168.115 41.947 168.383 43.0913 168.236 44.2211C168.089 45.3509 167.538 46.3913 166.683 47.1534C164.881 48.7122 162.14 48.2179 161.081 47.7955Z" fill="#B5B5B5"/>
<path d="M165.557 27.7245C164.776 25.4643 163.261 23.5237 161.248 22.2062C159.234 20.8887 156.836 20.2686 154.429 20.4429C152.021 20.6172 149.74 21.576 147.942 23.1694C146.144 24.7629 144.93 26.901 144.491 29.2495C144.192 30.1324 144.239 45.6786 144.277 49.4046C144.277 49.4046 127.131 49.4046 126.081 49.3455C124.493 49.2356 122.392 48.8512 121.231 46.4728C120.754 45.439 120.667 44.2705 120.984 43.1784C121.302 42.0864 122.005 41.1429 122.964 40.5185C123.924 39.894 125.077 39.6298 126.217 39.7735C127.356 39.9172 128.406 40.4593 129.176 41.302C129.714 41.9154 130.092 42.6491 130.278 43.4396L135.58 39.8023C134.996 38.5121 134.14 37.36 133.07 36.4227C131.582 35.0648 129.753 34.1276 127.774 33.7092C125.795 33.2907 123.738 33.4065 121.82 34.0443C119.536 34.8164 117.574 36.3157 116.243 38.3079C114.911 40.3 114.285 42.6727 114.461 45.0547C114.637 47.4368 115.606 49.6939 117.216 51.4731C118.827 53.2523 120.988 54.4532 123.361 54.888C123.728 55.0105 125.347 55.0739 127.383 55.1035C129.748 55.1373 150.105 55.1035 150.105 55.1035C150.105 55.1035 150.007 33.1741 150.105 31.9363C150.216 30.3648 150.605 28.2863 153.009 27.1373C154.115 26.6419 155.369 26.5749 156.523 26.9495C157.677 27.3241 158.647 28.1131 159.242 29.1608C159.645 29.9011 159.848 30.7321 159.831 31.573C161.866 30.9137 164.035 30.7685 166.141 31.1505C166.114 29.9866 165.917 28.8328 165.557 27.7245Z" fill="#1FBAD6"/>
<path d="M130.884 33.0691L136.067 29.5205C135.323 29.0303 134.731 28.3441 134.36 27.5392C133.877 26.5049 133.786 25.3338 134.102 24.2385C134.418 23.1432 135.121 22.1963 136.082 21.5697C137.043 20.943 138.2 20.6782 139.342 20.8232C140.483 20.9682 141.535 21.5135 142.305 22.36C142.841 22.9737 143.218 23.7074 143.402 24.4976L148.709 20.8603C148.124 19.5702 147.269 18.4181 146.199 17.4807C144.711 16.122 142.881 15.1843 140.901 14.7659C138.921 14.3474 136.864 14.4636 134.944 15.1023C132.802 15.8244 130.94 17.1886 129.618 19.0055C128.295 20.8225 127.576 23.0019 127.562 25.2411C127.565 26.6985 127.859 28.141 128.43 29.4848C129 30.8286 129.834 32.0469 130.884 33.0691Z" fill="#1FBAD6"/>
<path d="M35.2003 51.108C35.1533 49.8406 35.1063 48.3156 35.1063 46.7905H35.0594C34.7306 48.1297 34.2866 49.6294 33.8767 50.8587L32.5959 54.9607H30.7087L29.5731 50.8925C29.2272 49.659 28.8643 48.1635 28.6124 46.7905H28.5825C28.5185 48.21 28.4715 49.8322 28.3947 51.1418L28.2026 55.1297H25.9824L26.6613 44.6191H29.8591L30.9009 48.1255C31.2296 49.3421 31.5626 50.6602 31.7975 51.8853H31.8316C32.1305 50.6686 32.4934 49.283 32.8392 48.1128L33.9664 44.6191H37.1044L37.6894 55.1297H35.3411L35.2003 51.108Z" fill="#B5B5B5"/>
<path d="M43.5507 55.1298L43.4098 54.3651H43.3586C43.0847 54.6743 42.7442 54.9187 42.3622 55.0803C41.9801 55.2419 41.5663 55.3165 41.1512 55.2987C40.8306 55.316 40.5097 55.2683 40.2083 55.1586C39.9069 55.049 39.6313 54.8796 39.3983 54.661C39.1653 54.4423 38.9798 54.1789 38.8533 53.8869C38.7267 53.5948 38.6616 53.2803 38.6621 52.9626C38.6621 50.9813 40.4596 50.0308 43.1835 50.0477V49.9378C43.1835 49.5154 42.9615 48.9535 41.7788 48.9535C41.0286 48.9604 40.293 49.1598 39.6441 49.5323L39.2171 48.003C40.1432 47.5415 41.1691 47.3109 42.2058 47.3313C44.7675 47.3313 45.5958 48.8268 45.5958 50.6222V53.2879C45.5836 53.908 45.6207 54.5281 45.7068 55.1424L43.5507 55.1298ZM43.2689 51.5263C41.988 51.5263 41.0317 51.8051 41.0317 52.726C41.0222 52.8497 41.0403 52.974 41.0848 53.0899C41.1293 53.2059 41.199 53.3108 41.2891 53.3971C41.3792 53.4834 41.4873 53.549 41.6059 53.5892C41.7245 53.6295 41.8506 53.6434 41.9752 53.6301C42.2494 53.6316 42.5171 53.5481 42.7407 53.3912C42.9643 53.2343 43.1326 53.012 43.2219 52.7556C43.2555 52.6173 43.2713 52.4753 43.2689 52.3331V51.5263Z" fill="#B5B5B5"/>
<path d="M47.082 55.1291C47.1119 54.6306 47.1461 53.7096 47.1461 52.8521V44.0566H49.5413V48.4079H49.5711C49.8395 48.053 50.1923 47.7693 50.5983 47.5821C51.0043 47.3949 51.4508 47.3099 51.898 47.3349C53.7424 47.3349 55.0959 48.8472 55.0831 51.1876C55.0831 53.9335 53.3198 55.3065 51.5522 55.3065C51.0891 55.3277 50.6289 55.2241 50.2206 55.0069C49.8124 54.7896 49.4713 54.4669 49.2339 54.0729H49.2082L49.1143 55.1333L47.082 55.1291ZM49.5413 51.8846C49.5395 52.0268 49.5552 52.1687 49.5882 52.3071C49.6596 52.6239 49.8373 52.9074 50.0924 53.1115C50.3475 53.3155 50.6649 53.4281 50.9929 53.4308C52.0176 53.4308 52.6494 52.6493 52.6494 51.2805C52.6494 50.0977 52.1158 49.1683 50.9929 49.1683C50.6613 49.1789 50.3428 49.2991 50.0882 49.5097C49.8337 49.7202 49.6576 50.009 49.5882 50.33C49.5572 50.4688 49.5415 50.6104 49.5413 50.7525V51.8846Z" fill="#B5B5B5"/>
<path d="M56.2222 49.937C56.2222 48.9865 56.1924 48.1754 56.1582 47.5037H58.2374L58.3485 48.5471H58.3954C58.659 48.1654 59.0143 47.8544 59.4294 47.642C59.8445 47.4297 60.3063 47.3226 60.7735 47.3305C62.349 47.3305 63.5316 48.3613 63.5316 50.6045V55.1247H61.1407V50.9002C61.1407 49.9159 60.7949 49.2484 59.9282 49.2484C59.6589 49.2533 59.398 49.3421 59.1826 49.5021C58.9672 49.6621 58.8083 49.8853 58.7284 50.1398C58.6605 50.3295 58.6287 50.53 58.6345 50.7312V55.1289H56.2222V49.937Z" fill="#B5B5B5"/>
<path d="M69.4917 55.1301L69.3508 54.3654H69.3039C69.03 54.6746 68.6896 54.919 68.3075 55.0806C67.9255 55.2422 67.5116 55.3169 67.0965 55.2991C66.7755 55.3163 66.4543 55.2685 66.1526 55.1586C65.8509 55.0487 65.5751 54.879 65.3421 54.6598C65.109 54.4407 64.9236 54.1768 64.7973 53.8843C64.671 53.5918 64.6064 53.2768 64.6074 52.9587C64.6074 50.9774 66.4049 50.0269 69.1288 50.0438V49.9339C69.1288 49.5115 68.9068 48.9496 67.7242 48.9496C66.9739 48.9565 66.2384 49.1559 65.5894 49.5284L65.1625 47.9991C66.0885 47.5376 67.1145 47.307 68.1511 47.3274C70.7128 47.3274 71.5411 48.8229 71.5411 50.6183V53.2882C71.5289 53.9083 71.566 54.5284 71.6521 55.1427L69.4917 55.1301ZM69.2099 51.5266C67.9291 51.5266 66.9727 51.8054 66.9727 52.7263C66.9632 52.85 66.9814 52.9743 67.0259 53.0903C67.0703 53.2062 67.1401 53.3111 67.2302 53.3974C67.3202 53.4837 67.4284 53.5493 67.547 53.5896C67.6656 53.6298 67.7917 53.6438 67.9163 53.6304C68.1904 53.6319 68.4581 53.5484 68.6818 53.3915C68.9054 53.2346 69.0737 53.0124 69.163 52.7559C69.1965 52.6176 69.2123 52.4757 69.2099 52.3335V51.5266Z" fill="#B5B5B5"/>
<path d="M80.9641 54.8349C80.0954 55.168 79.1669 55.3219 78.2359 55.2869C74.5641 55.2869 72.6855 53.0268 72.6855 50.0316C72.6855 46.445 75.2686 44.451 78.4835 44.451C79.3798 44.4201 80.2723 44.58 81.1007 44.9199L80.614 46.8083C79.9751 46.5473 79.29 46.4152 78.5988 46.4196C76.6903 46.4196 75.2088 47.556 75.2088 49.8964C75.2088 52.0087 76.4897 53.3267 78.6244 53.3267C79.3067 53.3266 79.984 53.2108 80.6268 52.9845L80.9641 54.8349Z" fill="#B5B5B5"/>
<path d="M82.0664 44.0566H84.4616V55.1291H82.0664V44.0566Z" fill="#B5B5B5"/>
<path d="M93.6655 51.2312C93.6655 54.0236 91.6631 55.2994 89.601 55.2994C87.3467 55.2994 85.6133 53.8335 85.6133 51.3707C85.6133 48.9078 87.2528 47.332 89.7248 47.332C92.0901 47.3363 93.6655 48.9416 93.6655 51.2312ZM88.0853 51.3073C88.0853 52.6169 88.6361 53.6012 89.6608 53.6012C90.5915 53.6012 91.1892 52.6802 91.1892 51.3073C91.1892 50.1709 90.7623 49.0134 89.6608 49.0134C88.5592 49.0134 88.0853 50.1878 88.0853 51.3115V51.3073Z" fill="#B5B5B5"/>
<path d="M102.064 52.6831C102.064 53.6801 102.094 54.4912 102.128 55.1291H100.049L99.9379 54.0519H99.891C99.6353 54.4528 99.2782 54.7806 98.8551 55.0029C98.432 55.2252 97.9575 55.3342 97.4787 55.3192C95.9203 55.3192 94.7676 54.3518 94.7676 51.9988V47.5039H97.1798V51.5974C97.1798 52.7043 97.5427 53.376 98.3796 53.376C98.6424 53.3735 98.898 53.2911 99.1119 53.14C99.3257 52.9888 99.4874 52.7762 99.575 52.5311C99.6348 52.366 99.6609 52.1908 99.6519 52.0157V47.5039H102.064V52.6831Z" fill="#B5B5B5"/>
<path d="M111.111 44.0566V52.8647C111.111 53.7096 111.141 54.6263 111.175 55.1417H109.04L108.929 54.018H108.899C108.651 54.4278 108.297 54.7641 107.872 54.9915C107.448 55.219 106.969 55.3292 106.487 55.3107C104.66 55.3107 103.195 53.7688 103.195 51.3988C103.195 48.8261 104.805 47.3433 106.645 47.3433C107.589 47.3433 108.332 47.6686 108.677 48.1882H108.707V44.0566H111.111ZM108.716 50.7525C108.714 50.6112 108.704 50.4702 108.686 50.33C108.626 50.0036 108.453 49.708 108.197 49.4944C107.94 49.2807 107.616 49.1624 107.281 49.1598C106.192 49.1598 105.625 50.1272 105.625 51.327C105.625 52.6197 106.269 53.4393 107.264 53.4393C107.594 53.4416 107.913 53.3289 108.167 53.1211C108.421 52.9132 108.592 52.6235 108.652 52.3029C108.698 52.1249 108.72 51.9416 108.716 51.7579V50.7525Z" fill="#B5B5B5"/>
<path d="M33.5398 35.1615C33.5313 35.7497 33.4016 36.3299 33.1586 36.8667C32.9156 37.4035 32.5645 37.8856 32.1266 38.2834C31.7249 38.7175 31.2378 39.0657 30.6953 39.3069C30.1528 39.5481 29.5661 39.6771 28.9714 39.686H25.9828V37.8779H28.9714C29.3295 37.8784 29.6839 37.8072 30.0134 37.6685C30.3428 37.5299 30.6405 37.3266 30.8884 37.071C31.1504 36.8296 31.3592 36.5373 31.5018 36.2124C31.6443 35.8874 31.7175 35.5369 31.7167 35.1826C31.7198 34.8261 31.649 34.4728 31.5087 34.1444C31.3685 33.816 31.1617 33.5195 30.9012 33.2732C30.6522 33.0141 30.352 32.8085 30.0193 32.669C29.6866 32.5294 29.3285 32.459 28.9672 32.4621H25.9785V30.6582H28.9672C29.5604 30.6664 30.1458 30.7934 30.688 31.0316C31.2303 31.2697 31.7182 31.614 32.1223 32.0438C32.5622 32.4394 32.9151 32.9203 33.159 33.4567C33.4029 33.9931 33.5325 34.5734 33.5398 35.1615Z" fill="#1FBAD6" stroke="#1FBAD6" stroke-width="0.640424" stroke-miterlimit="10"/>
<path d="M52.6952 39.6799C52.1521 39.6938 51.6135 39.5794 51.124 39.3461C50.3971 38.9176 49.7838 38.3239 49.3351 37.6141C48.9137 38.3251 48.3193 38.9205 47.606 39.3461C47.1164 39.5729 46.5793 39.6815 46.0391 39.663V37.8422C46.703 37.7702 47.3139 37.4498 47.7469 36.9466C48.2 36.4599 48.4502 35.8214 48.4471 35.1596V25.7812H50.2829V35.1596C50.2837 35.8135 50.5373 36.4423 50.9917 36.917C51.4299 37.4194 52.036 37.7493 52.6995 37.8464L52.6952 39.6799Z" fill="#1FBAD6" stroke="#1FBAD6" stroke-width="0.640424" stroke-miterlimit="10"/>
<path d="M81.9173 39.6807H52.8848V37.8768H80.0772C80.0965 37.1146 79.8321 36.3719 79.3343 35.7899C79.0925 35.4973 78.7865 35.2631 78.4395 35.105C78.0926 34.9469 77.7138 34.869 77.3319 34.8774H72.4732C71.8788 34.8691 71.2924 34.7407 70.7498 34.5003C70.2073 34.2599 69.7201 33.9124 69.318 33.4791C68.7167 32.848 68.3119 32.0588 68.1522 31.2059C67.9924 30.3531 68.0846 29.4727 68.4175 28.6704C68.7504 27.868 69.31 27.1776 70.0293 26.6818C70.7486 26.186 71.5971 25.9059 72.4732 25.875H79.4794V27.6915H72.4732C71.7476 27.6948 71.0526 27.9809 70.5387 28.4878C70.0248 28.9947 69.7335 29.6815 69.7279 30.3994C69.7246 30.7545 69.7958 31.1064 69.9369 31.4329C70.078 31.7593 70.2859 32.0533 70.5476 32.2962C70.7976 32.5509 71.097 32.753 71.4279 32.8902C71.7589 33.0274 72.1144 33.097 72.4732 33.0947H77.3489C77.943 33.1018 78.5293 33.2283 79.0724 33.4665C79.6155 33.7047 80.1041 34.0496 80.5084 34.4803C80.9463 34.8769 81.2974 35.3583 81.5397 35.8945C81.7821 36.4308 81.9106 37.0106 81.9173 37.598V39.6807Z" fill="#1FBAD6" stroke="#1FBAD6" stroke-width="0.640424" stroke-miterlimit="10"/>
<path d="M89.0857 29.7567C89.2052 29.758 89.3236 29.735 89.4337 29.6892C89.5439 29.6434 89.6434 29.5758 89.7261 29.4906C89.8133 29.4068 89.8821 29.3062 89.9284 29.195C89.9746 29.0838 89.9973 28.9644 89.9951 28.8442C89.9793 28.6157 89.8764 28.4016 89.7072 28.2453C89.538 28.0889 89.3151 28.002 89.0836 28.002C88.8521 28.002 88.6292 28.0889 88.46 28.2453C88.2908 28.4016 88.1879 28.6157 88.172 28.8442C88.1697 28.9641 88.192 29.0831 88.2375 29.1942C88.283 29.3053 88.3508 29.4061 88.4367 29.4906C88.5197 29.5779 88.6204 29.6469 88.7323 29.6927C88.8442 29.7386 88.9646 29.7604 89.0857 29.7567Z" fill="#1FBAD6" stroke="#1FBAD6" stroke-width="0.640424" stroke-miterlimit="10"/>
<path d="M94.4613 41.2443C94.2167 41.2443 93.9822 41.3405 93.8092 41.5116C93.6363 41.6827 93.5391 41.9148 93.5391 42.1568C93.5379 42.275 93.5611 42.3922 93.6073 42.5012C93.6536 42.6102 93.7219 42.7086 93.8081 42.7905C93.8928 42.8767 93.9944 42.9448 94.1068 42.9906C94.2192 43.0364 94.3398 43.0588 94.4613 43.0566C94.703 43.0544 94.9341 42.9585 95.1049 42.7894C95.2758 42.6203 95.3728 42.3917 95.375 42.1526C95.3772 42.0324 95.3545 41.913 95.3083 41.8018C95.262 41.6906 95.1932 41.59 95.106 41.5062C95.0224 41.4212 94.922 41.3541 94.8111 41.309C94.7003 41.264 94.5812 41.242 94.4613 41.2443Z" fill="#1FBAD6" stroke="#1FBAD6" stroke-width="0.640424" stroke-miterlimit="10"/>
<path d="M109.715 31.9959C109.291 31.5638 108.784 31.2192 108.224 30.982C107.664 30.7449 107.063 30.62 106.454 30.6145C105.857 30.6179 105.267 30.7414 104.72 30.9774C104.174 31.2135 103.681 31.5571 103.273 31.9875C102.836 32.3876 102.486 32.8723 102.246 33.4115C102.006 33.9506 101.88 34.5329 101.877 35.1221C101.892 35.7921 101.661 36.445 101.228 36.9597C101.058 37.2083 100.831 37.4142 100.567 37.5609C100.302 37.7075 100.006 37.791 99.7035 37.8046C99.3987 37.7657 99.105 37.6667 98.8396 37.5136C98.5741 37.3605 98.3423 37.1564 98.1579 36.9133C97.7035 36.4385 97.4499 35.8097 97.4492 35.1559V33.0436H95.6133V35.1559C95.6166 35.8185 95.3647 36.4574 94.9088 36.9428C94.5203 37.3653 94.0763 37.8173 93.5255 37.7877C92.9491 37.8131 92.5136 37.3653 92.108 36.9428C91.6483 36.4709 91.3912 35.841 91.3908 35.1854V33.0732H89.5677V35.1854C89.5597 35.8105 89.3353 36.414 88.9321 36.8952C88.5289 37.3764 87.9711 37.7064 87.3518 37.83C87.0332 37.8707 86.7093 37.8335 86.4085 37.7215C86.1078 37.6096 85.8394 37.4263 85.6269 37.1879C85.1744 36.6809 85.0847 35.8783 85.0847 35.1728V25.8535H83.2617V35.3375C83.1931 36.5135 83.581 37.671 84.3461 38.5735C84.7512 38.9786 85.2432 39.2884 85.7856 39.4799C86.3281 39.6715 86.9071 39.74 87.4799 39.6803C87.9039 39.6382 88.3187 39.5314 88.7095 39.3635C89.4313 38.9323 90.033 38.3297 90.46 37.6103C90.9106 38.3226 91.5269 38.918 92.2575 39.3466C92.554 39.491 92.873 39.5853 93.201 39.6254C93.3066 39.6456 93.4137 39.6569 93.5212 39.6592C93.6201 39.6573 93.7186 39.6474 93.8158 39.6296C94.1511 39.5941 94.4776 39.5012 94.7807 39.355C95.4998 38.9246 96.0975 38.3216 96.5184 37.6019C96.9629 38.3155 97.5733 38.9137 98.2988 39.3466C98.6824 39.529 99.099 39.6339 99.5241 39.655C99.5241 39.655 99.6394 39.655 99.6949 39.655C99.7504 39.655 99.8572 39.655 99.8572 39.655C100.285 39.6381 100.704 39.5361 101.091 39.355C101.829 38.9306 102.446 38.3273 102.884 37.6019C103.319 38.3779 103.975 39.0099 104.771 39.4184C105.347 39.6151 105.956 39.7011 106.565 39.6719C107.163 39.6627 107.753 39.5337 108.3 39.2927C108.847 39.0516 109.338 38.7035 109.745 38.2693C110.197 37.8765 110.559 37.3924 110.806 36.8496C111.053 36.3068 111.18 35.7179 111.177 35.1226C111.175 34.5274 111.043 33.9395 110.792 33.3987C110.541 32.8579 110.175 32.3767 109.72 31.9875L109.715 31.9959ZM108.473 37.0653C108.211 37.3225 107.901 37.5261 107.559 37.6646C107.218 37.803 106.852 37.8736 106.483 37.8722C106.122 37.8731 105.764 37.8018 105.431 37.6624C105.098 37.523 104.796 37.3185 104.545 37.0611C104.277 36.8196 104.062 36.5254 103.915 36.1974C103.768 35.8694 103.692 35.5147 103.691 35.1559C103.704 34.7993 103.793 34.4494 103.952 34.129C104.111 33.8087 104.336 33.5252 104.613 33.2971C105.121 32.7773 105.813 32.4741 106.543 32.4522C106.918 32.4597 107.288 32.5469 107.626 32.708C107.964 32.8691 108.263 33.1003 108.503 33.3858C108.997 33.854 109.289 34.4926 109.318 35.1685C109.322 35.5262 109.248 35.8805 109.103 36.2081C108.958 36.5358 108.745 36.8294 108.477 37.0696L108.473 37.0653Z" fill="#1FBAD6" stroke="#1FBAD6" stroke-width="0.640424" stroke-miterlimit="10"/>
<path d="M44.2132 36.9596C44.1039 36.8275 44.0068 36.6862 43.9228 36.5371C43.9641 37.3594 43.9527 38.1834 43.8887 39.0042C44.5419 39.6844 45.319 39.6632 45.9295 39.6632V37.8552C45.5942 37.8412 45.2662 37.7535 44.9694 37.5986C44.6725 37.4437 44.4142 37.2254 44.2132 36.9596Z" fill="#1FBAD6" stroke="#1FBAD6" stroke-width="0.640424" stroke-miterlimit="10"/>
<path d="M44.2136 35.3883C44.227 34.2098 43.8119 33.0658 43.0438 32.165C42.6629 31.7048 42.1921 31.3253 41.6595 31.0495C41.1268 30.7737 40.5434 30.6071 39.9442 30.5597C39.3547 30.5262 38.7647 30.614 38.2114 30.8176C37.658 31.0212 37.1533 31.3362 36.7292 31.7425C36.269 32.1121 35.888 32.5689 35.6086 33.0861C35.3293 33.6034 35.1572 34.1706 35.1026 34.7546C35.0649 35.3388 35.1481 35.9245 35.3471 36.4758C35.546 37.0271 35.8565 37.5325 36.2596 37.961C36.6257 38.4217 37.083 38.8036 37.6035 39.0833C38.124 39.3629 38.6968 39.5345 39.2867 39.5874C39.994 39.6265 40.696 39.4448 41.2933 39.0678C41.5825 38.8804 41.8579 38.6729 42.1173 38.4468L42.0789 39.1819C42.0535 39.5405 41.954 39.89 41.7865 40.209C41.6191 40.528 41.3873 40.8096 41.1055 41.0364C40.8416 41.2742 40.5309 41.4554 40.193 41.5688C39.855 41.6822 39.4971 41.7253 39.1415 41.6955C38.4878 41.6269 37.8813 41.3269 37.4337 40.8506L36.2212 42.0926C36.5405 42.4358 36.9175 42.7216 37.3355 42.9375C37.8388 43.2431 38.4048 43.4336 38.9921 43.4951C39.5842 43.5322 40.1777 43.4487 40.7359 43.2495C41.294 43.0504 41.8049 42.74 42.2369 42.3376C42.7031 41.9713 43.0892 41.515 43.3718 40.9965C43.6544 40.478 43.8275 39.908 43.8806 39.3213C43.8806 39.3213 44.2136 35.967 44.2136 35.3883ZM42.382 35.2996C42.3488 35.6497 42.2438 35.9895 42.0735 36.2981C41.9032 36.6068 41.6712 36.8779 41.3915 37.095C40.984 37.4321 40.4859 37.6443 39.9583 37.7053C39.4306 37.7663 38.8965 37.6736 38.4214 37.4386C37.9463 37.2035 37.5508 36.8363 37.2836 36.382C37.0164 35.9278 36.889 35.4062 36.9171 34.8813C37.0115 34.2236 37.3456 33.6227 37.8564 33.1915C38.1079 32.9127 38.4186 32.6924 38.7662 32.5463C39.1139 32.4003 39.4899 32.3321 39.8673 32.3466C40.2428 32.3866 40.6048 32.5076 40.9279 32.701C41.251 32.8945 41.5273 33.1556 41.7373 33.4661C42.1668 33.9818 42.3888 34.6362 42.3607 35.3038L42.382 35.2996Z" fill="#1FBAD6" stroke="#1FBAD6" stroke-width="0.640424" stroke-miterlimit="10"/>
</g>
<defs>
<clipPath id="clip0_1596_5898">
<rect width="150" height="42" fill="white" transform="translate(25 14)"/>
</clipPath>
</defs>
</svg>
