<svg width="622" height="333" viewBox="0 0 622 333" fill="none" xmlns="http://www.w3.org/2000/svg">
<path d="M28.2631 56.6816L6 8H554.494L621.701 165.633L554.494 323.266H6L20.5784 287.633V179.655L28.2631 56.6816Z" fill="white"/>
<path d="M0.886718 6.75903C46.5953 4.2641 92.3039 2.89057 138.013 1.85608C183.721 0.821595 229.421 0.308746 275.13 0.0566446C320.838 -0.195457 366.547 0.395677 412.255 1.79527C457.964 3.19487 503.673 4.64661 549.381 4.92479H551.181L551.867 6.5591C557.396 19.7205 562.873 32.9167 568.584 45.9999C574.296 59.0831 579.885 72.2358 585.684 85.2842C591.482 98.3327 597.272 111.364 603.192 124.403L620.865 163.444L621.639 165.183L620.865 167.13C610.294 193.67 599.897 220.28 589.178 246.76C578.46 273.239 567.611 299.657 556.657 326.032L554.684 330.796L549.381 330.848L480.818 331.5C457.964 331.683 435.11 332.048 412.255 331.987C366.547 332.178 320.838 331.735 275.13 331.231C183.721 329.962 92.3039 328.049 0.886718 323.781C0.694658 323.737 0.523172 323.629 0.400329 323.475C0.277485 323.321 0.21059 323.13 0.21059 322.933C0.21059 322.736 0.277485 322.545 0.400329 322.391C0.523172 322.237 0.694658 322.129 0.886718 322.086C92.3039 317.817 183.721 315.905 275.13 314.636C320.838 314.132 366.547 313.688 412.255 313.879C435.11 313.819 457.964 314.184 480.818 314.366L549.381 315.018L542.096 319.826C553.545 293.668 565.037 267.51 576.782 241.474C588.526 215.438 600.471 189.48 612.302 163.479V167.13L596.376 127.35C591.091 114.076 585.762 100.828 580.277 87.6401C574.791 74.4526 569.332 61.2564 563.76 48.1037C558.187 34.951 552.545 21.8417 546.869 8.73239L549.364 10.3754C503.655 10.6536 457.947 12.2444 412.238 13.5049C366.529 14.7654 320.821 15.4957 275.112 15.2436C229.404 14.9915 183.704 14.5308 137.995 13.4441C92.2865 12.3575 46.5779 11.0361 0.869315 8.54117C0.638758 8.54117 0.417657 8.44951 0.254629 8.28649C0.0916009 8.12346 0 7.90241 0 7.67185C0 7.4413 0.0916009 7.22014 0.254629 7.05711C0.417657 6.89409 0.638758 6.80254 0.869315 6.80254L0.886718 6.75903Z" fill="#1FBAD6"/>
</svg>
