<svg width="1175" height="332" viewBox="0 0 1175 332" fill="none" xmlns="http://www.w3.org/2000/svg">
<path d="M652.305 331.267H633.701H85.2067L18 173.634L85.2067 16.0015H633.701H648.227V173.634L652.305 331.267Z" fill="white"/>
<path d="M1173.93 323.23C1082.51 327.368 991.097 328.898 899.68 329.672C853.972 329.959 808.272 330.306 762.563 329.524C716.855 328.742 671.146 327.516 625.437 326.473C579.729 325.221 534.02 324.882 488.312 324.986C465.457 324.986 442.603 325.247 419.758 325.517L351.195 326.794C305.486 327.664 259.777 328.898 214.069 329.524C168.36 330.15 122.652 330.393 76.9431 330.811L71.4403 330.863L69.1888 325.647L52.0546 286.415C46.3606 273.323 40.597 260.257 35.0247 247.104L18.1861 207.716C12.5355 194.606 6.97481 181.454 1.50392 168.257L0 164.658L1.50392 161.233C12.918 135.058 24.1583 108.796 35.7375 82.682C47.3168 56.5678 58.7309 30.3927 70.4493 4.34804L72.414 0.00146484L76.9431 0.0797L134.483 1.16634L192.023 2.51379C211.2 2.99481 230.377 3.57435 249.554 4.25242C268.731 4.88702 287.917 5.47815 307.094 6.32139C307.314 6.33682 307.52 6.43517 307.67 6.59655C307.82 6.75794 307.903 6.97031 307.903 7.1907C307.889 7.40043 307.799 7.59791 307.65 7.74655C307.501 7.89519 307.304 7.98493 307.094 7.99916C287.917 8.86848 268.731 9.43354 249.554 10.0681C230.377 10.7027 211.2 11.3113 192.023 11.8068L134.483 13.1629L76.9431 14.2409L83.4456 9.94643C72.7617 36.4345 61.7996 62.8182 50.9506 89.2367C40.1015 115.655 28.9569 141.952 17.9774 168.344V161.233C23.6975 174.319 29.3394 187.437 34.903 200.587L51.6634 240.011C57.2966 253.137 62.7211 266.342 68.2326 279.521L84.7495 319.066L76.9866 313.937C122.695 314.346 168.404 314.607 214.112 315.224C259.821 315.841 305.53 317.049 351.238 317.954L419.801 319.231C442.647 319.51 465.501 319.744 488.355 319.762C534.064 319.866 579.772 319.536 625.481 318.275C671.19 317.232 716.898 316.015 762.607 315.224C808.315 314.433 854.015 314.798 899.724 315.076C991.141 315.85 1082.56 317.38 1173.98 321.526C1174.2 321.542 1174.4 321.64 1174.55 321.802C1174.7 321.963 1174.78 322.175 1174.78 322.396C1174.77 322.617 1174.68 322.827 1174.52 322.982C1174.37 323.137 1174.15 323.226 1173.93 323.23Z" fill="#1FBAD6"/>
</svg>
