<svg width="96" height="91" viewBox="0 0 96 91" fill="none" xmlns="http://www.w3.org/2000/svg">
<path d="M47.52 0L62.2 29.76L95.04 34.53L71.28 57.69L76.89 90.39L47.52 74.95L18.15 90.39L23.76 57.69L0 34.53L32.84 29.76L47.52 0Z" fill="white"/>
<path d="M32.3231 45.336L32.7391 43.096C33.4004 43.096 34.0297 43.0747 34.6271 43.032C35.2244 42.9893 35.7737 42.936 36.2751 42.872C36.7871 42.808 37.2297 42.7387 37.6031 42.664C37.9871 42.5893 38.2804 42.52 38.4831 42.456C38.8457 42.3387 39.1551 42.1947 39.4111 42.024C39.6671 41.8533 39.8644 41.6613 40.0031 41.448C40.1417 41.2347 40.2111 41.0213 40.2111 40.808C40.2111 40.6587 40.1844 40.5093 40.1311 40.36C40.0777 40.2107 40.0031 40.072 39.9071 39.944C39.8217 39.816 39.7151 39.7147 39.5871 39.64C39.4697 39.5547 39.3471 39.512 39.2191 39.512C39.0484 39.512 38.8777 39.576 38.7071 39.704C38.5471 39.832 38.4137 40.0027 38.3071 40.216C38.2111 40.4187 38.1631 40.648 38.1631 40.904C38.1631 41.0853 38.2164 41.2773 38.3231 41.48C38.4297 41.6827 38.5791 41.88 38.7711 42.072C38.9737 42.2533 39.2031 42.4133 39.4591 42.552L37.3311 43.368C37.0964 43.144 36.8724 42.9147 36.6591 42.68C36.4564 42.4347 36.2857 42.1627 36.1471 41.864C36.0191 41.5653 35.9551 41.2293 35.9551 40.856C35.9551 40.3653 36.0511 39.912 36.2431 39.496C36.4457 39.0693 36.7071 38.696 37.0271 38.376C37.3577 38.056 37.7151 37.8107 38.0991 37.64C38.4937 37.4587 38.8831 37.368 39.2671 37.368C39.8857 37.368 40.4297 37.5333 40.8991 37.864C41.3684 38.184 41.7364 38.6 42.0031 39.112C42.2804 39.624 42.4191 40.1627 42.4191 40.728C42.4191 41.2293 42.3231 41.6773 42.1311 42.072C41.9391 42.4667 41.6777 42.8133 41.3471 43.112C41.0271 43.4 40.6697 43.656 40.2751 43.88C39.8911 44.104 39.5017 44.296 39.1071 44.456C38.8297 44.5733 38.4457 44.6853 37.9551 44.792C37.4751 44.8987 36.9204 44.9893 36.2911 45.064C35.6724 45.1493 35.0217 45.2133 34.3391 45.256C33.6564 45.3093 32.9844 45.336 32.3231 45.336ZM43.3631 45.08C42.7444 45.08 42.1364 45.048 41.5391 44.984C40.9417 44.92 40.3871 44.824 39.8751 44.696C39.3737 44.568 38.9364 44.4133 38.5631 44.232L39.6671 42.504C39.9871 42.5893 40.3604 42.6587 40.7871 42.712C41.2244 42.7547 41.6777 42.7867 42.1471 42.808C42.6271 42.8293 43.0857 42.84 43.5231 42.84C43.9284 42.84 44.2164 42.9467 44.3871 43.16C44.5684 43.3627 44.6591 43.6187 44.6591 43.928C44.6591 44.2587 44.5471 44.536 44.3231 44.76C44.0991 44.9733 43.7791 45.08 43.3631 45.08ZM32.3231 45.336C31.1711 45.336 30.1951 45.2453 29.3951 45.064C28.6057 44.8933 27.9604 44.648 27.4591 44.328C26.9684 43.9973 26.6111 43.6133 26.3871 43.176C26.1631 42.7387 26.0511 42.2587 26.0511 41.736C26.0511 41.3947 26.0777 41.0533 26.1311 40.712C26.1951 40.36 26.2697 40.0187 26.3551 39.688C26.4511 39.3573 26.5364 39.0587 26.6111 38.792L28.6111 39.256C28.5684 39.448 28.5204 39.656 28.4671 39.88C28.4137 40.104 28.3711 40.3227 28.3391 40.536C28.3071 40.7387 28.2911 40.9253 28.2911 41.096C28.2911 41.4907 28.4297 41.8427 28.7071 42.152C28.9951 42.4507 29.4644 42.6853 30.1151 42.856C30.7657 43.016 31.6404 43.096 32.7391 43.096L33.0591 44.824L32.3231 45.336ZM39.2831 35.88C38.9524 35.88 38.6697 35.768 38.4351 35.544C38.2111 35.32 38.0991 35.0427 38.0991 34.712C38.0991 34.3813 38.2111 34.0987 38.4351 33.864C38.6697 33.6293 38.9524 33.512 39.2831 33.512C39.6031 33.512 39.8751 33.6293 40.0991 33.864C40.3337 34.0987 40.4511 34.3813 40.4511 34.712C40.4511 35.0427 40.3337 35.32 40.0991 35.544C39.8751 35.768 39.6031 35.88 39.2831 35.88ZM43.3828 45.08L43.5428 42.84C43.9268 42.84 44.2575 42.8027 44.5348 42.728C44.8121 42.6533 45.0468 42.504 45.2388 42.28C45.4308 42.0453 45.5908 41.704 45.7188 41.256C45.8575 40.808 45.9801 40.2107 46.0868 39.464L48.1828 39.816C48.1615 39.976 48.1295 40.1627 48.0868 40.376C48.0548 40.5893 48.0228 40.808 47.9908 41.032C47.9695 41.2453 47.9588 41.448 47.9588 41.64C47.9588 41.832 47.9961 42.0027 48.0708 42.152C48.1455 42.3013 48.2628 42.4293 48.4228 42.536C48.5935 42.632 48.8121 42.7067 49.0788 42.76C49.3561 42.8133 49.6921 42.84 50.0868 42.84C50.4921 42.84 50.7801 42.9467 50.9508 43.16C51.1215 43.3627 51.2068 43.6187 51.2068 43.928C51.2068 44.2587 51.0948 44.536 50.8708 44.76C50.6575 44.9733 50.3428 45.08 49.9268 45.08C49.4468 45.08 49.0095 45.0427 48.6148 44.968C48.2308 44.8933 47.8948 44.7707 47.6068 44.6C47.3295 44.4187 47.1001 44.184 46.9188 43.896C46.7481 43.5973 46.6415 43.2347 46.5988 42.808H47.3668C47.1748 43.32 46.9295 43.7307 46.6308 44.04C46.3428 44.3387 46.0175 44.5627 45.6548 44.712C45.2921 44.8613 44.9135 44.9573 44.5188 45C44.1348 45.0533 43.7561 45.08 43.3828 45.08ZM47.8468 48.792C47.5375 48.792 47.2708 48.68 47.0468 48.456C46.8335 48.2427 46.7268 47.9867 46.7268 47.688C46.7268 47.3787 46.8335 47.112 47.0468 46.888C47.2708 46.664 47.5375 46.552 47.8468 46.552C48.1455 46.552 48.4015 46.664 48.6148 46.888C48.8281 47.112 48.9348 47.3787 48.9348 47.688C48.9348 47.9867 48.8281 48.2427 48.6148 48.456C48.4015 48.68 48.1455 48.792 47.8468 48.792ZM45.0788 48.792C44.7695 48.792 44.5028 48.68 44.2788 48.456C44.0655 48.2427 43.9588 47.9867 43.9588 47.688C43.9588 47.3787 44.0655 47.112 44.2788 46.888C44.5028 46.664 44.7695 46.552 45.0788 46.552C45.3775 46.552 45.6335 46.664 45.8468 46.888C46.0601 47.112 46.1668 47.3787 46.1668 47.688C46.1668 47.9867 46.0601 48.2427 45.8468 48.456C45.6335 48.68 45.3775 48.792 45.0788 48.792ZM49.9297 45.08L50.0897 42.856C50.5057 42.8667 50.8897 42.8613 51.2417 42.84C51.5937 42.8187 51.9084 42.7867 52.1857 42.744C52.4737 42.7013 52.7244 42.6533 52.9377 42.6C53.1617 42.5467 53.3484 42.4987 53.4977 42.456C53.8604 42.3387 54.1697 42.2 54.4257 42.04C54.6817 41.8693 54.879 41.6773 55.0177 41.464C55.1564 41.2507 55.2257 41.0213 55.2257 40.776C55.2257 40.584 55.183 40.392 55.0977 40.2C55.023 39.9973 54.911 39.832 54.7617 39.704C54.6124 39.576 54.4364 39.512 54.2337 39.512C54.0417 39.512 53.8657 39.5707 53.7057 39.688C53.5457 39.8053 53.4177 39.9653 53.3217 40.168C53.2257 40.36 53.1777 40.584 53.1777 40.84C53.1777 41.064 53.231 41.2773 53.3377 41.48C53.4444 41.672 53.5937 41.8587 53.7857 42.04C53.9777 42.2213 54.207 42.392 54.4737 42.552L52.3457 43.368C52.111 43.144 51.887 42.904 51.6737 42.648C51.471 42.392 51.3004 42.104 51.1617 41.784C51.0337 41.4533 50.9697 41.0853 50.9697 40.68C50.9697 40.1893 51.0657 39.7413 51.2577 39.336C51.4497 38.9307 51.7057 38.584 52.0257 38.296C52.3457 37.9973 52.703 37.768 53.0977 37.608C53.4924 37.448 53.887 37.368 54.2817 37.368C54.9217 37.368 55.4764 37.5173 55.9457 37.816C56.415 38.1147 56.7777 38.504 57.0337 38.984C57.3004 39.464 57.4337 39.9867 57.4337 40.552C57.4337 41.0747 57.3377 41.544 57.1457 41.96C56.9537 42.3653 56.6924 42.728 56.3617 43.048C56.0417 43.3573 55.6844 43.6293 55.2897 43.864C54.9057 44.0987 54.5164 44.296 54.1217 44.456C53.9297 44.5413 53.6897 44.6213 53.4017 44.696C53.1137 44.7707 52.7884 44.84 52.4257 44.904C52.063 44.9573 51.6737 45 51.2577 45.032C50.8417 45.064 50.399 45.08 49.9297 45.08ZM58.3777 45.08C57.759 45.08 57.151 45.048 56.5537 44.984C55.9564 44.92 55.4017 44.824 54.8897 44.696C54.3884 44.568 53.951 44.4133 53.5777 44.232L54.6817 42.504C55.0017 42.5893 55.375 42.6587 55.8017 42.712C56.239 42.7547 56.6924 42.7867 57.1617 42.808C57.6417 42.8293 58.1004 42.84 58.5377 42.84C58.943 42.84 59.231 42.9467 59.4017 43.16C59.583 43.3627 59.6737 43.6187 59.6737 43.928C59.6737 44.2587 59.5617 44.536 59.3377 44.76C59.1137 44.9733 58.7937 45.08 58.3777 45.08ZM54.2977 35.88C53.967 35.88 53.6844 35.768 53.4497 35.544C53.2257 35.32 53.1137 35.0427 53.1137 34.712C53.1137 34.3813 53.2257 34.0987 53.4497 33.864C53.6844 33.6293 53.967 33.512 54.2977 33.512C54.6177 33.512 54.8897 33.6293 55.1137 33.864C55.3484 34.0987 55.4657 34.3813 55.4657 34.712C55.4657 35.0427 55.3484 35.32 55.1137 35.544C54.8897 35.768 54.6177 35.88 54.2977 35.88ZM68.8624 45.08C68.3718 45.08 67.9131 45.0427 67.4864 44.968C67.0704 44.8933 66.6864 44.7653 66.3344 44.584C65.9824 44.392 65.6678 44.1307 65.3904 43.8C65.1238 43.4693 64.8998 43.0533 64.7184 42.552L65.9824 41.544C66.1744 41.8853 66.4091 42.152 66.6864 42.344C66.9638 42.5253 67.2944 42.6533 67.6784 42.728C68.0624 42.8027 68.5104 42.84 69.0224 42.84C69.4278 42.84 69.7158 42.9467 69.8864 43.16C70.0571 43.3627 70.1424 43.6187 70.1424 43.928C70.1424 44.2587 70.0304 44.536 69.8064 44.76C69.5931 44.9733 69.2784 45.08 68.8624 45.08ZM58.3984 45.08L58.5584 42.84C59.1344 42.84 59.7051 42.808 60.2704 42.744C60.8358 42.68 61.3851 42.584 61.9184 42.456C62.4518 42.328 62.9584 42.1627 63.4384 41.96C63.9291 41.7573 64.3878 41.512 64.8144 41.224C64.4944 41.032 64.1478 40.8667 63.7744 40.728C63.4011 40.5893 63.0011 40.488 62.5744 40.424C62.1584 40.3493 61.7158 40.312 61.2464 40.312C61.0758 40.312 60.8944 40.3173 60.7024 40.328C60.5211 40.3387 60.3344 40.36 60.1424 40.392C59.9504 40.4133 59.7584 40.4453 59.5664 40.488L59.2464 38.296C59.5558 38.2107 59.8811 38.152 60.2224 38.12C60.5744 38.0773 60.8838 38.056 61.1504 38.056C61.7264 38.056 62.2544 38.12 62.7344 38.248C63.2251 38.376 63.6731 38.536 64.0784 38.728C64.4944 38.92 64.8784 39.112 65.2304 39.304C65.5931 39.496 65.9344 39.656 66.2544 39.784C66.5851 39.912 66.9051 39.976 67.2144 39.976H67.8064L68.0624 42.104C67.6038 42.1253 67.1718 42.216 66.7664 42.376C66.3718 42.5253 65.9771 42.7173 65.5824 42.952C65.1984 43.176 64.7824 43.4107 64.3344 43.656C63.8971 43.9013 63.4011 44.1307 62.8464 44.344C62.2918 44.5573 61.6518 44.7333 60.9264 44.872C60.2011 45.0107 59.3584 45.08 58.3984 45.08ZM61.1504 36.408C60.8198 36.408 60.5371 36.296 60.3024 36.072C60.0784 35.848 59.9664 35.5707 59.9664 35.24C59.9664 34.9093 60.0784 34.6267 60.3024 34.392C60.5371 34.1573 60.8198 34.04 61.1504 34.04C61.4704 34.04 61.7424 34.1573 61.9664 34.392C62.2011 34.6267 62.3184 34.9093 62.3184 35.24C62.3184 35.5707 62.2011 35.848 61.9664 36.072C61.7424 36.296 61.4704 36.408 61.1504 36.408ZM68.8672 45.08L69.0272 42.84C69.6672 42.84 70.1579 42.808 70.4992 42.744C70.8405 42.68 71.0752 42.5627 71.2032 42.392C71.3419 42.2107 71.4112 41.9547 71.4112 41.624C71.4112 41.3253 71.3685 40.968 71.2832 40.552C71.2085 40.136 71.1072 39.704 70.9792 39.256C70.8619 38.808 70.7339 38.3973 70.5952 38.024L72.8032 37.416C72.9419 37.7787 73.0752 38.2 73.2032 38.68C73.3312 39.16 73.4379 39.656 73.5232 40.168C73.6085 40.6693 73.6512 41.1547 73.6512 41.624C73.6512 42.3493 73.5339 42.9413 73.2992 43.4C73.0645 43.848 72.7339 44.1947 72.3072 44.44C71.8912 44.6853 71.3899 44.856 70.8032 44.952C70.2165 45.0373 69.5712 45.08 68.8672 45.08ZM73.2032 36.12C72.8939 36.12 72.6272 36.0133 72.4032 35.8C72.1899 35.576 72.0832 35.3147 72.0832 35.016C72.0832 34.7067 72.1899 34.44 72.4032 34.216C72.6272 33.992 72.8939 33.88 73.2032 33.88C73.5019 33.88 73.7579 33.992 73.9712 34.216C74.1845 34.44 74.2912 34.7067 74.2912 35.016C74.2912 35.3147 74.1845 35.576 73.9712 35.8C73.7579 36.0133 73.5019 36.12 73.2032 36.12ZM70.4352 36.104C70.1259 36.104 69.8592 35.9973 69.6352 35.784C69.4219 35.56 69.3152 35.2987 69.3152 35C69.3152 34.6907 69.4219 34.424 69.6352 34.2C69.8592 33.976 70.1259 33.864 70.4352 33.864C70.7339 33.864 70.9899 33.976 71.2032 34.2C71.4165 34.424 71.5232 34.6907 71.5232 35C71.5232 35.2987 71.4165 35.56 71.2032 35.784C70.9899 35.9973 70.7339 36.104 70.4352 36.104Z" fill="#662D91"/>
<path d="M37.6618 64.048C37.0644 64.048 36.5258 63.9467 36.0458 63.744C35.5764 63.5307 35.2031 63.216 34.9258 62.8C34.6591 62.3733 34.5258 61.8453 34.5258 61.216C34.5258 60.5867 34.7391 59.888 35.1658 59.12C35.5924 58.3413 36.3071 57.5627 37.3098 56.784L37.1498 58.256L35.7098 57.136L37.2138 55.296C38.0244 55.9147 38.7178 56.5173 39.2938 57.104C39.8804 57.68 40.3284 58.272 40.6378 58.88C40.9471 59.488 41.1018 60.1333 41.1018 60.816C41.1018 61.1467 41.0484 61.504 40.9418 61.888C40.8351 62.2613 40.6538 62.6133 40.3978 62.944C40.1418 63.264 39.7898 63.5307 39.3418 63.744C38.9044 63.9467 38.3444 64.048 37.6618 64.048ZM37.8378 61.84C38.1044 61.84 38.3178 61.7867 38.4778 61.68C38.6484 61.5733 38.7764 61.4347 38.8618 61.264C38.9471 61.0933 38.9898 60.912 38.9898 60.72C38.9898 60.528 38.9471 60.32 38.8618 60.096C38.7764 59.872 38.6111 59.6213 38.3658 59.344C38.1204 59.0667 37.7578 58.7467 37.2778 58.384L38.4938 58.224C38.0564 58.5227 37.7044 58.8267 37.4378 59.136C37.1711 59.4453 36.9791 59.744 36.8618 60.032C36.7551 60.3093 36.7018 60.5653 36.7018 60.8C36.7018 61.1413 36.8138 61.4027 37.0378 61.584C37.2618 61.7547 37.5284 61.84 37.8378 61.84ZM41.2404 67.696L40.4244 65.712C40.9897 65.52 41.507 65.296 41.9764 65.04C42.4564 64.784 42.8724 64.5013 43.2244 64.192C43.5764 63.8827 43.8484 63.5467 44.0404 63.184C44.2324 62.8107 44.3284 62.4107 44.3284 61.984C44.3284 61.536 44.227 61.0453 44.0244 60.512C43.8217 59.9787 43.5764 59.4347 43.2884 58.88L45.3844 57.872C45.5764 58.2027 45.7417 58.56 45.8804 58.944C46.0297 59.3173 46.1524 59.6533 46.2484 59.952C46.3444 60.2507 46.4084 60.4533 46.4404 60.56C46.5897 61.072 46.7924 61.4133 47.0484 61.584C47.315 61.7547 47.7417 61.84 48.3284 61.84C48.7337 61.84 49.0217 61.9467 49.1924 62.16C49.3737 62.3627 49.4644 62.6187 49.4644 62.928C49.4644 63.2587 49.3524 63.536 49.1284 63.76C48.9044 63.9733 48.5844 64.08 48.1684 64.08C47.731 64.08 47.347 64.016 47.0164 63.888C46.6857 63.76 46.419 63.5733 46.2164 63.328C46.0244 63.0827 45.9017 62.7947 45.8484 62.464L46.4404 62.8C46.3764 63.3653 46.1897 63.8987 45.8804 64.4C45.5817 64.912 45.1924 65.3813 44.7124 65.808C44.2324 66.2347 43.6937 66.608 43.0964 66.928C42.499 67.248 41.8804 67.504 41.2404 67.696ZM44.6164 54.128C44.3497 54.128 44.115 54.0267 43.9124 53.824C43.7204 53.6213 43.6244 53.3813 43.6244 53.104C43.6244 52.8267 43.7204 52.592 43.9124 52.4C44.115 52.208 44.3497 52.112 44.6164 52.112C44.8937 52.112 45.1284 52.208 45.3204 52.4C45.5124 52.592 45.6084 52.8267 45.6084 53.104C45.6084 53.3813 45.5124 53.6213 45.3204 53.824C45.1284 54.0267 44.8937 54.128 44.6164 54.128ZM43.3364 56.24C43.0697 56.24 42.835 56.1387 42.6324 55.936C42.4404 55.7333 42.3444 55.4933 42.3444 55.216C42.3444 54.9387 42.4404 54.704 42.6324 54.512C42.835 54.32 43.0697 54.224 43.3364 54.224C43.6137 54.224 43.8484 54.32 44.0404 54.512C44.2324 54.704 44.3284 54.9387 44.3284 55.216C44.3284 55.4933 44.2324 55.7333 44.0404 55.936C43.8484 56.1387 43.6137 56.24 43.3364 56.24ZM45.8164 56.24C45.5497 56.24 45.315 56.1387 45.1124 55.936C44.9204 55.7333 44.8244 55.4933 44.8244 55.216C44.8244 54.9387 44.9204 54.704 45.1124 54.512C45.315 54.32 45.5497 54.224 45.8164 54.224C46.0937 54.224 46.3284 54.32 46.5204 54.512C46.7124 54.704 46.8084 54.9387 46.8084 55.216C46.8084 55.4933 46.7124 55.7333 46.5204 55.936C46.3284 56.1387 46.0937 56.24 45.8164 56.24ZM48.1875 64.08L48.3475 61.84C48.9875 61.84 49.4782 61.808 49.8195 61.744C50.1608 61.68 50.3955 61.5627 50.5235 61.392C50.6622 61.2107 50.7315 60.9547 50.7315 60.624C50.7315 60.3253 50.6888 59.968 50.6035 59.552C50.5288 59.136 50.4275 58.704 50.2995 58.256C50.1822 57.808 50.0542 57.3973 49.9155 57.024L52.1235 56.416C52.2622 56.7787 52.3955 57.2 52.5235 57.68C52.6515 58.16 52.7582 58.656 52.8435 59.168C52.9288 59.6693 52.9715 60.1547 52.9715 60.624C52.9715 61.3493 52.8542 61.9413 52.6195 62.4C52.3848 62.848 52.0542 63.1947 51.6275 63.44C51.2115 63.6853 50.7102 63.856 50.1235 63.952C49.5368 64.0373 48.8915 64.08 48.1875 64.08ZM52.1395 67.792C51.8302 67.792 51.5635 67.68 51.3395 67.456C51.1262 67.2427 51.0195 66.9867 51.0195 66.688C51.0195 66.3787 51.1262 66.112 51.3395 65.888C51.5635 65.664 51.8302 65.552 52.1395 65.552C52.4382 65.552 52.6942 65.664 52.9075 65.888C53.1208 66.112 53.2275 66.3787 53.2275 66.688C53.2275 66.9867 53.1208 67.2427 52.9075 67.456C52.6942 67.68 52.4382 67.792 52.1395 67.792ZM49.3715 67.792C49.0622 67.792 48.7955 67.68 48.5715 67.456C48.3582 67.2427 48.2515 66.9867 48.2515 66.688C48.2515 66.3787 48.3582 66.112 48.5715 65.888C48.7955 65.664 49.0622 65.552 49.3715 65.552C49.6702 65.552 49.9262 65.664 50.1395 65.888C50.3528 66.112 50.4595 66.3787 50.4595 66.688C50.4595 66.9867 50.3528 67.2427 50.1395 67.456C49.9262 67.68 49.6702 67.792 49.3715 67.792ZM54.8495 67.68L54.3855 65.44C55.1428 65.344 55.8042 65.2267 56.3695 65.088C56.9348 64.96 57.4095 64.7787 57.7935 64.544C58.1775 64.3093 58.4655 63.9893 58.6575 63.584C58.8495 63.168 58.9455 62.6347 58.9455 61.984C58.9455 61.7493 58.9242 61.5147 58.8815 61.28C58.8388 61.0347 58.7748 60.8107 58.6895 60.608C58.6042 60.4053 58.4922 60.24 58.3535 60.112C58.2255 59.984 58.0708 59.92 57.8895 59.92C57.6975 59.92 57.5268 59.9893 57.3775 60.128C57.2282 60.256 57.1108 60.4213 57.0255 60.624C56.9402 60.816 56.8975 61.0133 56.8975 61.216C56.8975 61.3653 56.9348 61.4933 57.0095 61.6C57.0842 61.696 57.1962 61.7707 57.3455 61.824C57.4948 61.8667 57.6815 61.888 57.9055 61.888C58.1615 61.888 58.4228 61.8613 58.6895 61.808C58.9668 61.744 59.2175 61.6587 59.4415 61.552L59.5055 63.296C59.2495 63.4987 58.9562 63.68 58.6255 63.84C58.2948 63.9893 57.8948 64.064 57.4255 64.064C57.0415 64.064 56.6842 64.0213 56.3535 63.936C56.0228 63.84 55.7295 63.696 55.4735 63.504C55.2282 63.312 55.0362 63.0667 54.8975 62.768C54.7588 62.4587 54.6895 62.0907 54.6895 61.664C54.6895 61.1413 54.7748 60.6347 54.9455 60.144C55.1162 59.6533 55.3508 59.216 55.6495 58.832C55.9588 58.4373 56.3108 58.128 56.7055 57.904C57.1108 57.6693 57.5375 57.552 57.9855 57.552C58.5188 57.552 58.9828 57.6853 59.3775 57.952C59.7828 58.2187 60.1188 58.5707 60.3855 59.008C60.6522 59.4347 60.8548 59.8987 60.9935 60.4C61.1322 60.9013 61.2015 61.3813 61.2015 61.84C61.2015 63.0453 60.9455 64.0693 60.4335 64.912C59.9215 65.7547 59.1908 66.4053 58.2415 66.864C57.2922 67.3333 56.1615 67.6053 54.8495 67.68Z" fill="#464B51"/>
</svg>
