<svg width="1169" height="332" viewBox="0 0 1169 332" fill="none" xmlns="http://www.w3.org/2000/svg">
<path d="M574.263 56.6816L552 8H1100.49L1167.7 165.633L1100.49 323.266H552L566.578 287.633V179.655L574.263 56.6816Z" fill="white"/>
<path d="M549.312 6.78684C595.02 4.99605 640.729 3.68051 686.437 2.84017C732.146 1.89551 777.852 1.20876 823.554 0.779897C846.406 0.495921 869.26 0.322026 892.117 0.258276C914.972 0.188731 937.826 -0.0633425 960.68 0.0148958C1006.39 0.0148958 1052.1 0.507465 1097.81 1.49269L1101.99 1.57965L1103.46 5.23079L1135.53 84.7036L1151.58 124.44C1156.87 137.714 1162.41 150.867 1167.83 164.089L1168.33 165.315L1167.83 166.454C1162.03 179.499 1156.33 192.591 1150.72 205.73C1145.1 218.856 1139.34 231.931 1133.82 245.101L1117.14 284.559L1100.68 324.113L1099.92 325.947H1097.85L960.68 328.164C914.972 329.033 869.263 329.903 823.554 330.25L686.437 331.285C640.729 331.589 595.02 332.032 549.312 331.945C457.894 332.032 366.477 331.207 275.069 329.946C229.36 329.39 183.652 328.346 137.943 327.434L103.666 326.738L69.38 325.799C46.5257 325.165 23.6715 324.574 0.81716 323.722C0.595761 323.708 0.387839 323.611 0.235927 323.449C0.0840155 323.288 -0.000398163 323.074 1.4121e-06 322.852C0.0124211 322.64 0.102507 322.439 0.253145 322.288C0.403783 322.138 0.604488 322.048 0.81716 322.035C23.6715 321.166 46.5257 320.592 69.38 319.966L103.666 319.019L137.943 318.323C183.652 317.454 229.36 316.367 275.069 315.82C366.477 314.559 457.894 313.725 549.312 313.812C595.02 313.733 640.729 314.177 686.437 314.472L823.554 315.507C869.263 315.889 914.972 316.741 960.68 317.602L1097.81 319.801L1094.97 321.679L1112.11 282.412L1129.03 243.058C1134.72 229.957 1140.16 216.753 1145.74 203.608C1151.32 190.464 1156.83 177.294 1162.26 164.072V166.471C1156.47 153.432 1150.81 140.305 1144.87 127.3L1127.29 88.233L1092.15 10.0815L1097.81 13.8196C1052.1 14.8106 1006.39 15.3004 960.68 15.2888C937.826 15.367 914.972 15.1149 892.117 15.0453C869.263 14.9758 846.409 14.8106 823.554 14.5238C777.846 14.1007 732.14 13.4139 686.437 12.4635C640.735 11.513 595.026 10.1974 549.312 8.51677C549.081 8.51677 548.86 8.42517 548.697 8.26214C548.534 8.09911 548.442 7.87801 548.442 7.64745C548.442 7.4169 548.534 7.1958 548.697 7.03277C548.86 6.86974 549.081 6.77814 549.312 6.77814V6.78684Z" fill="#1FBAD6"/>
</svg>
