<svg width="1175" height="332" viewBox="0 0 1175 332" fill="none" xmlns="http://www.w3.org/2000/svg">
<path d="M652.305 331.267H633.701H85.2067L18 173.634L85.2067 16.001H633.701H648.227V173.634L652.305 331.267Z" fill="white"/>
<path d="M1173.93 323.23C1082.51 327.368 991.097 328.898 899.68 329.671C853.972 329.958 808.272 330.306 762.563 329.524C716.855 328.741 671.146 327.515 625.437 326.472C579.729 325.22 534.02 324.881 488.312 324.986C465.457 324.986 442.603 325.247 419.758 325.516L351.195 326.794C305.486 327.663 259.777 328.898 214.069 329.524C168.36 330.15 122.652 330.393 76.9431 330.81L71.4403 330.862L69.1888 325.646L52.0546 286.414C46.3606 273.322 40.597 260.257 35.0247 247.104L18.1861 207.715C12.5355 194.606 6.97481 181.453 1.50392 168.257L0 164.658L1.50392 161.233C12.918 135.058 24.1583 108.796 35.7375 82.6815C47.3168 56.5673 58.7309 30.3922 70.4493 4.34755L72.414 0.000976562L76.9431 0.0792117L134.483 1.16586L192.023 2.5133C211.2 2.99432 230.377 3.57386 249.554 4.25193C268.731 4.88653 287.917 5.47767 307.094 6.3209C307.314 6.33633 307.52 6.43468 307.67 6.59606C307.82 6.75745 307.903 6.96983 307.903 7.19022C307.889 7.39995 307.799 7.59742 307.65 7.74606C307.501 7.8947 307.304 7.98444 307.094 7.99867C287.917 8.86799 268.731 9.43305 249.554 10.0676C230.377 10.7022 211.2 11.3108 192.023 11.8063L134.483 13.1624L76.9431 14.2404L83.4456 9.94594C72.7617 36.434 61.7996 62.8177 50.9506 89.2362C40.1015 115.655 28.9569 141.951 17.9774 168.344V161.233C23.6975 174.319 29.3394 187.437 34.903 200.587L51.6634 240.01C57.2966 253.137 62.7211 266.342 68.2326 279.521L84.7495 319.066L76.9866 313.937C122.695 314.345 168.404 314.606 214.112 315.223C259.821 315.841 305.53 317.049 351.238 317.953L419.801 319.231C442.647 319.509 465.501 319.744 488.355 319.761C534.064 319.865 579.772 319.535 625.481 318.275C671.19 317.231 716.898 316.014 762.607 315.223C808.315 314.432 854.015 314.797 899.724 315.076C991.141 315.849 1082.56 317.379 1173.98 321.526C1174.2 321.541 1174.4 321.64 1174.55 321.801C1174.7 321.962 1174.78 322.175 1174.78 322.395C1174.77 322.617 1174.68 322.826 1174.52 322.982C1174.37 323.137 1174.15 323.225 1173.93 323.23Z" fill="#1FBAD6"/>
</svg>
