<svg width="118" height="128" viewBox="0 0 118 128" fill="none" xmlns="http://www.w3.org/2000/svg">
<path d="M115.892 79.0914L111.61 78.6479C111.484 78.3304 111.353 78.0073 111.205 77.6788L113.931 74.3552C114.643 73.4846 114.583 72.2144 113.784 71.4148L107.032 64.6637C106.239 63.8698 104.974 63.8041 104.109 64.5104L100.758 67.2262C100.451 67.0893 100.134 66.9579 99.8105 66.832L99.367 62.5447C99.252 61.4277 98.3102 60.5791 97.1878 60.5791H87.6441C86.5217 60.5791 85.5798 61.4278 85.4649 62.5447L85.0269 66.821C84.6929 66.947 84.3643 67.0838 84.0468 67.2262L80.7341 64.5159C79.8581 63.8041 78.5933 63.8643 77.7992 64.6637L71.0481 71.4149C70.2542 72.2088 70.1885 73.4737 70.8948 74.3441L73.6051 77.6786C73.4682 77.9908 73.3313 78.3138 73.2054 78.6478L68.9236 79.0913C67.8066 79.2063 66.958 80.1481 66.958 81.2705V90.7814C66.958 91.9038 67.8067 92.8456 68.9236 92.9606L73.2054 93.4041C73.3313 93.7381 73.4682 94.0557 73.6051 94.3733L70.8948 97.7078C70.1884 98.5784 70.2542 99.8431 71.0481 100.637L77.7992 107.388C78.5932 108.182 79.8581 108.242 80.7341 107.536L84.0468 104.826C84.3643 104.968 84.6929 105.105 85.0269 105.231L85.4649 109.507C85.5799 110.624 86.5217 111.473 87.6441 111.473H97.1878C98.3102 111.473 99.2521 110.624 99.367 109.507L99.8105 105.22C100.134 105.094 100.451 104.963 100.758 104.826L104.109 107.542C104.974 108.248 106.239 108.182 107.032 107.388L113.784 100.637C114.578 99.8376 114.643 98.5673 113.931 97.6967L111.205 94.3731C111.353 94.0446 111.489 93.7216 111.61 93.404L115.892 92.9605C117.009 92.8455 117.857 91.9037 117.857 90.7812V81.2704C117.857 80.1479 117.009 79.2064 115.892 79.0914ZM113.477 88.8048L109.776 89.1881C108.894 89.2812 108.155 89.8944 107.903 90.7377C107.657 92.3365 105.527 94.3898 106.928 96.0598L109.288 98.9344L105.335 102.888C103.545 101.656 101.902 99.2246 99.9857 100.314C98.6716 101.289 95.7915 101.234 95.589 103.386L95.2057 107.087H89.6153L89.232 103.386C89.0185 101.212 86.1439 101.3 84.7969 100.314C84.0194 99.8872 83.0502 99.9693 82.3549 100.539L79.4802 102.888L75.527 98.9345L77.8651 96.0599C79.2284 94.264 77.2463 92.605 76.8685 90.6886C76.6002 89.8672 75.872 89.2814 75.0124 89.1938L71.3275 88.8105V83.253L75.0124 82.8698C75.872 82.7822 76.5948 82.1963 76.8685 81.375C77.2463 79.4586 79.2284 77.7995 77.8651 76.0037L75.527 73.1236L79.4802 69.1704L82.3549 71.5193C84.1507 72.9046 85.7824 70.8842 87.6988 70.5392C88.5366 70.2819 89.1388 69.5427 89.232 68.6722L89.6153 64.9708H95.2057L95.589 68.6722C95.6766 69.5373 96.2734 70.2709 97.1056 70.5338C99.022 70.9006 100.626 72.8937 102.422 71.5248L105.335 69.1649L109.288 73.1181L106.928 75.9927C105.527 77.6627 107.651 79.7159 107.903 81.3149C108.155 82.1635 108.894 82.7768 109.776 82.8644L113.477 83.2477V88.8048Z" fill="#464B51"/>
<path d="M102.044 81.7196C100.861 81.9769 100.117 83.1486 100.374 84.3314C100.5 84.9008 100.56 85.4703 100.56 86.0178C100.177 96.8482 84.6159 96.8482 84.222 86.0342C84.096 79.8142 91.3784 75.6748 96.6018 79.0093C99.0876 80.4603 101.311 76.7918 98.8686 75.2641C90.8416 70.1556 79.6443 76.4742 79.8419 86.0397C80.499 102.668 104.295 102.662 104.941 86.0287C105.007 84.1835 104.547 81.2049 102.039 81.7251L102.044 81.7196Z" fill="#464B51"/>
<path d="M29.917 29.4684L37.057 28.7237C37.9166 28.6361 38.6448 28.0448 38.9131 27.218C39.2909 24.8527 41.8753 22.7884 40.4133 20.6969L36.7722 16.2071L43.1565 9.82276L47.6463 13.464C48.3362 14.0225 49.2999 14.1101 50.0774 13.683C51.6762 12.3853 55.3119 12.5879 55.6733 10.1239L56.2591 4.38017H65.2935L65.8794 10.1239C65.967 11 66.5748 11.7391 67.418 11.9965C69.6958 12.2921 71.7984 14.9368 73.9064 13.4639L78.3962 9.82269L84.7805 16.207L81.1393 20.6968C79.6664 22.7336 82.3494 25.0771 82.5793 27.1633C82.8311 28.012 83.5703 28.6253 84.4518 28.7183L90.201 29.3206V38.3386L84.4573 38.9245C83.5703 39.0121 82.8255 39.6308 82.5793 40.4905C82.3603 42.5821 79.6664 44.9256 81.1393 46.9734L84.7805 51.4631L78.3962 57.8475L73.9064 54.1899C73.222 53.6314 72.2747 53.5383 71.4971 53.9544C69.7231 55.3123 66.2845 55.044 65.8739 57.5244L65.1293 64.7958C64.8774 67.632 69.1373 68.1248 69.4877 65.2447L70.09 59.3751C70.8073 59.1123 71.5245 58.8111 72.2363 58.4771L77.1641 62.4906C78.0347 63.197 79.2995 63.1367 80.099 62.3428L89.2758 53.166C90.0698 52.3721 90.1355 51.1072 89.4291 50.2367L85.432 45.3089C85.766 44.5916 86.0617 43.8689 86.3245 43.1406L92.6158 42.4945C93.7328 42.3795 94.5814 41.4378 94.5814 40.3153V27.3495C94.5814 26.2271 93.7327 25.2907 92.6213 25.1703L86.3191 24.5078C86.0563 23.785 85.7606 23.0678 85.4321 22.3559L89.4292 17.4281C90.1355 16.5575 90.0698 15.2927 89.2758 14.4988L80.099 5.32198C79.3051 4.52805 78.0402 4.46235 77.1698 5.16866L72.2474 9.16029C71.552 8.83724 70.8348 8.5361 70.0955 8.2678L69.4494 1.96561C69.3344 0.848619 68.3926 0 67.2702 0H54.2826C53.1601 0 52.2183 0.848689 52.1033 1.96561L51.4572 8.27327C50.7126 8.54157 49.9953 8.84271 49.2999 9.16576L44.3775 5.17413C43.5069 4.4678 42.2422 4.53351 41.4482 5.32745L32.2714 14.5043C31.4775 15.2982 31.4118 16.5631 32.1181 17.4335L36.1097 22.3559C35.7867 23.0403 35.491 23.7521 35.2063 24.5133L29.4516 25.1155C26.6209 25.4605 27.0096 29.7039 29.9061 29.474L29.917 29.4684Z" fill="#464B51"/>
<path d="M66.5211 45.9651C64.194 46.666 64.7252 50.2742 67.1891 50.2414C74.0991 48.1607 78.5561 40.9058 78.5779 33.8373C78.5779 23.9926 70.5893 15.988 60.7721 15.988C53.1394 15.988 46.3766 20.8392 43.9348 28.0559C43.0643 30.8045 47.1105 32.1734 48.0851 29.4576C49.9249 24.0205 55.0224 20.3684 60.7717 20.3684C74.9527 20.4395 79.35 39.7724 66.5211 45.9651Z" fill="#464B51"/>
<path d="M36.7835 67.2373C36.9094 68.4419 38.0209 69.3125 39.2037 69.1701C45.2868 68.4912 50.6965 67.0293 54.8411 64.9377C57.3871 63.6017 55.4653 59.7689 52.87 61.0282C49.2343 62.8625 44.2079 64.2039 38.7156 64.8171C37.511 64.9486 36.6466 66.0327 36.7835 67.2373Z" fill="#464B51"/>
<path d="M65.2777 118.12H37.9011C37.2276 116.177 35.7054 114.649 33.7617 113.976V108.889C50.5387 108.396 62.9395 102.291 62.9395 94.286C62.9286 80.0279 62.945 60.5849 62.9395 46.3001C62.5453 26.895 0.586223 26.8838 0.190943 46.3001V86.6215C0.486618 89.9724 5.06957 89.2606 4.57126 85.9371C15.2866 95.1796 47.8376 95.1796 58.5592 85.948V94.287C58.5592 99.1437 47.4771 104.559 31.5765 104.559C15.6643 104.559 4.57126 99.1437 4.57126 94.287C4.53841 91.4179 0.234676 91.4015 0.190943 94.287C0.190943 102.292 12.5983 108.397 29.38 108.89V113.977C27.4362 114.65 25.914 116.178 25.2406 118.121H2.15599C-0.696755 118.149 -0.740488 122.458 2.15599 122.502H25.2462C26.1606 125.13 28.6355 127.03 31.5703 127.03C34.505 127.03 36.98 125.13 37.8943 122.502H65.271C68.1347 122.447 68.1675 118.176 65.271 118.121L65.2777 118.12ZM31.5766 36.0283C47.4775 36.0283 58.5594 41.4435 58.5594 46.3001C58.5594 48.233 56.7579 50.2807 53.4837 52.0658C52.4214 52.6462 52.0271 53.9767 52.6076 55.0389C54.0914 57.6343 57.1194 55.028 58.5594 53.9438V62.3704C58.4553 67.2107 47.406 72.5711 31.571 72.5711C15.6645 72.5711 4.57701 67.1613 4.57701 62.2992C4.54416 62.2719 4.58249 53.993 4.57153 53.9602C12.4233 60.9194 35.0151 62.7866 47.4272 59.025C50.1923 58.2365 49.1026 54.1026 46.2992 54.7926C33.3116 58.9758 5.14667 55.5263 4.57057 46.3057C4.57057 41.4491 15.6638 36.0339 31.5758 36.0339L31.5766 36.0283ZM31.5711 88.5599C15.6646 88.5599 4.57714 83.1502 4.57714 78.2881C4.54976 78.2553 4.58262 69.9819 4.57167 69.9436C15.2815 79.1862 47.8436 79.1862 58.5596 69.9546V78.3539C58.4556 83.1941 47.4063 88.5545 31.5713 88.5545L31.5711 88.5599ZM31.5711 122.649C28.4885 122.595 28.4885 118.012 31.5711 117.957C34.6537 118.012 34.6537 122.595 31.5711 122.649Z" fill="#464B51"/>
<path d="M8.91934 59.9442C6.03926 59.9935 6.03926 64.2752 8.91934 64.3245C11.7994 64.2753 11.7994 59.9936 8.91934 59.9442Z" fill="#464B51"/>
<path d="M17.247 63.0167C14.3669 63.066 14.3669 67.3477 17.247 67.397C20.127 67.3478 20.127 63.0661 17.247 63.0167Z" fill="#464B51"/>
<path d="M26.8178 64.5601C23.9377 64.6093 23.9377 68.891 26.8178 68.9404C29.6979 68.8911 29.6979 64.6094 26.8178 64.5601Z" fill="#464B51"/>
<path d="M52.87 76.7268C49.2343 78.5611 44.2079 79.9025 38.7156 80.5158C37.511 80.6472 36.6459 81.7313 36.7828 82.9359C36.9087 84.1405 38.0202 85.0111 39.203 84.8687C45.2861 84.1898 50.6958 82.7279 54.8404 80.6363C57.3864 79.3003 55.4653 75.4675 52.87 76.7268Z" fill="#464B51"/>
<path d="M8.91934 75.6475C6.03926 75.6967 6.03926 79.9784 8.91934 80.0278C11.7994 79.9785 11.7994 75.6968 8.91934 75.6475Z" fill="#464B51"/>
<path d="M17.247 78.7144C14.3669 78.7636 14.3669 83.0453 17.247 83.0947C20.127 83.0454 20.127 78.7637 17.247 78.7144Z" fill="#464B51"/>
<path d="M26.8178 80.2632C23.9377 80.3125 23.9377 84.5942 26.8178 84.6435C29.6979 84.5942 29.6979 80.3125 26.8178 80.2632Z" fill="#464B51"/>
<path d="M39.2038 100.573C45.2869 99.8936 50.6911 98.4317 54.8412 96.3456C57.3872 95.0096 55.4653 91.1822 52.8701 92.4361C49.2343 94.2703 44.208 95.6118 38.7157 96.225C35.8575 96.5919 36.3394 100.857 39.203 100.578L39.2038 100.573Z" fill="#464B51"/>
<path d="M11.1088 93.5359C11.0596 90.6558 6.77786 90.6558 6.72852 93.5359C6.77779 96.416 11.0595 96.416 11.1088 93.5359Z" fill="#464B51"/>
<path d="M19.4374 96.6071C19.3882 93.727 15.1065 93.727 15.0571 96.6071C15.1064 99.4872 19.3881 99.4872 19.4374 96.6071Z" fill="#464B51"/>
<path d="M29.0087 98.1575C28.9595 95.2774 24.6778 95.2774 24.6284 98.1575C24.6777 101.038 28.9594 101.038 29.0087 98.1575Z" fill="#464B51"/>
</svg>
