<svg width="150" height="99" viewBox="0 0 150 99" fill="none" xmlns="http://www.w3.org/2000/svg">
<path d="M143.246 49.076C138.93 44.7541 133.195 42.3566 127.091 42.3142C123.752 18.3205 103.053 0 78.4977 0C61.1829 0 45.2463 9.08208 36.3804 23.847C36.1449 23.8412 35.9114 23.8373 35.6739 23.8373C16.0041 23.8373 0 39.8434 0 59.517C0 79.1907 16.0022 95.1987 35.6739 95.1987C37.2317 95.1987 38.8068 95.0867 40.4514 94.8628C43.0361 97.0479 46.2462 98.2312 49.6706 98.2312H113.199C119.517 98.2312 124.875 94.2258 126.802 88.4774C126.842 88.4774 126.881 88.4774 126.923 88.4774C139.648 88.4774 150 78.129 150 65.4045C150.002 59.2371 147.604 53.4347 143.246 49.076ZM126.929 81.4955C126.122 81.4955 125.331 81.424 124.561 81.3005C123.592 81.1635 122.632 81.4125 121.872 82.0109C121.109 82.6112 120.634 83.4972 120.551 84.4585C120.215 88.3307 117.056 91.2493 113.195 91.2493H49.6706C47.58 91.2493 45.6382 90.3768 44.2001 88.7959C43.5322 88.0585 42.5902 87.6493 41.6154 87.6493C41.4069 87.6493 41.1985 87.6686 40.9977 87.7033C39.1099 88.0469 37.3707 88.2129 35.6817 88.2129C19.8609 88.2129 6.98963 75.3397 6.98963 59.5151C6.98963 43.6924 19.8609 30.8192 35.6817 30.8192C36.4847 30.8192 37.2703 30.8791 38.0521 30.9428C39.4612 31.0721 40.7545 30.3463 41.4147 29.1244C48.7923 15.4694 63.007 6.98384 78.5054 6.98384C100.582 6.98384 119.022 24.2465 120.49 46.2848C120.553 47.2558 121.02 48.1591 121.779 48.771C122.536 49.3829 123.528 49.6474 124.478 49.5065C129.45 48.7807 134.687 50.3848 138.312 54.0118C141.354 57.054 143.022 61.098 143.018 65.4045C143.02 74.2781 135.805 81.4955 126.929 81.4955Z" fill="#464B51"/>
<path d="M104.505 71.792C106.947 71.792 108.927 69.8121 108.927 67.3697C108.927 64.9273 106.947 62.9474 104.505 62.9474C102.062 62.9474 100.083 64.9273 100.083 67.3697C100.083 69.8121 102.062 71.792 104.505 71.792Z" fill="#464B51"/>
<path d="M112.482 63.2813C114.928 63.2813 116.905 61.2988 116.905 58.8609C116.905 56.4171 114.928 54.4347 112.482 54.4347C110.043 54.4347 108.062 56.4133 108.062 58.8609C108.062 61.2988 110.043 63.2813 112.482 63.2813Z" fill="#464B51"/>
<path d="M103.968 55.307C106.411 55.307 108.392 53.3262 108.392 50.8828C108.392 48.4393 106.411 46.4585 103.968 46.4585C101.524 46.4585 99.5435 48.4393 99.5435 50.8828C99.5435 53.3262 101.524 55.307 103.968 55.307Z" fill="#464B51"/>
<path d="M91.5679 59.3993C91.5679 61.8354 93.5445 63.8197 95.9883 63.8197C98.434 63.8197 100.414 61.8354 100.414 59.3993C100.414 56.9556 98.434 54.9731 95.9883 54.9731C93.5445 54.9731 91.5679 56.9575 91.5679 59.3993Z" fill="#464B51"/>
<path d="M33.1025 59.3917C33.1025 61.5633 34.8572 63.3218 37.0307 63.3218H42.6209V68.91C42.6209 71.0797 44.3813 72.844 46.549 72.844C48.7168 72.844 50.4733 71.0797 50.4733 68.91V63.3218H56.0693C58.2389 63.3218 59.9955 61.5633 59.9955 59.3917C59.9955 57.2298 58.2389 55.4655 56.0693 55.4655H50.4733V49.8753C50.4733 47.7037 48.7168 45.9471 46.549 45.9471C44.3794 45.9471 42.6209 47.7037 42.6209 49.8753V55.4655H37.0307C34.861 55.4655 33.1025 57.2259 33.1025 59.3917Z" fill="#464B51"/>
</svg>
