<svg width="150" height="128" viewBox="0 0 150 128" fill="none" xmlns="http://www.w3.org/2000/svg">
<path fill-rule="evenodd" clip-rule="evenodd" d="M131.4 63.5457C131.22 63.3647 131.098 63.1346 131.049 62.8843C131 62.634 131.026 62.3747 131.124 62.1393C131.222 61.9038 131.388 61.7026 131.6 61.5611C131.812 61.4196 132.062 61.3441 132.317 61.3441C132.572 61.3441 132.821 61.4196 133.033 61.5611C133.245 61.7026 133.411 61.9038 133.509 62.1393C133.607 62.3747 133.633 62.634 133.584 62.8843C133.535 63.1346 133.413 63.3647 133.233 63.5457C133.113 63.6671 132.971 63.7634 132.813 63.8292C132.656 63.8949 132.487 63.9288 132.317 63.9288C132.146 63.9288 131.977 63.8949 131.82 63.8292C131.663 63.7634 131.52 63.6671 131.4 63.5457ZM137.862 64.8657C138.376 63.5872 138.434 62.1701 138.024 60.8542C137.614 59.5382 136.762 58.4043 135.613 57.6441C134.463 56.8839 133.086 56.5443 131.715 56.6825C130.343 56.8207 129.062 57.4284 128.087 58.4028C127.112 59.3771 126.504 60.6583 126.365 62.0295C126.226 63.4008 126.565 64.7779 127.324 65.928C128.084 67.0781 129.218 67.9305 130.533 68.341C131.849 68.7514 133.266 68.6949 134.545 68.1807L136.067 69.7007C136.284 69.9183 136.543 70.0908 136.827 70.2085C137.112 70.3261 137.417 70.3866 137.725 70.3865C138.032 70.3863 138.337 70.3255 138.621 70.2076C138.906 70.0896 139.164 69.9169 139.382 69.6991C139.599 69.4813 139.772 69.2228 139.889 68.9384C140.007 68.6539 140.068 68.3491 140.067 68.0412C140.067 67.7334 140.006 67.4286 139.889 67.1443C139.771 66.86 139.598 66.6016 139.38 66.3841L137.862 64.8657ZM145.313 70.9941V56.0424C145.31 55.7902 145.208 55.5493 145.03 55.3709C144.851 55.1926 144.611 55.0909 144.358 55.0874H121.087V71.9491H144.358C144.611 71.946 144.852 71.8445 145.03 71.666C145.209 71.4876 145.31 71.2464 145.313 70.9941ZM120.888 100.401C116.078 97.7113 110.981 95.5728 105.692 94.0257C107.364 88.343 108.535 82.5246 109.192 76.6374H132.358C130.392 85.3279 126.47 93.4553 120.888 100.401ZM90.9383 120.164C101.169 117.299 110.43 111.711 117.735 103.997C113.441 101.687 108.916 99.8336 104.235 98.4691C102.64 103.016 100.559 107.377 98.0283 111.477C96.0585 114.67 93.6757 117.589 90.9417 120.157L90.9383 120.164ZM32.2717 103.997C36.5655 101.687 41.0903 99.8336 45.7717 98.4691C47.3676 103.016 49.4497 107.377 51.9817 111.477C53.95 114.672 56.3336 117.59 59.07 120.157C48.8382 117.292 39.5754 111.705 32.2683 103.991L32.2717 103.997ZM40.815 76.6307H17.6483C19.6099 85.3235 23.5307 93.4535 29.1117 100.401C33.9215 97.7113 39.0193 95.5728 44.3083 94.0257C42.6352 88.3432 41.464 82.5248 40.8083 76.6374L40.815 76.6307ZM75 89.7307C66.1867 89.704 57.4019 90.733 48.8333 92.7957C47.2716 87.5142 46.1664 82.1082 45.53 76.6374H104.48C103.84 82.1085 102.732 87.5145 101.167 92.7957C92.5981 90.733 83.8133 89.704 75 89.7307ZM75 122.346C68.1333 122.346 61.3667 117.604 55.9417 108.987C53.6561 105.285 51.7662 101.352 50.3033 97.2541C66.5489 93.4718 83.4461 93.4718 99.6917 97.2541C98.2303 101.353 96.3398 105.286 94.0517 108.987C88.6333 117.604 81.865 122.351 75 122.351V122.346ZM4.68833 70.9941V56.0424C4.69178 55.7902 4.79351 55.5493 4.97186 55.3709C5.15022 55.1926 5.39113 55.0909 5.64333 55.0874H116.4V71.9491H5.64333C5.39099 71.946 5.14984 71.8445 4.97139 71.666C4.79295 71.4876 4.69136 71.2464 4.68833 70.9941ZM29.1283 26.6174C33.9354 29.3039 39.0305 31.4391 44.3167 32.9824C42.6394 38.6747 41.4649 44.5031 40.8067 50.4007H17.64C19.6073 41.7009 23.5374 33.5659 29.13 26.6174H29.1283ZM59.065 6.87241C48.8429 9.7362 39.5873 15.3154 32.2817 23.0174C36.5766 25.3242 41.1013 27.1748 45.7817 28.5391C47.3767 24.002 49.4553 19.6497 51.9817 15.5574C53.9495 12.3624 56.3332 9.44293 59.07 6.87575L59.065 6.87241ZM117.718 23.0174C113.423 25.3242 108.899 27.1748 104.218 28.5391C102.623 24.0023 100.545 19.6501 98.02 15.5574C96.0506 12.3639 93.6677 9.44477 90.9333 6.87575C101.156 9.73863 110.412 15.3167 117.718 23.0174ZM75 37.2774C83.8132 37.3031 92.5978 36.2747 101.167 34.2141C102.734 39.5045 103.842 44.9201 104.48 50.4007H45.525C46.1602 44.9201 47.267 39.5044 48.8333 34.2141C57.4023 36.2746 66.1868 37.3031 75 37.2774ZM75 4.68908C81.8633 4.68908 88.6317 9.43408 94.0517 18.0507C96.3354 21.7441 98.223 25.668 99.6833 29.7574C91.5949 31.6651 83.3103 32.6161 75 32.5907C66.6886 32.6163 58.4029 31.6653 50.3133 29.7574C51.7739 25.6687 53.6604 21.7449 55.9417 18.0507C61.3683 9.43408 68.135 4.68408 75 4.68408V4.68908ZM109.192 50.4007H132.358C130.392 41.701 126.462 33.566 120.87 26.6174C116.062 29.3042 110.967 31.4394 105.68 32.9824C107.359 38.6744 108.534 44.503 109.192 50.4007ZM144.358 50.4007H137.157C134.146 36.1462 126.328 23.3595 115.012 14.1836C103.696 5.0076 89.5697 0 75.0008 0C60.4319 0 46.3057 5.0076 34.9896 14.1836C23.6735 23.3595 15.8552 36.1462 12.845 50.4007H5.64333C4.14732 50.4021 2.71294 50.9968 1.65494 52.0545C0.596949 53.1122 0.00176514 54.5464 0 56.0424V70.9941C0.00132396 72.4904 0.596313 73.925 1.65436 74.9831C2.7124 76.0411 4.14703 76.6361 5.64333 76.6374H12.845C15.8568 90.8906 23.6757 103.676 34.9916 112.85C46.3076 122.025 60.4329 127.032 75.0008 127.032C89.5687 127.032 103.694 122.025 115.01 112.85C126.326 103.676 134.145 90.8906 137.157 76.6374H144.358C145.854 76.6352 147.288 76.0399 148.346 74.982C149.403 73.9241 149.998 72.49 150 70.9941V56.0424C149.998 54.5467 149.403 53.1127 148.346 52.0551C147.288 50.9975 145.854 50.4025 144.358 50.4007Z" fill="#464B51"/>
</svg>
