<svg width="23" height="22" viewBox="0 0 23 22" fill="none" xmlns="http://www.w3.org/2000/svg">
<path d="M8.90002 15L13.3199 8.47997L18.15 1.36996C18.76 0.459959 19.29 0.369974 20.21 0.979974L21.54 1.87997C22.47 2.51997 22.5401 3.04996 21.9301 3.99996L12.36 18.1099C11.9 18.7899 11.44 19.4799 10.97 20.1099C10.8378 20.3962 10.6327 20.6427 10.3754 20.8247C10.118 21.0068 9.81743 21.1181 9.50354 21.1475C9.18965 21.1768 8.87346 21.1232 8.58679 20.9921C8.30012 20.8609 8.05296 20.6567 7.87 20.4C6.10999 18.67 4.37 16.91 2.62 15.16C2.23 14.77 1.82994 14.38 1.43994 13.98C1.29479 13.8689 1.17726 13.7258 1.09631 13.5619C1.01537 13.3981 0.973267 13.2178 0.973267 13.035C0.973267 12.8522 1.01537 12.6718 1.09631 12.508C1.17726 12.3441 1.29479 12.201 1.43994 12.09C1.86994 11.65 2.31 11.21 2.75 10.78C2.86246 10.619 3.01206 10.4877 3.18616 10.3969C3.36025 10.3062 3.55368 10.2588 3.75 10.2588C3.94632 10.2588 4.13975 10.3062 4.31384 10.3969C4.48794 10.4877 4.63754 10.619 4.75 10.78L8.90002 15Z" fill="#1FBAD6"/>
</svg>
