<svg width="150" height="138" viewBox="0 0 150 138" fill="none" xmlns="http://www.w3.org/2000/svg">
<path d="M147.782 112.771H145.965L145.958 28.6625C145.958 25.9535 145.046 23.3773 143.362 21.2807C144.401 16.2619 144.887 10.9502 144.78 5.43871C144.727 2.45005 142.344 0.0738033 139.355 0.0138221C131.561 -0.132617 124.179 0.885799 117.443 3.00913C117.31 3.03576 117.171 3.08235 117.044 3.1356C111.786 4.8263 106.933 7.19592 102.587 10.2045C100.823 11.4293 99.1453 12.7539 97.5677 14.1716L94.446 11.9816C91.8634 10.1645 88.5085 10.1445 85.8994 11.9217L78.6839 16.8341L15.8553 16.8274C9.33219 16.8274 4.02044 22.1391 4.02044 28.6623V112.771H2.20329C0.985191 112.771 0 113.756 0 114.974V120.172C0 129.458 7.5549 137.013 16.8404 137.013H133.16C142.445 137.013 150 129.458 150 120.172V114.974C150 113.756 149.015 112.771 147.797 112.771L147.782 112.771ZM137.046 112.771V38.3072C138.849 35.1321 140.347 31.7374 141.525 28.1498C141.538 28.3228 141.545 28.4892 141.545 28.6623V112.771L137.046 112.771ZM60.4979 117.184H89.4797V122.249C89.4797 122.489 89.28 122.689 89.0404 122.689H60.9379C60.6983 122.689 60.4986 122.489 60.4986 122.249L60.4979 117.184ZM17.3387 112.771V30.1535H79.2216L84.2338 33.0824C83.5415 34.7464 82.9158 36.4572 82.3699 38.2143L76.9783 40.0315C75.8134 40.4242 74.9481 41.3761 74.6685 42.5742C74.3888 43.7724 74.7417 45.0104 75.6137 45.8757L98.9245 69.1866C99.5968 69.8589 100.489 70.225 101.414 70.225C101.687 70.225 101.96 70.1917 102.226 70.1318C103.424 69.8522 104.376 68.9869 104.769 67.822L106.586 62.4304C108.343 61.8845 110.054 61.2588 111.718 60.5665L119.206 73.3931C119.586 74.0454 120.278 74.4581 121.037 74.4847H121.116C121.842 74.4847 122.528 74.1253 122.94 73.5196L132.638 59.275V112.778L17.3387 112.771ZM83.5617 42.4667L102.326 61.2313L101.035 65.0653L79.728 43.7583L83.5617 42.4667ZM132.632 50.0949L130.622 47.2326C131.314 46.4605 131.986 45.6684 132.632 44.8564V50.0949ZM127.487 50.441L129.211 52.8905C129.983 53.9888 129.996 55.3135 129.237 56.4183L121.257 68.1401L115.738 58.6881C120.072 56.4582 124.012 53.6892 127.493 50.4342L127.487 50.441ZM139.275 4.4259C139.874 4.43921 140.36 4.91846 140.367 5.51752C140.48 11.6146 139.854 17.359 138.536 22.6769L122.115 6.25587C127.427 4.93792 133.171 4.31227 139.268 4.42542L139.275 4.4259ZM117.309 7.68755L137.118 27.4967C131.979 42.3802 120.976 53.2766 105.488 58.1484L86.6502 39.3106C91.5227 23.8215 102.426 12.8183 117.309 7.68073V7.68755ZM88.3747 15.562C89.4863 14.8031 90.8043 14.8164 91.9025 15.5886L94.352 17.3125C91.1038 20.7938 88.3348 24.7343 86.0981 29.0675L76.6461 23.5494L88.3679 15.5685L88.3747 15.562ZM8.4259 28.6615C8.4259 24.568 11.754 21.2397 15.8477 21.2397H72.1925L71.2806 21.8587C70.6549 22.2848 70.2888 23.0036 70.3155 23.7558C70.3421 24.5146 70.7548 25.2002 71.4071 25.5863L71.6667 25.7394H15.8535C14.2693 25.7394 12.9315 27.0773 12.9315 28.6614V112.77H8.43187L8.4259 28.6615ZM145.572 120.172C145.572 127.021 140 132.599 133.144 132.599H16.825C9.9757 132.599 4.39762 127.028 4.39762 120.172V117.177H56.0769V122.242C56.0769 124.918 58.2534 127.095 60.9294 127.095H89.0319C91.7077 127.095 93.8844 124.918 93.8844 122.242V117.177H145.564V120.172H145.572ZM104.888 86.511C103.411 85.0333 103.004 82.9965 103.803 81.0595C104.243 79.9945 104.981 79.1425 105.933 78.6034C106.719 78.1574 107.158 77.2854 107.038 76.3868C106.918 75.4948 106.266 74.7627 105.394 74.5431L93.273 71.4745C92.7072 71.328 92.1015 71.4212 91.6023 71.7207C91.0964 72.0203 90.737 72.5062 90.5905 73.0786C88.7867 80.2275 82.37 85.2197 74.9883 85.2197C66.1155 85.2197 58.8934 77.9976 58.8934 69.1248C58.8934 61.6432 63.9655 55.2065 71.2341 53.4692C71.8066 53.3361 72.2925 52.9767 72.6053 52.4774C72.9115 51.9782 73.0047 51.3792 72.8716 50.8067L69.8497 38.1931C69.63 37.2745 68.8512 36.6023 67.9128 36.5091C66.9742 36.4159 66.0823 36.9351 65.6962 37.7937C65.177 38.932 64.2651 39.7973 63.0536 40.2966C61.1166 41.0953 59.0865 40.6893 57.6021 39.2116L56.5904 38.1999C54.8864 36.4958 52.1173 36.4958 50.4133 38.1999L44.0765 44.5367C42.3724 46.2407 42.3724 49.0098 44.0765 50.7138L45.0882 51.7255C46.5659 53.2032 46.972 55.24 46.1732 57.177C45.3744 59.1073 43.6438 60.2655 41.5538 60.2655H40.1227C37.713 60.2655 35.7562 62.2224 35.7562 64.632V73.5914C35.7562 76.001 37.713 77.9579 40.1227 77.9579H41.5538C43.6439 77.9579 45.3745 79.1095 46.1732 81.0464C46.9719 82.9767 46.5659 85.0135 45.0882 86.4979L44.0765 87.5097C42.3724 89.2137 42.3724 91.9827 44.0765 93.6867L50.4133 100.024C52.1173 101.728 54.8864 101.728 56.5904 100.024L57.6021 99.0118C59.0798 97.5341 61.1166 97.128 63.0536 97.9269C64.9839 98.7256 66.1421 100.456 66.1421 102.546V103.977C66.1421 106.387 68.099 108.344 70.5086 108.344H79.468C81.8776 108.344 83.8345 106.387 83.8345 103.977V102.546C83.8345 100.456 84.9861 98.7255 86.923 97.9269C88.8533 97.1281 90.8901 97.5341 92.3745 99.0118L93.3863 100.024C95.0903 101.728 97.8593 101.728 99.5633 100.024L105.9 93.6867C107.604 91.9827 107.604 89.2137 105.9 87.5097L104.888 86.4979L104.888 86.511ZM96.4747 96.8814L95.4962 95.903C92.7538 93.1605 88.8266 92.3752 85.2389 93.8662C81.6578 95.3505 79.4279 98.6853 79.4279 102.559V103.944H70.5551V102.559C70.5551 98.6788 68.3253 95.3505 64.7441 93.8662C61.163 92.3818 57.2291 93.1606 54.4868 95.903L53.5083 96.8814L47.2314 90.6045L48.2099 89.6261C50.9524 86.8836 51.7311 82.9564 50.2467 79.3688C48.7624 75.7876 45.4276 73.5578 41.5535 73.5578H40.169V64.685H41.5535C45.4341 64.685 48.7624 62.4551 50.2467 58.874C51.7311 55.2928 50.9456 51.3589 48.2099 48.6167L47.2314 47.6382L53.5083 41.3613L54.4868 42.3398C57.2292 45.0822 61.1565 45.8676 64.7441 44.3766C65.3898 44.1103 65.9955 43.7775 66.5613 43.3848L68.0989 49.7948C59.9849 52.6703 54.4867 60.325 54.4867 69.1114C54.4867 80.4204 63.6856 89.6124 74.9877 89.6124C83.6475 89.6124 91.269 84.2207 94.2106 76.2533L100.507 77.8508C100.208 78.3234 99.9483 78.8293 99.722 79.3618C98.2376 82.9429 99.0231 86.8768 101.759 89.6191L102.737 90.5975L96.4604 96.8744L96.4747 96.8814ZM76.5855 75.1485L86.0308 65.7032C86.8961 64.8445 88.2873 64.8378 89.1526 65.7032C90.0179 66.5685 90.0179 67.9596 89.1526 68.8249L79.7072 78.2702C79.2746 78.7029 78.7088 78.9159 78.1497 78.9159C77.5839 78.9159 77.0181 78.7029 76.5921 78.2702C75.7268 77.4116 75.7268 76.0138 76.5921 75.1485H76.5855ZM66.5279 65.0909L75.9732 55.6456C76.8319 54.7803 78.2297 54.7803 79.095 55.6456C79.9603 56.5042 79.9603 57.902 79.095 58.7673L69.6497 68.2126C69.217 68.6453 68.6512 68.8583 68.0921 68.8583C67.5263 68.8583 66.9605 68.6453 66.5345 68.2126C65.6692 67.354 65.6692 65.9562 66.5345 65.0909H66.5279ZM68.3584 73.318L81.0053 60.671C81.864 59.8124 83.2618 59.8057 84.1271 60.671C84.9924 61.5297 84.9924 62.9275 84.1271 63.7928L71.4801 76.4398C71.0474 76.8725 70.4817 77.0855 69.9225 77.0855C69.3568 77.0855 68.791 76.8725 68.365 76.4398C67.4996 75.5745 67.4996 74.1833 68.365 73.318H68.3584ZM115.824 41.2673C122.606 41.2673 128.118 35.7492 128.118 28.9732C128.118 22.197 122.6 16.6791 115.824 16.6791C109.047 16.6791 103.529 22.1972 103.529 28.9732C103.529 35.7494 109.048 41.2673 115.824 41.2673ZM115.824 21.085C120.17 21.085 123.711 24.6195 123.711 28.9727C123.711 33.3193 120.177 36.8604 115.824 36.8604C111.477 36.8604 107.943 33.3259 107.943 28.9727C107.943 24.6261 111.477 21.085 115.824 21.085Z" fill="#464B51"/>
</svg>
