<svg width="22" height="22" viewBox="0 0 22 22" fill="none" xmlns="http://www.w3.org/2000/svg">
<path d="M8 15C9.51 12.77 11 10.62 12.42 8.47997L17.24 1.36996C17.86 0.459959 18.38 0.369974 19.3 0.979974L20.63 1.87997C21.56 2.51997 21.63 3.04996 21.02 3.99996C17.84 8.66663 14.65 13.3699 11.45 18.1099C10.99 18.7899 10.53 19.4799 10.06 20.1099C9.92929 20.3963 9.7254 20.6431 9.46887 20.8255C9.21235 21.0079 8.91226 21.1194 8.59888 21.1488C8.2855 21.1782 7.96994 21.1245 7.68396 20.993C7.39798 20.8615 7.15167 20.657 6.96997 20.4C5.19997 18.67 3.46002 16.91 1.71002 15.16L0.559998 14C0.416571 13.8877 0.300597 13.7443 0.220825 13.5806C0.141053 13.4168 0.0995483 13.2371 0.0995483 13.055C0.0995483 12.8728 0.141053 12.6931 0.220825 12.5294C0.300597 12.3656 0.416571 12.2222 0.559998 12.1099L1.87 10.8C1.98245 10.639 2.13206 10.5077 2.30615 10.4169C2.48025 10.3262 2.67368 10.2788 2.87 10.2788C3.06631 10.2788 3.25975 10.3262 3.43384 10.4169C3.60793 10.5077 3.75754 10.639 3.87 10.8L8 15Z" fill="#713E9E"/>
</svg>
