<svg width="22" height="22" viewBox="0 0 22 22" fill="none" xmlns="http://www.w3.org/2000/svg">
<path d="M8.15002 15L12.58 8.46995C14.18 6.10995 15.79 3.72998 17.4 1.36998C18.02 0.459977 18.54 0.369963 19.46 0.979963L20.79 1.87999C21.72 2.50999 21.7901 3.03997 21.1801 3.98997L11.61 18.11C11.15 18.79 10.69 19.48 10.22 20.11C10.0878 20.3962 9.88273 20.6427 9.62537 20.8248C9.368 21.0068 9.06743 21.1181 8.75354 21.1475C8.43965 21.1769 8.12346 21.1233 7.83679 20.9921C7.55012 20.8609 7.30296 20.6567 7.12 20.4C5.35999 18.67 3.62 16.91 1.87 15.16C1.48 14.77 1.07994 14.38 0.689941 13.98C0.54479 13.8689 0.42726 13.7259 0.346313 13.562C0.265367 13.3981 0.223267 13.2177 0.223267 13.035C0.223267 12.8522 0.265367 12.6719 0.346313 12.508C0.42726 12.3441 0.54479 12.2011 0.689941 12.09C1.11994 11.65 1.56 11.21 2 10.78C2.11246 10.6191 2.26206 10.4877 2.43616 10.397C2.61025 10.3062 2.80368 10.2588 3 10.2588C3.19632 10.2588 3.38975 10.3062 3.56384 10.397C3.73794 10.4877 3.88754 10.6191 4 10.78L8.15002 15Z" fill="#F9C55F"/>
</svg>
