<svg width="22" height="22" viewBox="0 0 22 22" fill="none" xmlns="http://www.w3.org/2000/svg">
<path d="M8.21002 15L12.63 8.47997L17.45 1.36996C18.07 0.459959 18.59 0.369974 19.52 0.979974L20.85 1.87997C21.78 2.51997 21.85 3.04996 21.24 3.99996L11.67 18.1099C11.2 18.7899 10.75 19.4799 10.28 20.1099C9.39003 21.3799 8.27999 21.51 7.17999 20.4C5.41999 18.67 3.67999 16.91 1.92999 15.16C1.53999 14.77 1.14 14.38 0.75 13.98C0.604848 13.8689 0.487257 13.7258 0.406311 13.5619C0.325365 13.3981 0.283264 13.2178 0.283264 13.035C0.283264 12.8522 0.325365 12.6718 0.406311 12.508C0.487257 12.3441 0.604848 12.201 0.75 12.09C1.18 11.65 1.62 11.21 2.06 10.78C2.17099 10.617 2.3201 10.4837 2.49438 10.3915C2.66867 10.2994 2.86285 10.2512 3.06 10.2512C3.25714 10.2512 3.45133 10.2994 3.62561 10.3915C3.79989 10.4837 3.949 10.617 4.06 10.78C5.43 12.18 6.79002 13.56 8.21002 15Z" fill="#0BB7A6"/>
</svg>
