<svg width="22" height="22" viewBox="0 0 22 22" fill="none" xmlns="http://www.w3.org/2000/svg">
<path d="M8.07001 15L12.49 8.47997L17.31 1.36996C17.93 0.459959 18.45 0.369974 19.38 0.979974L20.71 1.87997C21.64 2.51997 21.71 3.04996 21.1 3.99996L11.53 18.1099C11.07 18.7899 10.61 19.4799 10.14 20.1099C9.25 21.3799 8.13999 21.51 7.03999 20.4C5.27999 18.67 3.53999 16.91 1.78999 15.16C1.39999 14.77 1 14.38 0.610001 13.98C0.464849 13.8689 0.347243 13.7258 0.266296 13.5619C0.18535 13.3981 0.143234 13.2178 0.143234 13.035C0.143234 12.8522 0.18535 12.6718 0.266296 12.508C0.347243 12.3441 0.464849 12.201 0.610001 12.09L1.92 10.78C2.031 10.617 2.18012 10.4837 2.3544 10.3915C2.52868 10.2994 2.72285 10.2512 2.92 10.2512C3.11715 10.2512 3.31131 10.2994 3.4856 10.3915C3.65988 10.4837 3.809 10.617 3.92 10.78C5.29 12.18 6.65001 13.56 8.07001 15Z" fill="#EE2A7B"/>
</svg>
